<svg width="23" height="23" viewBox="0 0 23 23" fill="none" xmlns="http://www.w3.org/2000/svg">
<path d="M11.8646 2.91071C11.8223 2.86838 11.7376 2.86838 11.653 2.91071L3.61165 5.95795L11.78 9.17449L19.906 5.95796L11.8646 2.91071ZM2.97681 16.7503C2.97681 16.9196 3.06145 17.0465 3.18842 17.0889L10.7642 19.9668L10.7642 10.9521L2.97681 7.90481L2.97681 16.7503ZM12.7957 19.9668L20.3292 17.0889C20.4562 17.0466 20.5831 16.9196 20.5831 16.7503L20.5831 7.90481L12.7957 10.9521L12.7957 19.9668ZM10.9335 1.00618C11.4414 0.794563 12.0762 0.794563 12.5841 1.00618L21.0487 4.22272C21.9798 4.5613 22.6146 5.45008 22.6146 6.46583L22.6146 16.7503C22.6146 17.766 21.9798 18.6125 21.0487 18.9934L12.5841 22.2099C12.0762 22.4216 11.4837 22.4216 10.9335 22.2099L2.46893 18.9934C1.53783 18.6125 0.94531 17.766 0.94531 16.7503L0.945312 6.46583C0.945312 5.45008 1.53783 4.5613 2.46894 4.22271L10.9335 1.00618Z" fill="#D894FF"/>
</svg>
