<svg width="1500" height="845" viewBox="0 0 1500 845" fill="none" xmlns="http://www.w3.org/2000/svg">
<path d="M152.143 798.485H153.12V806.518H152.143V798.485ZM155.267 800.642H156.199V801.574C156.334 801.297 156.559 801.057 156.873 800.855C157.195 800.645 157.6 800.541 158.087 800.541C158.386 800.541 158.663 800.586 158.918 800.675C159.173 800.758 159.39 800.896 159.57 801.091C159.757 801.278 159.899 801.522 159.996 801.821C160.101 802.121 160.154 802.484 160.154 802.911V806.518H159.221V802.844C159.221 802.327 159.109 801.949 158.884 801.709C158.66 801.469 158.311 801.349 157.839 801.349C157.622 801.349 157.412 801.383 157.21 801.451C157.015 801.518 156.843 801.619 156.693 801.754C156.544 801.889 156.424 802.057 156.334 802.26C156.244 802.462 156.199 802.694 156.199 802.956V806.518H155.267V800.642ZM164.337 806.619C163.955 806.619 163.599 806.555 163.27 806.428C162.948 806.293 162.667 806.102 162.427 805.855C162.195 805.6 162.011 805.293 161.877 804.933C161.749 804.566 161.686 804.154 161.686 803.698V803.608C161.686 803.158 161.753 802.746 161.888 802.372C162.023 801.997 162.21 801.675 162.45 801.406C162.689 801.129 162.978 800.915 163.315 800.765C163.652 800.615 164.023 800.541 164.427 800.541C164.921 800.541 165.322 800.645 165.629 800.855C165.936 801.057 166.176 801.301 166.348 801.585V797.833H167.281V806.518H166.348V805.506C166.266 805.649 166.153 805.787 166.011 805.922C165.869 806.057 165.708 806.177 165.528 806.282C165.356 806.379 165.165 806.458 164.955 806.518C164.753 806.585 164.547 806.619 164.337 806.619ZM164.438 805.843C164.708 805.843 164.963 805.799 165.202 805.709C165.442 805.619 165.648 805.484 165.82 805.304C165.992 805.117 166.127 804.885 166.225 804.608C166.329 804.323 166.382 803.993 166.382 803.619V803.529C166.382 802.773 166.213 802.215 165.876 801.855C165.547 801.496 165.094 801.316 164.517 801.316C163.933 801.316 163.476 801.511 163.146 801.9C162.817 802.289 162.652 802.844 162.652 803.563V803.653C162.652 804.027 162.697 804.353 162.787 804.63C162.884 804.9 163.011 805.124 163.169 805.304C163.333 805.484 163.524 805.619 163.742 805.709C163.959 805.799 164.191 805.843 164.438 805.843ZM171.288 806.619C170.996 806.619 170.722 806.577 170.468 806.495C170.221 806.413 170.007 806.282 169.827 806.102C169.648 805.915 169.505 805.679 169.4 805.394C169.296 805.109 169.243 804.765 169.243 804.36V800.642H170.176V804.316C170.176 804.832 170.284 805.211 170.501 805.45C170.726 805.69 171.071 805.81 171.535 805.81C171.745 805.81 171.947 805.776 172.142 805.709C172.336 805.641 172.509 805.54 172.659 805.405C172.808 805.27 172.928 805.102 173.018 804.9C173.108 804.698 173.153 804.465 173.153 804.203V800.642H174.085V806.518H173.153V805.585C173.018 805.862 172.79 806.106 172.468 806.315C172.153 806.518 171.76 806.619 171.288 806.619ZM177.933 806.619C177.229 806.619 176.674 806.454 176.27 806.124C175.873 805.787 175.66 805.315 175.63 804.709H176.54C176.577 805.061 176.697 805.338 176.899 805.54C177.109 805.742 177.45 805.843 177.922 805.843C178.371 805.843 178.697 805.769 178.899 805.619C179.101 805.461 179.202 805.226 179.202 804.911C179.202 804.604 179.086 804.383 178.854 804.248C178.629 804.113 178.289 804.005 177.832 803.922C177.45 803.855 177.128 803.776 176.865 803.686C176.603 803.589 176.394 803.473 176.236 803.338C176.079 803.203 175.963 803.042 175.888 802.855C175.821 802.668 175.787 802.447 175.787 802.192C175.787 801.922 175.847 801.687 175.967 801.484C176.086 801.275 176.24 801.102 176.427 800.968C176.622 800.825 176.835 800.72 177.068 800.653C177.307 800.578 177.543 800.541 177.775 800.541C178.038 800.541 178.289 800.571 178.528 800.63C178.768 800.683 178.981 800.777 179.169 800.911C179.363 801.046 179.524 801.222 179.652 801.439C179.779 801.657 179.861 801.922 179.899 802.237H179C178.933 801.915 178.802 801.683 178.607 801.54C178.42 801.391 178.139 801.316 177.764 801.316C177.427 801.316 177.158 801.394 176.955 801.552C176.753 801.702 176.652 801.904 176.652 802.158C176.652 802.293 176.671 802.409 176.708 802.507C176.753 802.597 176.828 802.679 176.933 802.754C177.038 802.821 177.176 802.885 177.349 802.945C177.528 802.997 177.753 803.046 178.023 803.091C178.322 803.151 178.599 803.218 178.854 803.293C179.109 803.361 179.326 803.458 179.506 803.585C179.693 803.705 179.835 803.866 179.933 804.068C180.037 804.263 180.09 804.518 180.09 804.832C180.09 805.372 179.91 805.806 179.551 806.136C179.191 806.458 178.652 806.619 177.933 806.619ZM183.429 806.596C182.889 806.596 182.489 806.454 182.227 806.169C181.972 805.885 181.845 805.51 181.845 805.046V801.428H181.002V800.642H181.845V799.305H182.777V800.642H184.148V801.428H182.777V804.956C182.777 805.525 183.021 805.81 183.507 805.81C183.657 805.81 183.788 805.799 183.901 805.776C184.013 805.754 184.122 805.724 184.226 805.686V806.473C184.129 806.51 184.02 806.54 183.901 806.563C183.781 806.585 183.624 806.596 183.429 806.596ZM185.768 800.642H186.7V801.698C186.79 801.533 186.891 801.383 187.004 801.248C187.123 801.106 187.258 800.986 187.408 800.889C187.558 800.784 187.734 800.702 187.936 800.642C188.138 800.582 188.371 800.548 188.633 800.541V801.417C188.341 801.432 188.075 801.469 187.835 801.529C187.595 801.589 187.389 801.69 187.217 801.833C187.052 801.975 186.925 802.166 186.835 802.406C186.745 802.638 186.7 802.934 186.7 803.293V806.518H185.768V800.642ZM190.146 800.642H191.078V806.518H190.146V800.642ZM190.595 799.417C190.423 799.417 190.277 799.357 190.157 799.237C190.037 799.117 189.977 798.971 189.977 798.799C189.977 798.627 190.037 798.481 190.157 798.361C190.277 798.241 190.423 798.181 190.595 798.181C190.768 798.181 190.914 798.241 191.034 798.361C191.153 798.481 191.213 798.627 191.213 798.799C191.213 798.971 191.153 799.117 191.034 799.237C190.914 799.357 190.768 799.417 190.595 799.417ZM194.591 806.619C194.321 806.619 194.066 806.585 193.827 806.518C193.587 806.45 193.377 806.345 193.197 806.203C193.025 806.061 192.887 805.881 192.782 805.664C192.684 805.447 192.636 805.188 192.636 804.889C192.636 804.551 192.718 804.267 192.883 804.035C193.048 803.802 193.265 803.615 193.534 803.473C193.812 803.331 194.126 803.229 194.478 803.17C194.838 803.102 195.205 803.068 195.579 803.068H196.422V802.642C196.422 802.17 196.324 801.833 196.13 801.63C195.935 801.421 195.613 801.316 195.164 801.316C194.355 801.316 193.905 801.668 193.815 802.372H192.883C192.913 802.035 192.995 801.75 193.13 801.518C193.272 801.286 193.448 801.099 193.658 800.956C193.875 800.806 194.115 800.702 194.377 800.642C194.647 800.574 194.924 800.541 195.208 800.541C195.486 800.541 195.755 800.574 196.017 800.642C196.28 800.702 196.508 800.814 196.703 800.979C196.897 801.136 197.055 801.349 197.175 801.619C197.294 801.889 197.354 802.23 197.354 802.642V806.518H196.422V805.776C196.205 806.053 195.954 806.263 195.669 806.405C195.384 806.548 195.025 806.619 194.591 806.619ZM194.68 805.877C194.928 805.877 195.156 805.847 195.366 805.787C195.583 805.72 195.766 805.626 195.916 805.506C196.074 805.387 196.197 805.241 196.287 805.068C196.377 804.889 196.422 804.686 196.422 804.462V803.731H195.613C195.321 803.731 195.047 803.754 194.793 803.799C194.546 803.836 194.328 803.9 194.141 803.99C193.961 804.08 193.819 804.199 193.714 804.349C193.617 804.492 193.568 804.671 193.568 804.889C193.568 805.196 193.651 805.439 193.815 805.619C193.98 805.791 194.268 805.877 194.68 805.877ZM199.34 797.833H200.284V806.518H199.34V797.833ZM207.443 805.72C207.96 805.72 208.409 805.645 208.791 805.495C209.181 805.345 209.503 805.132 209.758 804.855C210.02 804.578 210.214 804.244 210.342 803.855C210.477 803.458 210.544 803.012 210.544 802.518V802.428C210.544 801.964 210.484 801.54 210.364 801.158C210.252 800.769 210.068 800.436 209.814 800.159C209.567 799.874 209.245 799.657 208.848 799.507C208.458 799.35 207.986 799.271 207.432 799.271H206.342V805.72H207.443ZM205.365 798.485H207.488C208.177 798.485 208.776 798.586 209.286 798.788C209.795 798.99 210.218 799.267 210.555 799.619C210.892 799.971 211.143 800.387 211.308 800.866C211.473 801.346 211.555 801.866 211.555 802.428V802.529C211.555 803.083 211.473 803.604 211.308 804.091C211.151 804.578 210.904 805.001 210.566 805.36C210.229 805.72 209.803 806.005 209.286 806.214C208.776 806.416 208.17 806.518 207.466 806.518H205.365V798.485ZM215.656 806.619C215.237 806.619 214.855 806.548 214.51 806.405C214.166 806.263 213.866 806.064 213.611 805.81C213.357 805.548 213.158 805.233 213.016 804.866C212.881 804.499 212.814 804.091 212.814 803.641V803.552C212.814 803.11 212.881 802.705 213.016 802.338C213.151 801.964 213.338 801.645 213.578 801.383C213.825 801.114 214.117 800.908 214.454 800.765C214.791 800.615 215.162 800.541 215.566 800.541C215.903 800.541 216.229 800.597 216.544 800.709C216.866 800.814 217.15 800.982 217.397 801.215C217.645 801.447 217.839 801.75 217.982 802.125C218.131 802.492 218.206 802.937 218.206 803.462V803.765H213.78C213.802 804.439 213.971 804.956 214.285 805.315C214.6 805.667 215.061 805.843 215.667 805.843C216.589 805.843 217.109 805.503 217.229 804.821H218.161C218.057 805.413 217.779 805.862 217.33 806.169C216.881 806.469 216.323 806.619 215.656 806.619ZM217.251 803.012C217.206 802.406 217.034 801.971 216.735 801.709C216.442 801.447 216.053 801.316 215.566 801.316C215.087 801.316 214.694 801.469 214.386 801.776C214.087 802.076 213.896 802.488 213.813 803.012H217.251ZM221.644 806.619C220.94 806.619 220.385 806.454 219.981 806.124C219.584 805.787 219.371 805.315 219.341 804.709H220.251C220.288 805.061 220.408 805.338 220.61 805.54C220.82 805.742 221.161 805.843 221.633 805.843C222.082 805.843 222.408 805.769 222.61 805.619C222.812 805.461 222.913 805.226 222.913 804.911C222.913 804.604 222.797 804.383 222.565 804.248C222.34 804.113 222 804.005 221.543 803.922C221.161 803.855 220.839 803.776 220.576 803.686C220.314 803.589 220.105 803.473 219.947 803.338C219.79 803.203 219.674 803.042 219.599 802.855C219.532 802.668 219.498 802.447 219.498 802.192C219.498 801.922 219.558 801.687 219.678 801.484C219.798 801.275 219.951 801.102 220.138 800.968C220.333 800.825 220.547 800.72 220.779 800.653C221.018 800.578 221.254 800.541 221.487 800.541C221.749 800.541 222 800.571 222.239 800.63C222.479 800.683 222.692 800.777 222.88 800.911C223.074 801.046 223.235 801.222 223.363 801.439C223.49 801.657 223.572 801.922 223.61 802.237H222.711C222.644 801.915 222.513 801.683 222.318 801.54C222.131 801.391 221.85 801.316 221.475 801.316C221.138 801.316 220.869 801.394 220.666 801.552C220.464 801.702 220.363 801.904 220.363 802.158C220.363 802.293 220.382 802.409 220.419 802.507C220.464 802.597 220.539 802.679 220.644 802.754C220.749 802.821 220.887 802.885 221.06 802.945C221.239 802.997 221.464 803.046 221.734 803.091C222.033 803.151 222.31 803.218 222.565 803.293C222.82 803.361 223.037 803.458 223.217 803.585C223.404 803.705 223.546 803.866 223.644 804.068C223.748 804.263 223.801 804.518 223.801 804.832C223.801 805.372 223.621 805.806 223.262 806.136C222.902 806.458 222.363 806.619 221.644 806.619ZM225.376 800.642H226.308V806.518H225.376V800.642ZM225.825 799.417C225.653 799.417 225.507 799.357 225.387 799.237C225.267 799.117 225.207 798.971 225.207 798.799C225.207 798.627 225.267 798.481 225.387 798.361C225.507 798.241 225.653 798.181 225.825 798.181C225.998 798.181 226.144 798.241 226.263 798.361C226.383 798.481 226.443 798.627 226.443 798.799C226.443 798.971 226.383 799.117 226.263 799.237C226.144 799.357 225.998 799.417 225.825 799.417ZM230.697 808.663C230.262 808.663 229.884 808.615 229.562 808.517C229.248 808.42 228.982 808.289 228.764 808.124C228.555 807.967 228.39 807.776 228.27 807.551C228.15 807.334 228.072 807.102 228.034 806.855H228.989C229.124 807.536 229.689 807.877 230.686 807.877C231.262 807.877 231.719 807.731 232.056 807.439C232.401 807.154 232.573 806.697 232.573 806.068V805.214C232.491 805.357 232.378 805.495 232.236 805.63C232.101 805.765 231.944 805.885 231.764 805.99C231.592 806.087 231.405 806.169 231.202 806.237C231 806.297 230.794 806.327 230.584 806.327C230.202 806.327 229.847 806.259 229.517 806.124C229.188 805.982 228.903 805.787 228.663 805.54C228.431 805.293 228.248 805.001 228.113 804.664C227.978 804.319 227.911 803.945 227.911 803.54V803.462C227.911 803.065 227.978 802.69 228.113 802.338C228.248 801.979 228.435 801.668 228.675 801.406C228.914 801.136 229.203 800.926 229.54 800.777C229.877 800.619 230.247 800.541 230.652 800.541C231.146 800.541 231.547 800.645 231.854 800.855C232.161 801.057 232.401 801.301 232.573 801.585V800.642H233.506V806.124C233.506 806.551 233.434 806.922 233.292 807.237C233.15 807.559 232.955 807.825 232.708 808.034C232.461 808.244 232.165 808.401 231.82 808.506C231.483 808.611 231.109 808.663 230.697 808.663ZM230.686 805.551C230.955 805.551 231.206 805.506 231.438 805.417C231.678 805.319 231.884 805.184 232.056 805.012C232.229 804.832 232.363 804.615 232.461 804.36C232.558 804.098 232.607 803.802 232.607 803.473V803.394C232.607 802.735 232.438 802.226 232.101 801.866C231.772 801.499 231.318 801.316 230.742 801.316C230.45 801.316 230.188 801.368 229.955 801.473C229.723 801.578 229.528 801.724 229.371 801.911C229.214 802.091 229.09 802.312 229 802.574C228.918 802.829 228.877 803.11 228.877 803.417V803.507C228.877 803.829 228.925 804.117 229.023 804.372C229.12 804.619 229.248 804.832 229.405 805.012C229.57 805.184 229.761 805.319 229.978 805.417C230.202 805.506 230.438 805.551 230.686 805.551ZM235.524 800.642H236.457V801.574C236.592 801.297 236.816 801.057 237.131 800.855C237.453 800.645 237.857 800.541 238.344 800.541C238.644 800.541 238.921 800.586 239.176 800.675C239.43 800.758 239.647 800.896 239.827 801.091C240.014 801.278 240.157 801.522 240.254 801.821C240.359 802.121 240.411 802.484 240.411 802.911V806.518H239.479V802.844C239.479 802.327 239.367 801.949 239.142 801.709C238.917 801.469 238.569 801.349 238.097 801.349C237.88 801.349 237.67 801.383 237.468 801.451C237.273 801.518 237.101 801.619 236.951 801.754C236.801 801.889 236.681 802.057 236.592 802.26C236.502 802.462 236.457 802.694 236.457 802.956V806.518H235.524V800.642Z" fill="white"/>
<rect x="144.766" y="802.135" width="1.87249" height="1.87249" fill="white"/>
<path d="M67.6063 806.275C66.9247 806.275 66.3218 806.174 65.7975 805.972C65.2732 805.77 64.835 805.485 64.483 805.118C64.1235 804.759 63.8501 804.328 63.6629 803.826C63.4831 803.324 63.3932 802.774 63.3932 802.175V802.085C63.3932 801.471 63.4981 800.913 63.7078 800.411C63.925 799.909 64.2209 799.478 64.5954 799.119C64.9699 798.759 65.4118 798.482 65.9211 798.287C66.4379 798.085 66.9996 797.984 67.6063 797.984C68.0782 797.984 68.5313 798.04 68.9658 798.153C69.4002 798.265 69.7897 798.441 70.1342 798.681C70.4713 798.92 70.7484 799.227 70.9656 799.602C71.1828 799.969 71.3101 800.415 71.3476 800.939H69.0669C69.0145 800.557 68.8647 800.272 68.6175 800.085C68.3778 799.89 68.0445 799.793 67.6176 799.793C67.0483 799.793 66.6027 799.999 66.2806 800.411C65.9585 800.823 65.7975 801.392 65.7975 802.119V802.208C65.7975 802.538 65.8275 802.845 65.8874 803.13C65.9548 803.407 66.0634 803.646 66.2132 803.849C66.363 804.058 66.554 804.223 66.7862 804.343C67.0259 804.463 67.3217 804.523 67.6737 804.523C67.9509 804.523 68.1868 804.489 68.3816 804.422C68.5838 804.354 68.7486 804.264 68.8759 804.152C69.0032 804.04 69.0968 803.912 69.1568 803.77C69.2167 803.62 69.2541 803.467 69.2691 803.309H67.7636V801.703H71.5386V802.691C71.5386 803.201 71.4562 803.676 71.2914 804.118C71.1266 804.553 70.8795 804.931 70.5499 805.253C70.2203 805.575 69.8084 805.826 69.3141 806.006C68.8272 806.186 68.258 806.275 67.6063 806.275ZM75.4475 806.275C74.9831 806.275 74.5562 806.212 74.1667 806.084C73.7772 805.95 73.4439 805.755 73.1668 805.5C72.8821 805.246 72.6574 804.931 72.4927 804.556C72.3354 804.182 72.2567 803.755 72.2567 803.276V803.186C72.2567 802.714 72.3391 802.291 72.5039 801.916C72.6687 801.534 72.8934 801.208 73.178 800.939C73.4626 800.669 73.7997 800.463 74.1892 800.321C74.5786 800.179 74.9943 800.107 75.4362 800.107C75.8407 800.107 76.2227 800.167 76.5822 800.287C76.9417 800.407 77.26 800.591 77.5372 800.838C77.8068 801.085 78.0203 801.399 78.1776 801.781C78.3423 802.163 78.4247 802.617 78.4247 803.141V803.669H74.2903C74.3202 804.058 74.4401 804.362 74.6498 804.579C74.867 804.789 75.1554 804.894 75.5149 804.894C75.8519 804.894 76.0953 804.826 76.2451 804.691C76.4024 804.556 76.4998 804.392 76.5373 804.197H78.4247C78.3349 804.864 78.039 805.377 77.5372 805.736C77.0353 806.096 76.3388 806.275 75.4475 806.275ZM76.4698 802.534C76.4549 802.175 76.3612 801.901 76.189 801.714C76.0167 801.527 75.7658 801.433 75.4362 801.433C75.1291 801.433 74.8782 801.527 74.6835 801.714C74.4887 801.901 74.3652 802.175 74.3127 802.534H76.4698ZM79.3847 800.265H81.3958V801.208C81.5531 800.901 81.789 800.643 82.1036 800.433C82.4256 800.216 82.8338 800.107 83.3282 800.107C83.8974 800.107 84.3581 800.291 84.7101 800.658C85.0696 801.017 85.2494 801.572 85.2494 802.321V806.141H83.2383V802.725C83.2383 802.388 83.1709 802.141 83.0361 801.984C82.9013 801.819 82.6878 801.737 82.3957 801.737C82.0961 801.737 81.8527 801.826 81.6654 802.006C81.4856 802.186 81.3958 802.467 81.3958 802.849V806.141H79.3847V800.265ZM90.823 798.108H93.8003L96.3507 806.141H93.9127L93.4857 804.646H90.823L90.3961 806.141H88.2502L90.823 798.108ZM91.2724 803.062H93.0363L92.16 799.973L91.2724 803.062ZM97.4054 798.108H99.7311V806.141H97.4054V798.108ZM106.569 806.275C105.438 806.275 104.588 806.047 104.019 805.59C103.449 805.133 103.146 804.467 103.108 803.59H105.299C105.314 803.733 105.344 803.867 105.389 803.995C105.434 804.122 105.505 804.231 105.603 804.321C105.693 804.418 105.816 804.497 105.973 804.556C106.131 804.609 106.329 804.635 106.569 804.635C106.906 804.635 107.161 804.564 107.333 804.422C107.513 804.272 107.602 804.077 107.602 803.837C107.602 803.718 107.58 803.617 107.535 803.534C107.498 803.444 107.43 803.369 107.333 803.309C107.235 803.257 107.104 803.212 106.94 803.175C106.775 803.137 106.573 803.1 106.333 803.062C105.764 802.995 105.284 802.901 104.895 802.781C104.513 802.654 104.206 802.489 103.974 802.287C103.734 802.085 103.562 801.838 103.457 801.546C103.352 801.253 103.299 800.905 103.299 800.501C103.299 800.141 103.371 799.808 103.513 799.501C103.655 799.194 103.861 798.928 104.131 798.703C104.401 798.478 104.726 798.306 105.108 798.186C105.498 798.059 105.932 797.995 106.412 797.995C107.385 797.995 108.138 798.201 108.67 798.613C109.202 799.018 109.505 799.647 109.58 800.501H107.445C107.408 800.216 107.303 800.003 107.131 799.86C106.966 799.71 106.726 799.636 106.412 799.636C106.097 799.636 105.861 799.699 105.704 799.827C105.554 799.954 105.479 800.119 105.479 800.321C105.479 800.433 105.498 800.531 105.535 800.613C105.573 800.695 105.64 800.767 105.737 800.826C105.827 800.894 105.951 800.95 106.108 800.995C106.273 801.04 106.479 801.077 106.726 801.107C107.235 801.167 107.681 801.25 108.063 801.355C108.445 801.452 108.767 801.594 109.029 801.781C109.284 801.976 109.475 802.22 109.602 802.512C109.737 802.804 109.805 803.167 109.805 803.602C109.805 803.969 109.733 804.317 109.591 804.646C109.449 804.968 109.239 805.249 108.962 805.489C108.685 805.729 108.344 805.92 107.94 806.062C107.543 806.204 107.086 806.275 106.569 806.275ZM113.144 806.275C112.478 806.275 111.965 806.114 111.605 805.792C111.253 805.463 111.077 804.95 111.077 804.253V801.635H110.369V800.265H111.077V799.04H113.088V800.265H114.245V801.635H113.088V804.062C113.088 804.264 113.137 804.418 113.234 804.523C113.339 804.628 113.489 804.68 113.684 804.68C113.796 804.68 113.897 804.673 113.987 804.658C114.077 804.643 114.167 804.616 114.257 804.579V806.107C114.129 806.144 113.972 806.182 113.785 806.219C113.598 806.257 113.384 806.275 113.144 806.275ZM117.205 806.275C116.921 806.275 116.659 806.231 116.419 806.141C116.179 806.058 115.973 805.927 115.801 805.747C115.621 805.568 115.479 805.343 115.374 805.073C115.277 804.796 115.228 804.47 115.228 804.096V800.265H117.239V803.77C117.239 804.1 117.306 804.347 117.441 804.512C117.584 804.676 117.793 804.759 118.07 804.759C118.378 804.759 118.621 804.669 118.801 804.489C118.981 804.309 119.07 804.028 119.07 803.646V800.265H121.081V806.141H119.07V805.231C118.913 805.538 118.685 805.789 118.385 805.983C118.093 806.178 117.7 806.275 117.205 806.275ZM124.54 806.275C124.203 806.275 123.885 806.216 123.585 806.096C123.286 805.968 123.024 805.781 122.799 805.534C122.574 805.287 122.394 804.976 122.26 804.601C122.132 804.219 122.069 803.774 122.069 803.264V803.175C122.069 802.673 122.132 802.231 122.26 801.849C122.387 801.467 122.563 801.145 122.788 800.883C123.012 800.628 123.274 800.437 123.574 800.31C123.881 800.175 124.211 800.107 124.563 800.107C125.027 800.107 125.402 800.197 125.686 800.377C125.971 800.557 126.199 800.797 126.372 801.096V797.681H128.383V806.141H126.372V805.186C126.222 805.493 125.99 805.751 125.675 805.961C125.368 806.171 124.99 806.275 124.54 806.275ZM125.248 804.736C125.615 804.736 125.903 804.613 126.113 804.365C126.323 804.111 126.428 803.733 126.428 803.231V803.141C126.428 802.647 126.327 802.272 126.124 802.017C125.93 801.755 125.645 801.624 125.271 801.624C124.889 801.624 124.6 801.751 124.405 802.006C124.211 802.261 124.113 802.643 124.113 803.152V803.242C124.113 803.736 124.214 804.111 124.417 804.365C124.619 804.613 124.896 804.736 125.248 804.736ZM129.724 800.265H131.735V806.141H129.724V800.265ZM130.724 799.703C130.409 799.703 130.147 799.606 129.937 799.411C129.728 799.216 129.623 798.969 129.623 798.669C129.623 798.37 129.728 798.123 129.937 797.928C130.147 797.726 130.409 797.625 130.724 797.625C131.038 797.625 131.301 797.726 131.51 797.928C131.728 798.123 131.836 798.37 131.836 798.669C131.836 798.969 131.728 799.216 131.51 799.411C131.301 799.606 131.038 799.703 130.724 799.703ZM135.979 804.781C136.361 804.781 136.649 804.65 136.844 804.388C137.039 804.118 137.136 803.736 137.136 803.242V803.152C137.136 802.658 137.039 802.28 136.844 802.017C136.649 801.748 136.361 801.613 135.979 801.613C135.597 801.613 135.305 801.744 135.103 802.006C134.908 802.261 134.81 802.635 134.81 803.13V803.22C134.81 803.729 134.908 804.118 135.103 804.388C135.297 804.65 135.589 804.781 135.979 804.781ZM135.968 806.275C135.518 806.275 135.095 806.208 134.698 806.073C134.309 805.938 133.972 805.744 133.687 805.489C133.395 805.234 133.166 804.92 133.002 804.545C132.837 804.171 132.754 803.748 132.754 803.276V803.186C132.754 802.714 132.837 802.291 133.002 801.916C133.166 801.534 133.395 801.208 133.687 800.939C133.972 800.669 134.309 800.463 134.698 800.321C135.095 800.179 135.522 800.107 135.979 800.107C136.428 800.107 136.848 800.179 137.237 800.321C137.634 800.456 137.975 800.654 138.26 800.916C138.544 801.179 138.769 801.497 138.934 801.871C139.098 802.246 139.181 802.665 139.181 803.13V803.22C139.181 803.699 139.098 804.13 138.934 804.512C138.769 804.886 138.544 805.204 138.26 805.467C137.967 805.729 137.623 805.931 137.226 806.073C136.836 806.208 136.417 806.275 135.968 806.275Z" fill="white"/>
<path d="M1182.74 806.861C1182.16 806.861 1181.64 806.767 1181.17 806.58C1180.71 806.385 1180.32 806.112 1179.99 805.76C1179.67 805.4 1179.42 804.973 1179.25 804.479C1179.08 803.977 1178.99 803.415 1178.99 802.794V802.704C1178.99 802.112 1179.08 801.565 1179.27 801.064C1179.46 800.562 1179.72 800.127 1180.06 799.76C1180.4 799.393 1180.79 799.109 1181.25 798.907C1181.71 798.704 1182.22 798.603 1182.77 798.603C1183.19 798.603 1183.58 798.659 1183.96 798.772C1184.33 798.884 1184.66 799.049 1184.96 799.266C1185.25 799.483 1185.49 799.757 1185.68 800.086C1185.86 800.416 1185.98 800.798 1186.02 801.232H1185.06C1184.95 800.618 1184.72 800.157 1184.35 799.85C1183.99 799.536 1183.47 799.378 1182.78 799.378C1182.36 799.378 1181.98 799.457 1181.63 799.614C1181.29 799.772 1181.01 799.993 1180.77 800.277C1180.53 800.562 1180.34 800.91 1180.2 801.322C1180.07 801.734 1180 802.191 1180 802.693V802.783C1180 803.292 1180.07 803.753 1180.19 804.164C1180.32 804.569 1180.5 804.913 1180.73 805.198C1180.97 805.475 1181.26 805.689 1181.6 805.838C1181.94 805.988 1182.33 806.063 1182.77 806.063C1183.43 806.063 1183.97 805.902 1184.4 805.58C1184.82 805.251 1185.09 804.756 1185.19 804.097H1186.1C1185.96 805.026 1185.59 805.719 1184.99 806.176C1184.39 806.632 1183.64 806.861 1182.74 806.861ZM1190.1 806.086C1190.4 806.086 1190.66 806.033 1190.9 805.928C1191.14 805.824 1191.34 805.674 1191.51 805.479C1191.67 805.284 1191.8 805.052 1191.89 804.782C1191.98 804.505 1192.03 804.202 1192.03 803.872V803.794C1192.03 803.457 1191.98 803.15 1191.89 802.872C1191.8 802.595 1191.67 802.359 1191.5 802.165C1191.33 801.97 1191.13 801.82 1190.89 801.715C1190.66 801.61 1190.4 801.558 1190.1 801.558C1189.81 801.558 1189.55 801.61 1189.31 801.715C1189.07 801.82 1188.87 801.97 1188.7 802.165C1188.54 802.359 1188.41 802.595 1188.32 802.872C1188.23 803.142 1188.18 803.445 1188.18 803.782V803.872C1188.18 804.546 1188.35 805.086 1188.69 805.49C1189.03 805.887 1189.51 806.086 1190.1 806.086ZM1190.09 806.861C1189.67 806.861 1189.29 806.786 1188.94 806.636C1188.58 806.486 1188.28 806.28 1188.03 806.018C1187.77 805.749 1187.57 805.43 1187.43 805.063C1187.29 804.696 1187.22 804.299 1187.22 803.872V803.782C1187.22 803.341 1187.29 802.936 1187.43 802.569C1187.58 802.202 1187.78 801.888 1188.04 801.625C1188.29 801.356 1188.6 801.15 1188.95 801.007C1189.3 800.858 1189.69 800.783 1190.1 800.783C1190.52 800.783 1190.9 800.858 1191.25 801.007C1191.61 801.15 1191.92 801.352 1192.17 801.614C1192.43 801.876 1192.63 802.191 1192.77 802.558C1192.92 802.925 1192.99 803.329 1192.99 803.771V803.861C1192.99 804.303 1192.92 804.711 1192.77 805.086C1192.63 805.453 1192.42 805.767 1192.16 806.029C1191.91 806.292 1191.6 806.498 1191.25 806.647C1190.9 806.79 1190.51 806.861 1190.09 806.861ZM1194.58 800.884H1195.51V801.873C1195.59 801.73 1195.7 801.595 1195.84 801.468C1195.98 801.333 1196.14 801.217 1196.31 801.12C1196.48 801.015 1196.67 800.933 1196.87 800.873C1197.07 800.813 1197.28 800.783 1197.5 800.783C1197.88 800.783 1198.24 800.85 1198.57 800.985C1198.9 801.12 1199.18 801.315 1199.41 801.569C1199.65 801.824 1199.84 802.135 1199.97 802.502C1200.11 802.869 1200.17 803.281 1200.17 803.738V803.827C1200.17 804.277 1200.11 804.689 1199.98 805.063C1199.86 805.43 1199.68 805.749 1199.44 806.018C1199.21 806.288 1198.93 806.498 1198.6 806.647C1198.27 806.79 1197.9 806.861 1197.5 806.861C1197.01 806.861 1196.6 806.756 1196.26 806.546C1195.93 806.337 1195.68 806.086 1195.51 805.794V808.805H1194.58V800.884ZM1197.41 806.086C1197.99 806.086 1198.44 805.898 1198.75 805.524C1199.05 805.142 1199.21 804.591 1199.21 803.872V803.782C1199.21 803.415 1199.16 803.093 1199.06 802.816C1198.96 802.532 1198.83 802.299 1198.67 802.12C1198.51 801.932 1198.32 801.794 1198.1 801.704C1197.88 801.607 1197.65 801.558 1197.4 801.558C1197.13 801.558 1196.87 801.603 1196.63 801.693C1196.4 801.783 1196.2 801.921 1196.03 802.108C1195.86 802.288 1195.72 802.52 1195.62 802.805C1195.53 803.082 1195.48 803.408 1195.48 803.782V803.872C1195.48 804.247 1195.52 804.573 1195.61 804.85C1195.71 805.127 1195.84 805.359 1196.01 805.546C1196.18 805.726 1196.38 805.861 1196.62 805.951C1196.86 806.041 1197.13 806.086 1197.41 806.086ZM1203.28 806.153L1200.98 800.884H1201.98L1203.78 805.097L1205.41 800.884H1206.36L1203.12 808.805H1202.17L1203.28 806.153ZM1207.72 800.884H1208.66V801.94C1208.74 801.775 1208.85 801.625 1208.96 801.491C1209.08 801.348 1209.21 801.228 1209.36 801.131C1209.51 801.026 1209.69 800.944 1209.89 800.884C1210.09 800.824 1210.33 800.79 1210.59 800.783V801.659C1210.3 801.674 1210.03 801.712 1209.79 801.771C1209.55 801.831 1209.34 801.932 1209.17 802.075C1209.01 802.217 1208.88 802.408 1208.79 802.648C1208.7 802.88 1208.66 803.176 1208.66 803.535V806.76H1207.72V800.884ZM1212.1 800.884H1213.03V806.76H1212.1V800.884ZM1212.55 799.659C1212.38 799.659 1212.23 799.599 1212.11 799.48C1211.99 799.36 1211.93 799.214 1211.93 799.041C1211.93 798.869 1211.99 798.723 1212.11 798.603C1212.23 798.483 1212.38 798.423 1212.55 798.423C1212.72 798.423 1212.87 798.483 1212.99 798.603C1213.11 798.723 1213.17 798.869 1213.17 799.041C1213.17 799.214 1213.11 799.36 1212.99 799.48C1212.87 799.599 1212.72 799.659 1212.55 799.659ZM1217.42 808.906C1216.99 808.906 1216.61 808.857 1216.29 808.76C1215.97 808.662 1215.71 808.531 1215.49 808.366C1215.28 808.209 1215.11 808.018 1214.99 807.793C1214.88 807.576 1214.8 807.344 1214.76 807.097H1215.71C1215.85 807.778 1216.41 808.119 1217.41 808.119C1217.99 808.119 1218.44 807.973 1218.78 807.681C1219.13 807.396 1219.3 806.94 1219.3 806.31V805.457C1219.22 805.599 1219.1 805.737 1218.96 805.872C1218.83 806.007 1218.67 806.127 1218.49 806.232C1218.32 806.329 1218.13 806.411 1217.93 806.479C1217.73 806.539 1217.52 806.569 1217.31 806.569C1216.93 806.569 1216.57 806.501 1216.24 806.367C1215.91 806.224 1215.63 806.029 1215.39 805.782C1215.16 805.535 1214.97 805.243 1214.84 804.906C1214.7 804.561 1214.64 804.187 1214.64 803.782V803.704C1214.64 803.307 1214.7 802.932 1214.84 802.58C1214.97 802.221 1215.16 801.91 1215.4 801.648C1215.64 801.378 1215.93 801.168 1216.26 801.019C1216.6 800.861 1216.97 800.783 1217.38 800.783C1217.87 800.783 1218.27 800.888 1218.58 801.097C1218.89 801.3 1219.13 801.543 1219.3 801.828V800.884H1220.23V806.367C1220.23 806.793 1220.16 807.164 1220.02 807.479C1219.87 807.801 1219.68 808.067 1219.43 808.276C1219.19 808.486 1218.89 808.643 1218.55 808.748C1218.21 808.853 1217.83 808.906 1217.42 808.906ZM1217.41 805.794C1217.68 805.794 1217.93 805.749 1218.16 805.659C1218.4 805.561 1218.61 805.427 1218.78 805.254C1218.95 805.075 1219.09 804.857 1219.19 804.603C1219.28 804.341 1219.33 804.045 1219.33 803.715V803.636C1219.33 802.977 1219.16 802.468 1218.83 802.108C1218.5 801.741 1218.04 801.558 1217.47 801.558C1217.17 801.558 1216.91 801.61 1216.68 801.715C1216.45 801.82 1216.25 801.966 1216.1 802.153C1215.94 802.333 1215.82 802.554 1215.73 802.816C1215.64 803.071 1215.6 803.352 1215.6 803.659V803.749C1215.6 804.071 1215.65 804.359 1215.75 804.614C1215.85 804.861 1215.97 805.075 1216.13 805.254C1216.29 805.427 1216.49 805.561 1216.7 805.659C1216.93 805.749 1217.16 805.794 1217.41 805.794ZM1222.25 798.075H1223.18V801.816C1223.32 801.539 1223.54 801.3 1223.86 801.097C1224.18 800.888 1224.58 800.783 1225.07 800.783C1225.37 800.783 1225.65 800.828 1225.9 800.918C1226.16 801 1226.37 801.139 1226.55 801.333C1226.74 801.521 1226.88 801.764 1226.98 802.064C1227.08 802.363 1227.14 802.726 1227.14 803.153V806.76H1226.2V803.086C1226.2 802.569 1226.09 802.191 1225.87 801.951C1225.64 801.712 1225.29 801.592 1224.82 801.592C1224.6 801.592 1224.39 801.625 1224.19 801.693C1224 801.76 1223.83 801.861 1223.68 801.996C1223.53 802.131 1223.41 802.299 1223.32 802.502C1223.23 802.704 1223.18 802.936 1223.18 803.198V806.76H1222.25V798.075ZM1230.89 806.838C1230.35 806.838 1229.95 806.696 1229.69 806.411C1229.44 806.127 1229.31 805.752 1229.31 805.288V801.67H1228.47V800.884H1229.31V799.547H1230.24V800.884H1231.61V801.67H1230.24V805.198C1230.24 805.767 1230.48 806.052 1230.97 806.052C1231.12 806.052 1231.25 806.041 1231.36 806.018C1231.48 805.996 1231.59 805.966 1231.69 805.928V806.715C1231.59 806.752 1231.48 806.782 1231.36 806.805C1231.24 806.827 1231.09 806.838 1230.89 806.838ZM1240.01 805.018C1239.33 805.018 1238.8 804.82 1238.42 804.423C1238.04 804.018 1237.86 803.475 1237.86 802.794V802.704C1237.86 802.367 1237.91 802.064 1238.01 801.794C1238.13 801.517 1238.28 801.281 1238.46 801.086C1238.66 800.891 1238.89 800.742 1239.15 800.637C1239.41 800.524 1239.7 800.468 1240.01 800.468C1240.27 800.468 1240.5 800.502 1240.72 800.569C1240.95 800.629 1241.14 800.723 1241.31 800.85C1241.48 800.978 1241.62 801.139 1241.72 801.333C1241.83 801.528 1241.89 801.756 1241.91 802.019H1241.06C1240.97 801.434 1240.62 801.142 1240.01 801.142C1239.62 801.142 1239.31 801.281 1239.08 801.558C1238.86 801.828 1238.74 802.21 1238.74 802.704V802.783C1238.74 803.277 1238.85 803.659 1239.07 803.929C1239.29 804.198 1239.61 804.333 1240.01 804.333C1240.32 804.333 1240.58 804.258 1240.78 804.108C1240.98 803.951 1241.1 803.715 1241.15 803.401H1241.96C1241.9 803.94 1241.69 804.344 1241.34 804.614C1240.99 804.884 1240.55 805.018 1240.01 805.018ZM1239.99 806.389C1240.47 806.389 1240.93 806.299 1241.36 806.119C1241.8 805.94 1242.18 805.689 1242.51 805.367C1242.84 805.045 1243.1 804.659 1243.29 804.209C1243.49 803.76 1243.59 803.266 1243.59 802.726C1243.59 802.195 1243.49 801.708 1243.29 801.266C1243.11 800.816 1242.85 800.434 1242.52 800.12C1242.2 799.798 1241.82 799.547 1241.38 799.367C1240.96 799.187 1240.5 799.098 1240.01 799.098C1239.52 799.098 1239.05 799.187 1238.62 799.367C1238.19 799.547 1237.8 799.798 1237.47 800.12C1237.15 800.442 1236.89 800.828 1236.7 801.277C1236.51 801.719 1236.42 802.21 1236.42 802.749C1236.42 803.288 1236.52 803.782 1236.71 804.232C1236.91 804.681 1237.17 805.067 1237.5 805.389C1237.83 805.704 1238.2 805.951 1238.63 806.131C1239.07 806.303 1239.52 806.389 1239.99 806.389ZM1239.99 806.861C1239.42 806.861 1238.89 806.756 1238.38 806.546C1237.88 806.337 1237.44 806.048 1237.07 805.681C1236.7 805.307 1236.41 804.872 1236.19 804.378C1235.98 803.876 1235.88 803.333 1235.88 802.749C1235.88 802.18 1235.98 801.644 1236.19 801.142C1236.41 800.64 1236.7 800.202 1237.07 799.828C1237.44 799.453 1237.88 799.161 1238.38 798.951C1238.89 798.734 1239.44 798.626 1240.01 798.626C1240.6 798.626 1241.14 798.734 1241.64 798.951C1242.14 799.161 1242.58 799.453 1242.95 799.828C1243.31 800.195 1243.6 800.629 1243.81 801.131C1244.02 801.625 1244.13 802.157 1244.13 802.726C1244.13 803.311 1244.02 803.857 1243.8 804.367C1243.59 804.869 1243.3 805.307 1242.92 805.681C1242.56 806.048 1242.12 806.337 1241.61 806.546C1241.11 806.756 1240.57 806.861 1239.99 806.861ZM1248.07 806.535L1251.26 803.176C1251.63 802.786 1251.91 802.404 1252.11 802.03C1252.32 801.655 1252.42 801.262 1252.42 800.85C1252.42 800.401 1252.29 800.049 1252.04 799.794C1251.79 799.539 1251.44 799.412 1250.98 799.412C1250.51 799.412 1250.13 799.551 1249.83 799.828C1249.55 800.105 1249.37 800.562 1249.28 801.198H1248.37C1248.4 800.809 1248.48 800.457 1248.61 800.142C1248.74 799.82 1248.92 799.547 1249.15 799.322C1249.37 799.098 1249.64 798.925 1249.95 798.805C1250.25 798.686 1250.6 798.626 1250.98 798.626C1251.35 798.626 1251.68 798.678 1251.98 798.783C1252.28 798.888 1252.53 799.041 1252.74 799.244C1252.96 799.438 1253.13 799.674 1253.24 799.951C1253.35 800.229 1253.41 800.539 1253.41 800.884C1253.41 801.378 1253.26 801.869 1252.97 802.356C1252.68 802.835 1252.28 803.318 1251.79 803.805L1249.58 805.962H1253.45V806.76H1248.07V806.535ZM1258.03 806.052C1258.73 806.052 1259.26 805.79 1259.61 805.266C1259.97 804.741 1260.15 803.966 1260.15 802.94V802.49C1260.15 802.026 1260.1 801.607 1260.01 801.232C1259.91 800.85 1259.77 800.524 1259.58 800.255C1259.4 799.985 1259.18 799.779 1258.91 799.637C1258.64 799.487 1258.34 799.412 1258.01 799.412C1257.33 799.412 1256.79 799.682 1256.41 800.221C1256.03 800.753 1255.84 801.517 1255.84 802.513V802.962C1255.84 803.981 1256.04 804.752 1256.43 805.277C1256.83 805.794 1257.36 806.052 1258.03 806.052ZM1258.03 806.861C1257.55 806.861 1257.11 806.767 1256.72 806.58C1256.33 806.393 1255.99 806.131 1255.72 805.794C1255.44 805.457 1255.22 805.048 1255.06 804.569C1254.91 804.09 1254.84 803.558 1254.84 802.974V802.524C1254.84 801.932 1254.91 801.397 1255.05 800.918C1255.2 800.438 1255.41 800.03 1255.68 799.693C1255.96 799.348 1256.29 799.086 1256.68 798.907C1257.07 798.719 1257.51 798.626 1258.01 798.626C1258.5 798.626 1258.94 798.719 1259.33 798.907C1259.72 799.094 1260.05 799.36 1260.31 799.704C1260.58 800.049 1260.79 800.461 1260.93 800.94C1261.07 801.412 1261.14 801.932 1261.14 802.502V802.951C1261.14 803.535 1261.07 804.067 1260.93 804.546C1260.79 805.026 1260.59 805.438 1260.32 805.782C1260.06 806.127 1259.73 806.393 1259.34 806.58C1258.96 806.767 1258.52 806.861 1258.03 806.861ZM1262.17 806.535L1265.36 803.176C1265.73 802.786 1266.01 802.404 1266.21 802.03C1266.42 801.655 1266.52 801.262 1266.52 800.85C1266.52 800.401 1266.39 800.049 1266.13 799.794C1265.89 799.539 1265.54 799.412 1265.08 799.412C1264.61 799.412 1264.22 799.551 1263.93 799.828C1263.65 800.105 1263.46 800.562 1263.38 801.198H1262.47C1262.5 800.809 1262.58 800.457 1262.71 800.142C1262.84 799.82 1263.02 799.547 1263.25 799.322C1263.47 799.098 1263.74 798.925 1264.04 798.805C1264.35 798.686 1264.7 798.626 1265.08 798.626C1265.45 798.626 1265.78 798.678 1266.08 798.783C1266.38 798.888 1266.63 799.041 1266.84 799.244C1267.06 799.438 1267.22 799.674 1267.34 799.951C1267.45 800.229 1267.51 800.539 1267.51 800.884C1267.51 801.378 1267.36 801.869 1267.07 802.356C1266.78 802.835 1266.38 803.318 1265.89 803.805L1263.67 805.962H1267.55V806.76H1262.17V806.535ZM1271.48 806.861C1271.04 806.861 1270.66 806.805 1270.34 806.692C1270.02 806.58 1269.75 806.423 1269.53 806.22C1269.31 806.018 1269.15 805.779 1269.03 805.501C1268.91 805.224 1268.83 804.921 1268.8 804.591H1269.73C1269.77 804.809 1269.82 805.011 1269.89 805.198C1269.97 805.378 1270.07 805.535 1270.2 805.67C1270.33 805.797 1270.5 805.898 1270.7 805.973C1270.9 806.041 1271.16 806.074 1271.46 806.074C1272.01 806.074 1272.44 805.902 1272.76 805.558C1273.07 805.213 1273.23 804.737 1273.23 804.131C1273.23 803.562 1273.07 803.108 1272.77 802.771C1272.47 802.427 1272.06 802.255 1271.54 802.255C1271.07 802.255 1270.69 802.326 1270.4 802.468C1270.11 802.603 1269.86 802.79 1269.64 803.03H1269.29V798.727H1273.8V799.569H1270.09V802.019C1270.26 801.869 1270.48 801.741 1270.75 801.637C1271.02 801.524 1271.35 801.468 1271.73 801.468C1272.09 801.468 1272.42 801.532 1272.72 801.659C1273.03 801.779 1273.3 801.955 1273.52 802.187C1273.75 802.419 1273.92 802.7 1274.04 803.03C1274.16 803.352 1274.23 803.719 1274.23 804.131C1274.23 804.558 1274.16 804.94 1274.01 805.277C1273.87 805.614 1273.67 805.902 1273.42 806.142C1273.17 806.374 1272.88 806.554 1272.54 806.681C1272.21 806.801 1271.86 806.861 1271.48 806.861ZM1281.19 798.727H1282.47L1285.19 806.76H1284.22L1283.43 804.445H1280.12L1279.34 806.76H1278.42L1281.19 798.727ZM1280.39 803.67H1283.17L1281.78 799.536L1280.39 803.67ZM1288.94 806.861C1288.53 806.861 1288.14 806.793 1287.79 806.659C1287.45 806.516 1287.14 806.318 1286.88 806.063C1286.63 805.801 1286.42 805.486 1286.27 805.119C1286.13 804.752 1286.06 804.341 1286.06 803.884V803.794C1286.06 803.344 1286.14 802.936 1286.29 802.569C1286.44 802.195 1286.64 801.876 1286.89 801.614C1287.15 801.352 1287.46 801.15 1287.8 801.007C1288.15 800.858 1288.52 800.783 1288.91 800.783C1289.22 800.783 1289.52 800.82 1289.8 800.895C1290.09 800.97 1290.35 801.09 1290.58 801.255C1290.81 801.412 1291 801.622 1291.16 801.884C1291.32 802.146 1291.42 802.464 1291.46 802.839H1290.54C1290.47 802.374 1290.28 802.045 1289.97 801.85C1289.67 801.655 1289.32 801.558 1288.91 801.558C1288.64 801.558 1288.39 801.61 1288.16 801.715C1287.94 801.82 1287.74 801.97 1287.57 802.165C1287.4 802.352 1287.27 802.584 1287.17 802.861C1287.08 803.138 1287.03 803.449 1287.03 803.794V803.884C1287.03 804.61 1287.2 805.161 1287.56 805.535C1287.91 805.902 1288.38 806.086 1288.95 806.086C1289.16 806.086 1289.36 806.056 1289.54 805.996C1289.74 805.936 1289.91 805.846 1290.06 805.726C1290.22 805.606 1290.35 805.457 1290.44 805.277C1290.55 805.097 1290.61 804.887 1290.63 804.648H1291.5C1291.47 804.962 1291.38 805.258 1291.24 805.535C1291.11 805.805 1290.93 806.037 1290.7 806.232C1290.48 806.426 1290.21 806.58 1289.91 806.692C1289.61 806.805 1289.29 806.861 1288.94 806.861ZM1295.48 806.861C1295.06 806.861 1294.68 806.793 1294.33 806.659C1293.99 806.516 1293.68 806.318 1293.42 806.063C1293.17 805.801 1292.96 805.486 1292.81 805.119C1292.67 804.752 1292.6 804.341 1292.6 803.884V803.794C1292.6 803.344 1292.67 802.936 1292.82 802.569C1292.97 802.195 1293.18 801.876 1293.43 801.614C1293.69 801.352 1294 801.15 1294.34 801.007C1294.69 800.858 1295.06 800.783 1295.45 800.783C1295.76 800.783 1296.06 800.82 1296.34 800.895C1296.63 800.97 1296.89 801.09 1297.12 801.255C1297.35 801.412 1297.54 801.622 1297.7 801.884C1297.86 802.146 1297.96 802.464 1298 802.839H1297.08C1297.01 802.374 1296.82 802.045 1296.51 801.85C1296.21 801.655 1295.86 801.558 1295.45 801.558C1295.18 801.558 1294.93 801.61 1294.7 801.715C1294.48 801.82 1294.28 801.97 1294.11 802.165C1293.94 802.352 1293.81 802.584 1293.71 802.861C1293.61 803.138 1293.57 803.449 1293.57 803.794V803.884C1293.57 804.61 1293.74 805.161 1294.09 805.535C1294.45 805.902 1294.92 806.086 1295.49 806.086C1295.7 806.086 1295.9 806.056 1296.08 805.996C1296.28 805.936 1296.45 805.846 1296.6 805.726C1296.76 805.606 1296.88 805.457 1296.98 805.277C1297.09 805.097 1297.15 804.887 1297.17 804.648H1298.04C1298.01 804.962 1297.92 805.258 1297.78 805.535C1297.64 805.805 1297.46 806.037 1297.24 806.232C1297.02 806.426 1296.75 806.58 1296.45 806.692C1296.15 806.805 1295.83 806.861 1295.48 806.861ZM1301.98 806.861C1301.56 806.861 1301.18 806.79 1300.84 806.647C1300.49 806.505 1300.19 806.307 1299.94 806.052C1299.68 805.79 1299.48 805.475 1299.34 805.108C1299.21 804.741 1299.14 804.333 1299.14 803.884V803.794C1299.14 803.352 1299.21 802.947 1299.34 802.58C1299.48 802.206 1299.66 801.888 1299.9 801.625C1300.15 801.356 1300.44 801.15 1300.78 801.007C1301.12 800.858 1301.49 800.783 1301.89 800.783C1302.23 800.783 1302.55 800.839 1302.87 800.951C1303.19 801.056 1303.48 801.225 1303.72 801.457C1303.97 801.689 1304.16 801.992 1304.31 802.367C1304.46 802.734 1304.53 803.18 1304.53 803.704V804.007H1300.11C1300.13 804.681 1300.3 805.198 1300.61 805.558C1300.93 805.91 1301.39 806.086 1301.99 806.086C1302.91 806.086 1303.43 805.745 1303.55 805.063H1304.49C1304.38 805.655 1304.1 806.104 1303.66 806.411C1303.21 806.711 1302.65 806.861 1301.98 806.861ZM1303.58 803.254C1303.53 802.648 1303.36 802.213 1303.06 801.951C1302.77 801.689 1302.38 801.558 1301.89 801.558C1301.41 801.558 1301.02 801.712 1300.71 802.019C1300.41 802.318 1300.22 802.73 1300.14 803.254H1303.58ZM1306.09 800.884H1307.03V801.816C1307.16 801.539 1307.39 801.3 1307.7 801.097C1308.02 800.888 1308.43 800.783 1308.91 800.783C1309.21 800.783 1309.49 800.828 1309.75 800.918C1310 801 1310.22 801.139 1310.4 801.333C1310.58 801.521 1310.73 801.764 1310.82 802.064C1310.93 802.363 1310.98 802.726 1310.98 803.153V806.76H1310.05V803.086C1310.05 802.569 1309.94 802.191 1309.71 801.951C1309.49 801.712 1309.14 801.592 1308.67 801.592C1308.45 801.592 1308.24 801.625 1308.04 801.693C1307.84 801.76 1307.67 801.861 1307.52 801.996C1307.37 802.131 1307.25 802.299 1307.16 802.502C1307.07 802.704 1307.03 802.936 1307.03 803.198V806.76H1306.09V800.884ZM1314.74 806.838C1314.2 806.838 1313.8 806.696 1313.54 806.411C1313.28 806.127 1313.15 805.752 1313.15 805.288V801.67H1312.31V800.884H1313.15V799.547H1314.09V800.884H1315.46V801.67H1314.09V805.198C1314.09 805.767 1314.33 806.052 1314.82 806.052C1314.97 806.052 1315.1 806.041 1315.21 806.018C1315.32 805.996 1315.43 805.966 1315.54 805.928V806.715C1315.44 806.752 1315.33 806.782 1315.21 806.805C1315.09 806.827 1314.93 806.838 1314.74 806.838ZM1319.07 806.861C1318.77 806.861 1318.5 806.82 1318.25 806.737C1318 806.655 1317.78 806.524 1317.61 806.344C1317.43 806.157 1317.28 805.921 1317.18 805.636C1317.07 805.352 1317.02 805.007 1317.02 804.603V800.884H1317.95V804.558C1317.95 805.075 1318.06 805.453 1318.28 805.692C1318.5 805.932 1318.85 806.052 1319.31 806.052C1319.52 806.052 1319.72 806.018 1319.92 805.951C1320.11 805.883 1320.29 805.782 1320.44 805.648C1320.59 805.513 1320.71 805.344 1320.8 805.142C1320.89 804.94 1320.93 804.708 1320.93 804.445V800.884H1321.86V806.76H1320.93V805.827C1320.8 806.104 1320.57 806.348 1320.25 806.558C1319.93 806.76 1319.54 806.861 1319.07 806.861ZM1323.89 800.884H1324.82V801.94C1324.91 801.775 1325.01 801.625 1325.13 801.491C1325.25 801.348 1325.38 801.228 1325.53 801.131C1325.68 801.026 1325.86 800.944 1326.06 800.884C1326.26 800.824 1326.49 800.79 1326.76 800.783V801.659C1326.46 801.674 1326.2 801.712 1325.96 801.771C1325.72 801.831 1325.51 801.932 1325.34 802.075C1325.17 802.217 1325.05 802.408 1324.96 802.648C1324.87 802.88 1324.82 803.176 1324.82 803.535V806.76H1323.89V800.884ZM1330.49 806.861C1330.07 806.861 1329.68 806.79 1329.34 806.647C1329 806.505 1328.7 806.307 1328.44 806.052C1328.19 805.79 1327.99 805.475 1327.85 805.108C1327.71 804.741 1327.64 804.333 1327.64 803.884V803.794C1327.64 803.352 1327.71 802.947 1327.85 802.58C1327.98 802.206 1328.17 801.888 1328.41 801.625C1328.65 801.356 1328.95 801.15 1329.28 801.007C1329.62 800.858 1329.99 800.783 1330.4 800.783C1330.73 800.783 1331.06 800.839 1331.37 800.951C1331.7 801.056 1331.98 801.225 1332.23 801.457C1332.47 801.689 1332.67 801.992 1332.81 802.367C1332.96 802.734 1333.04 803.18 1333.04 803.704V804.007H1328.61C1328.63 804.681 1328.8 805.198 1329.12 805.558C1329.43 805.91 1329.89 806.086 1330.5 806.086C1331.42 806.086 1331.94 805.745 1332.06 805.063H1332.99C1332.89 805.655 1332.61 806.104 1332.16 806.411C1331.71 806.711 1331.15 806.861 1330.49 806.861ZM1332.08 803.254C1332.04 802.648 1331.86 802.213 1331.56 801.951C1331.27 801.689 1330.88 801.558 1330.4 801.558C1329.92 801.558 1329.52 801.712 1329.22 802.019C1328.92 802.318 1328.73 802.73 1328.64 803.254H1332.08ZM1337.3 803.232H1339.71V804.108H1337.3V803.232ZM1346.65 798.727H1347.93L1350.65 806.76H1349.69L1348.9 804.445H1345.59L1344.81 806.76H1343.89L1346.65 798.727ZM1345.86 803.67H1348.64L1347.25 799.536L1345.86 803.67ZM1352.15 798.075H1353.1V806.76H1352.15V798.075ZM1355.16 798.075H1356.1V806.76H1355.16V798.075ZM1361.12 800.884H1362.05V801.94C1362.14 801.775 1362.24 801.625 1362.35 801.491C1362.47 801.348 1362.61 801.228 1362.76 801.131C1362.91 801.026 1363.08 800.944 1363.29 800.884C1363.49 800.824 1363.72 800.79 1363.98 800.783V801.659C1363.69 801.674 1363.42 801.712 1363.18 801.771C1362.94 801.831 1362.74 801.932 1362.57 802.075C1362.4 802.217 1362.27 802.408 1362.18 802.648C1362.09 802.88 1362.05 803.176 1362.05 803.535V806.76H1361.12V800.884ZM1365.5 800.884H1366.43V806.76H1365.5V800.884ZM1365.94 799.659C1365.77 799.659 1365.63 799.599 1365.51 799.48C1365.39 799.36 1365.33 799.214 1365.33 799.041C1365.33 798.869 1365.39 798.723 1365.51 798.603C1365.63 798.483 1365.77 798.423 1365.94 798.423C1366.12 798.423 1366.26 798.483 1366.38 798.603C1366.5 798.723 1366.56 798.869 1366.56 799.041C1366.56 799.214 1366.5 799.36 1366.38 799.48C1366.26 799.599 1366.12 799.659 1365.94 799.659ZM1370.82 808.906C1370.38 808.906 1370 808.857 1369.68 808.76C1369.37 808.662 1369.1 808.531 1368.88 808.366C1368.67 808.209 1368.51 808.018 1368.39 807.793C1368.27 807.576 1368.19 807.344 1368.15 807.097H1369.11C1369.24 807.778 1369.81 808.119 1370.81 808.119C1371.38 808.119 1371.84 807.973 1372.18 807.681C1372.52 807.396 1372.69 806.94 1372.69 806.31V805.457C1372.61 805.599 1372.5 805.737 1372.36 805.872C1372.22 806.007 1372.06 806.127 1371.88 806.232C1371.71 806.329 1371.52 806.411 1371.32 806.479C1371.12 806.539 1370.91 806.569 1370.7 806.569C1370.32 806.569 1369.97 806.501 1369.64 806.367C1369.31 806.224 1369.02 806.029 1368.78 805.782C1368.55 805.535 1368.37 805.243 1368.23 804.906C1368.1 804.561 1368.03 804.187 1368.03 803.782V803.704C1368.03 803.307 1368.1 802.932 1368.23 802.58C1368.37 802.221 1368.55 801.91 1368.79 801.648C1369.03 801.378 1369.32 801.168 1369.66 801.019C1370 800.861 1370.37 800.783 1370.77 800.783C1371.27 800.783 1371.67 800.888 1371.97 801.097C1372.28 801.3 1372.52 801.543 1372.69 801.828V800.884H1373.63V806.367C1373.63 806.793 1373.55 807.164 1373.41 807.479C1373.27 807.801 1373.07 808.067 1372.83 808.276C1372.58 808.486 1372.28 808.643 1371.94 808.748C1371.6 808.853 1371.23 808.906 1370.82 808.906ZM1370.81 805.794C1371.07 805.794 1371.33 805.749 1371.56 805.659C1371.8 805.561 1372 805.427 1372.18 805.254C1372.35 805.075 1372.48 804.857 1372.58 804.603C1372.68 804.341 1372.73 804.045 1372.73 803.715V803.636C1372.73 802.977 1372.56 802.468 1372.22 802.108C1371.89 801.741 1371.44 801.558 1370.86 801.558C1370.57 801.558 1370.31 801.61 1370.07 801.715C1369.84 801.82 1369.65 801.966 1369.49 802.153C1369.33 802.333 1369.21 802.554 1369.12 802.816C1369.04 803.071 1369 803.352 1369 803.659V803.749C1369 804.071 1369.04 804.359 1369.14 804.614C1369.24 804.861 1369.37 805.075 1369.52 805.254C1369.69 805.427 1369.88 805.561 1370.1 805.659C1370.32 805.749 1370.56 805.794 1370.81 805.794ZM1375.64 798.075H1376.58V801.816C1376.71 801.539 1376.94 801.3 1377.25 801.097C1377.57 800.888 1377.98 800.783 1378.46 800.783C1378.76 800.783 1379.04 800.828 1379.3 800.918C1379.55 801 1379.77 801.139 1379.95 801.333C1380.13 801.521 1380.28 801.764 1380.37 802.064C1380.48 802.363 1380.53 802.726 1380.53 803.153V806.76H1379.6V803.086C1379.6 802.569 1379.49 802.191 1379.26 801.951C1379.04 801.712 1378.69 801.592 1378.22 801.592C1378 801.592 1377.79 801.625 1377.59 801.693C1377.39 801.76 1377.22 801.861 1377.07 801.996C1376.92 802.131 1376.8 802.299 1376.71 802.502C1376.62 802.704 1376.58 802.936 1376.58 803.198V806.76H1375.64V798.075ZM1384.29 806.838C1383.75 806.838 1383.35 806.696 1383.09 806.411C1382.83 806.127 1382.7 805.752 1382.7 805.288V801.67H1381.86V800.884H1382.7V799.547H1383.64V800.884H1385.01V801.67H1383.64V805.198C1383.64 805.767 1383.88 806.052 1384.37 806.052C1384.52 806.052 1384.65 806.041 1384.76 806.018C1384.87 805.996 1384.98 805.966 1385.08 805.928V806.715C1384.99 806.752 1384.88 806.782 1384.76 806.805C1384.64 806.827 1384.48 806.838 1384.29 806.838ZM1388.45 806.861C1387.74 806.861 1387.19 806.696 1386.78 806.367C1386.39 806.029 1386.17 805.558 1386.14 804.951H1387.05C1387.09 805.303 1387.21 805.58 1387.41 805.782C1387.62 805.985 1387.96 806.086 1388.44 806.086C1388.88 806.086 1389.21 806.011 1389.41 805.861C1389.61 805.704 1389.72 805.468 1389.72 805.153C1389.72 804.846 1389.6 804.625 1389.37 804.49C1389.14 804.355 1388.8 804.247 1388.35 804.164C1387.96 804.097 1387.64 804.018 1387.38 803.929C1387.12 803.831 1386.91 803.715 1386.75 803.58C1386.59 803.445 1386.48 803.284 1386.4 803.097C1386.33 802.91 1386.3 802.689 1386.3 802.434C1386.3 802.165 1386.36 801.929 1386.48 801.726C1386.6 801.517 1386.75 801.345 1386.94 801.21C1387.14 801.067 1387.35 800.963 1387.58 800.895C1387.82 800.82 1388.06 800.783 1388.29 800.783C1388.55 800.783 1388.8 800.813 1389.04 800.873C1389.28 800.925 1389.49 801.019 1389.68 801.154C1389.88 801.288 1390.04 801.464 1390.17 801.682C1390.29 801.899 1390.37 802.165 1390.41 802.479H1389.51C1389.45 802.157 1389.32 801.925 1389.12 801.783C1388.93 801.633 1388.65 801.558 1388.28 801.558C1387.94 801.558 1387.67 801.637 1387.47 801.794C1387.27 801.944 1387.17 802.146 1387.17 802.401C1387.17 802.535 1387.18 802.652 1387.22 802.749C1387.27 802.839 1387.34 802.921 1387.45 802.996C1387.55 803.063 1387.69 803.127 1387.86 803.187C1388.04 803.239 1388.27 803.288 1388.54 803.333C1388.84 803.393 1389.11 803.46 1389.37 803.535C1389.62 803.603 1389.84 803.7 1390.02 803.827C1390.21 803.947 1390.35 804.108 1390.45 804.311C1390.55 804.505 1390.6 804.76 1390.6 805.075C1390.6 805.614 1390.42 806.048 1390.06 806.378C1389.7 806.7 1389.17 806.861 1388.45 806.861ZM1395.13 800.884H1396.06V801.94C1396.15 801.775 1396.25 801.625 1396.37 801.491C1396.48 801.348 1396.62 801.228 1396.77 801.131C1396.92 801.026 1397.1 800.944 1397.3 800.884C1397.5 800.824 1397.73 800.79 1397.99 800.783V801.659C1397.7 801.674 1397.44 801.712 1397.2 801.771C1396.96 801.831 1396.75 801.932 1396.58 802.075C1396.41 802.217 1396.29 802.408 1396.2 802.648C1396.11 802.88 1396.06 803.176 1396.06 803.535V806.76H1395.13V800.884ZM1401.72 806.861C1401.31 806.861 1400.92 806.79 1400.58 806.647C1400.23 806.505 1399.93 806.307 1399.68 806.052C1399.43 805.79 1399.23 805.475 1399.08 805.108C1398.95 804.741 1398.88 804.333 1398.88 803.884V803.794C1398.88 803.352 1398.95 802.947 1399.08 802.58C1399.22 802.206 1399.41 801.888 1399.65 801.625C1399.89 801.356 1400.19 801.15 1400.52 801.007C1400.86 800.858 1401.23 800.783 1401.63 800.783C1401.97 800.783 1402.3 800.839 1402.61 800.951C1402.93 801.056 1403.22 801.225 1403.47 801.457C1403.71 801.689 1403.91 801.992 1404.05 802.367C1404.2 802.734 1404.28 803.18 1404.28 803.704V804.007H1399.85C1399.87 804.681 1400.04 805.198 1400.35 805.558C1400.67 805.91 1401.13 806.086 1401.74 806.086C1402.66 806.086 1403.18 805.745 1403.3 805.063H1404.23C1404.13 805.655 1403.85 806.104 1403.4 806.411C1402.95 806.711 1402.39 806.861 1401.72 806.861ZM1403.32 803.254C1403.28 802.648 1403.1 802.213 1402.8 801.951C1402.51 801.689 1402.12 801.558 1401.63 801.558C1401.16 801.558 1400.76 801.712 1400.46 802.019C1400.16 802.318 1399.96 802.73 1399.88 803.254H1403.32ZM1407.71 806.861C1407.01 806.861 1406.45 806.696 1406.05 806.367C1405.65 806.029 1405.44 805.558 1405.41 804.951H1406.32C1406.36 805.303 1406.48 805.58 1406.68 805.782C1406.89 805.985 1407.23 806.086 1407.7 806.086C1408.15 806.086 1408.48 806.011 1408.68 805.861C1408.88 805.704 1408.98 805.468 1408.98 805.153C1408.98 804.846 1408.87 804.625 1408.63 804.49C1408.41 804.355 1408.07 804.247 1407.61 804.164C1407.23 804.097 1406.91 804.018 1406.65 803.929C1406.38 803.831 1406.17 803.715 1406.02 803.58C1405.86 803.445 1405.74 803.284 1405.67 803.097C1405.6 802.91 1405.57 802.689 1405.57 802.434C1405.57 802.165 1405.63 801.929 1405.75 801.726C1405.87 801.517 1406.02 801.345 1406.21 801.21C1406.4 801.067 1406.62 800.963 1406.85 800.895C1407.09 800.82 1407.32 800.783 1407.56 800.783C1407.82 800.783 1408.07 800.813 1408.31 800.873C1408.55 800.925 1408.76 801.019 1408.95 801.154C1409.14 801.288 1409.3 801.464 1409.43 801.682C1409.56 801.899 1409.64 802.165 1409.68 802.479H1408.78C1408.71 802.157 1408.58 801.925 1408.39 801.783C1408.2 801.633 1407.92 801.558 1407.54 801.558C1407.21 801.558 1406.94 801.637 1406.74 801.794C1406.53 801.944 1406.43 802.146 1406.43 802.401C1406.43 802.535 1406.45 802.652 1406.49 802.749C1406.53 802.839 1406.61 802.921 1406.71 802.996C1406.82 803.063 1406.96 803.127 1407.13 803.187C1407.31 803.239 1407.53 803.288 1407.8 803.333C1408.1 803.393 1408.38 803.46 1408.63 803.535C1408.89 803.603 1409.11 803.7 1409.29 803.827C1409.47 803.947 1409.61 804.108 1409.71 804.311C1409.82 804.505 1409.87 804.76 1409.87 805.075C1409.87 805.614 1409.69 806.048 1409.33 806.378C1408.97 806.7 1408.43 806.861 1407.71 806.861ZM1413.83 806.861C1413.41 806.861 1413.03 806.79 1412.68 806.647C1412.34 806.505 1412.04 806.307 1411.78 806.052C1411.53 805.79 1411.33 805.475 1411.19 805.108C1411.05 804.741 1410.98 804.333 1410.98 803.884V803.794C1410.98 803.352 1411.05 802.947 1411.19 802.58C1411.32 802.206 1411.51 801.888 1411.75 801.625C1412 801.356 1412.29 801.15 1412.62 801.007C1412.96 800.858 1413.33 800.783 1413.74 800.783C1414.07 800.783 1414.4 800.839 1414.71 800.951C1415.04 801.056 1415.32 801.225 1415.57 801.457C1415.82 801.689 1416.01 801.992 1416.15 802.367C1416.3 802.734 1416.38 803.18 1416.38 803.704V804.007H1411.95C1411.97 804.681 1412.14 805.198 1412.46 805.558C1412.77 805.91 1413.23 806.086 1413.84 806.086C1414.76 806.086 1415.28 805.745 1415.4 805.063H1416.33C1416.23 805.655 1415.95 806.104 1415.5 806.411C1415.05 806.711 1414.49 806.861 1413.83 806.861ZM1415.42 803.254C1415.38 802.648 1415.2 802.213 1414.91 801.951C1414.61 801.689 1414.22 801.558 1413.74 801.558C1413.26 801.558 1412.86 801.712 1412.56 802.019C1412.26 802.318 1412.07 802.73 1411.98 803.254H1415.42ZM1417.94 800.884H1418.87V801.94C1418.96 801.775 1419.06 801.625 1419.18 801.491C1419.3 801.348 1419.43 801.228 1419.58 801.131C1419.73 801.026 1419.91 800.944 1420.11 800.884C1420.31 800.824 1420.54 800.79 1420.8 800.783V801.659C1420.51 801.674 1420.25 801.712 1420.01 801.771C1419.77 801.831 1419.56 801.932 1419.39 802.075C1419.22 802.217 1419.1 802.408 1419.01 802.648C1418.92 802.88 1418.87 803.176 1418.87 803.535V806.76H1417.94V800.884ZM1421.69 800.884H1422.7L1424.44 805.816L1426.16 800.884H1427.12L1425.01 806.76H1423.82L1421.69 800.884ZM1430.72 806.861C1430.3 806.861 1429.92 806.79 1429.58 806.647C1429.23 806.505 1428.93 806.307 1428.68 806.052C1428.42 805.79 1428.22 805.475 1428.08 805.108C1427.95 804.741 1427.88 804.333 1427.88 803.884V803.794C1427.88 803.352 1427.95 802.947 1428.08 802.58C1428.22 802.206 1428.4 801.888 1428.64 801.625C1428.89 801.356 1429.18 801.15 1429.52 801.007C1429.86 800.858 1430.23 800.783 1430.63 800.783C1430.97 800.783 1431.3 800.839 1431.61 800.951C1431.93 801.056 1432.22 801.225 1432.46 801.457C1432.71 801.689 1432.91 801.992 1433.05 802.367C1433.2 802.734 1433.27 803.18 1433.27 803.704V804.007H1428.85C1428.87 804.681 1429.04 805.198 1429.35 805.558C1429.67 805.91 1430.13 806.086 1430.73 806.086C1431.66 806.086 1432.18 805.745 1432.3 805.063H1433.23C1433.12 805.655 1432.85 806.104 1432.4 806.411C1431.95 806.711 1431.39 806.861 1430.72 806.861ZM1432.32 803.254C1432.27 802.648 1432.1 802.213 1431.8 801.951C1431.51 801.689 1431.12 801.558 1430.63 801.558C1430.15 801.558 1429.76 801.712 1429.45 802.019C1429.15 802.318 1428.96 802.73 1428.88 803.254H1432.32ZM1437.05 806.861C1436.67 806.861 1436.31 806.797 1435.98 806.67C1435.66 806.535 1435.38 806.344 1435.14 806.097C1434.91 805.842 1434.72 805.535 1434.59 805.176C1434.46 804.809 1434.4 804.397 1434.4 803.94V803.85C1434.4 803.401 1434.46 802.989 1434.6 802.614C1434.73 802.24 1434.92 801.917 1435.16 801.648C1435.4 801.371 1435.69 801.157 1436.03 801.007C1436.36 800.858 1436.73 800.783 1437.14 800.783C1437.63 800.783 1438.03 800.888 1438.34 801.097C1438.65 801.3 1438.89 801.543 1439.06 801.828V798.075H1439.99V806.76H1439.06V805.749C1438.98 805.891 1438.87 806.029 1438.72 806.164C1438.58 806.299 1438.42 806.419 1438.24 806.524C1438.07 806.621 1437.88 806.7 1437.67 806.76C1437.46 806.827 1437.26 806.861 1437.05 806.861ZM1437.15 806.086C1437.42 806.086 1437.67 806.041 1437.91 805.951C1438.15 805.861 1438.36 805.726 1438.53 805.546C1438.7 805.359 1438.84 805.127 1438.94 804.85C1439.04 804.565 1439.09 804.236 1439.09 803.861V803.771C1439.09 803.015 1438.93 802.457 1438.59 802.097C1438.26 801.738 1437.81 801.558 1437.23 801.558C1436.64 801.558 1436.19 801.753 1435.86 802.142C1435.53 802.532 1435.36 803.086 1435.36 803.805V803.895C1435.36 804.269 1435.41 804.595 1435.5 804.872C1435.6 805.142 1435.72 805.367 1435.88 805.546C1436.05 805.726 1436.24 805.861 1436.45 805.951C1436.67 806.041 1436.9 806.086 1437.15 806.086Z" fill="#9A9A9A"/>
<path d="M45.7531 336.865L45.7531 338.605L32.8731 338.605L32.8731 345.145L31.4531 345.145L31.4531 336.865L45.7531 336.865ZM32.7131 353.577C32.7131 354.377 32.8531 355.091 33.1331 355.717C33.4265 356.357 33.8265 356.897 34.3331 357.337C34.8531 357.777 35.4731 358.117 36.1931 358.357C36.9131 358.597 37.7065 358.717 38.5731 358.717L38.7331 358.717C39.5331 358.717 40.2865 358.597 40.9931 358.357C41.6998 358.131 42.3131 357.797 42.8331 357.357C43.3531 356.917 43.7665 356.377 44.0731 355.737C44.3798 355.097 44.5331 354.364 44.5331 353.537C44.5331 352.711 44.3865 351.971 44.0931 351.317C43.8131 350.664 43.4131 350.111 42.8931 349.657C42.3731 349.217 41.7531 348.877 41.0331 348.637C40.3265 348.411 39.5465 348.297 38.6931 348.297L38.5331 348.297C37.6665 348.297 36.8731 348.431 36.1531 348.697C35.4465 348.977 34.8331 349.351 34.3131 349.817C33.8065 350.297 33.4131 350.857 33.1331 351.497C32.8531 352.137 32.7131 352.831 32.7131 353.577ZM31.2731 353.577C31.2731 352.524 31.4598 351.557 31.8331 350.677C32.2198 349.811 32.7398 349.064 33.3931 348.437C34.0465 347.824 34.8131 347.344 35.6931 346.997C36.5731 346.664 37.5131 346.497 38.5131 346.497L38.6731 346.497C39.6865 346.497 40.6331 346.664 41.5131 346.997C42.4065 347.344 43.1798 347.824 43.8331 348.437C44.4865 349.064 44.9998 349.804 45.3731 350.657C45.7465 351.524 45.9331 352.484 45.9331 353.537C45.9331 354.591 45.7465 355.544 45.3731 356.397C44.9998 357.251 44.4865 357.984 43.8331 358.597C43.1798 359.211 42.4131 359.684 41.5331 360.017C40.6531 360.351 39.7131 360.517 38.7131 360.517L38.5531 360.517C37.5398 360.517 36.5931 360.351 35.7131 360.017C34.8331 359.684 34.0598 359.211 33.3931 358.597C32.7398 357.997 32.2198 357.271 31.8331 356.417C31.4598 355.564 31.2731 354.617 31.2731 353.577ZM45.7531 366.701L45.7531 368.981L31.4531 373.821L31.4531 372.101L35.5731 370.701L35.5731 364.801L31.4531 363.421L31.4531 361.781L45.7531 366.701ZM36.9531 365.281L36.9531 370.241L44.3131 367.761L36.9531 365.281ZM32.8731 380.272C32.8731 381.192 33.0065 381.992 33.2731 382.672C33.5398 383.366 33.9198 383.939 34.4131 384.392C34.9065 384.859 35.4998 385.206 36.1931 385.432C36.8998 385.672 37.6931 385.792 38.5731 385.792L38.7331 385.792C39.5598 385.792 40.3131 385.686 40.9931 385.472C41.6865 385.272 42.2798 384.946 42.7731 384.492C43.2798 384.052 43.6665 383.479 43.9331 382.772C44.2131 382.079 44.3531 381.239 44.3531 380.252L44.3531 378.312L32.8731 378.312L32.8731 380.272ZM45.7531 376.572L45.7531 380.352C45.7531 381.579 45.5731 382.646 45.2131 383.552C44.8531 384.459 44.3598 385.212 43.7331 385.812C43.1065 386.412 42.3665 386.859 41.5131 387.152C40.6598 387.446 39.7331 387.592 38.7331 387.592L38.5531 387.592C37.5665 387.592 36.6398 387.446 35.7731 387.152C34.9065 386.872 34.1531 386.432 33.5131 385.832C32.8731 385.232 32.3665 384.472 31.9931 383.552C31.6331 382.646 31.4531 381.566 31.4531 380.312L31.4531 376.572L45.7531 376.572ZM45.7531 390.832L45.7531 392.573L31.4531 392.572L31.4531 390.832L45.7531 390.832ZM45.7531 396.514L45.7531 398.774L33.9331 405.734L45.7531 405.734L45.7531 407.394L31.4531 407.394L31.4531 405.394L43.7131 398.174L31.4531 398.174L31.4531 396.514L45.7531 396.514ZM31.2731 417.46C31.2731 416.354 31.4531 415.374 31.8131 414.52C32.1731 413.667 32.6731 412.94 33.3131 412.34C33.9665 411.754 34.7331 411.307 35.6131 411C36.5065 410.694 37.4731 410.54 38.5131 410.54L38.6731 410.54C39.7131 410.54 40.6798 410.707 41.5731 411.04C42.4665 411.374 43.2398 411.847 43.8931 412.46C44.5465 413.074 45.0531 413.8 45.4131 414.64C45.7865 415.494 45.9731 416.434 45.9731 417.46C45.9731 418.167 45.8865 418.847 45.7131 419.5C45.5398 420.154 45.2665 420.74 44.8931 421.26C44.5331 421.794 44.0665 422.234 43.4931 422.58C42.9198 422.94 42.2331 423.174 41.4331 423.28L41.4331 421.54C42.5665 421.34 43.3731 420.874 43.8531 420.14C44.3465 419.42 44.5931 418.54 44.5931 417.5C44.5931 416.674 44.4465 415.94 44.1531 415.3C43.8731 414.66 43.4731 414.12 42.9531 413.68C42.4331 413.24 41.8131 412.907 41.0931 412.68C40.3731 412.454 39.5731 412.34 38.6931 412.34L38.5331 412.34C37.6531 412.34 36.8465 412.447 36.1131 412.66C35.3931 412.887 34.7798 413.214 34.2731 413.64C33.7665 414.067 33.3731 414.6 33.0931 415.24C32.8131 415.88 32.6731 416.62 32.6731 417.46C32.6731 418.234 32.7931 418.9 33.0331 419.46C33.2731 420.02 33.5931 420.48 33.9931 420.84C34.4065 421.214 34.8865 421.487 35.4331 421.66C35.9931 421.847 36.5931 421.947 37.2331 421.96L37.2331 417.78L38.6731 417.78L38.6731 423.66L37.6131 423.66C36.5731 423.66 35.6598 423.507 34.8731 423.2C34.0865 422.907 33.4265 422.487 32.8931 421.94C32.3598 421.394 31.9531 420.74 31.6731 419.98C31.4065 419.22 31.2731 418.38 31.2731 417.46ZM32.8731 435.819C32.8731 436.739 33.0065 437.539 33.2731 438.219C33.5398 438.913 33.9198 439.486 34.4131 439.939C34.9065 440.406 35.4998 440.753 36.1931 440.979C36.8998 441.219 37.6931 441.339 38.5731 441.339L38.7331 441.339C39.5598 441.339 40.3131 441.233 40.9931 441.019C41.6865 440.819 42.2798 440.493 42.7731 440.039C43.2798 439.599 43.6665 439.026 43.9331 438.319C44.2131 437.626 44.3531 436.786 44.3531 435.799L44.3531 433.859L32.8731 433.859L32.8731 435.819ZM45.7531 432.119L45.7531 435.899C45.7531 437.126 45.5731 438.193 45.2131 439.099C44.8531 440.006 44.3598 440.759 43.7331 441.359C43.1065 441.959 42.3665 442.406 41.5131 442.699C40.6598 442.993 39.7331 443.139 38.7331 443.139L38.5531 443.139C37.5665 443.139 36.6398 442.993 35.7731 442.699C34.9065 442.419 34.1531 441.979 33.5131 441.379C32.8731 440.779 32.3665 440.019 31.9931 439.099C31.6331 438.193 31.4531 437.113 31.4531 435.859L31.4531 432.119L45.7531 432.119ZM32.7131 452.659C32.7131 453.459 32.8531 454.173 33.1331 454.799C33.4265 455.439 33.8265 455.979 34.3331 456.419C34.8531 456.859 35.4731 457.199 36.1931 457.439C36.9131 457.679 37.7065 457.799 38.5731 457.799L38.7331 457.799C39.5331 457.799 40.2865 457.679 40.9931 457.439C41.6998 457.213 42.3131 456.879 42.8331 456.439C43.3531 455.999 43.7665 455.459 44.0731 454.819C44.3798 454.179 44.5331 453.446 44.5331 452.619C44.5331 451.793 44.3865 451.053 44.0931 450.399C43.8131 449.746 43.4131 449.193 42.8931 448.739C42.3731 448.299 41.7531 447.959 41.0331 447.719C40.3265 447.493 39.5465 447.379 38.6931 447.379L38.5331 447.379C37.6665 447.379 36.8731 447.513 36.1531 447.779C35.4465 448.059 34.8331 448.433 34.3131 448.899C33.8065 449.379 33.4131 449.939 33.1331 450.579C32.8531 451.219 32.7131 451.913 32.7131 452.659ZM31.2731 452.659C31.2731 451.606 31.4598 450.639 31.8331 449.759C32.2198 448.893 32.7398 448.146 33.3931 447.519C34.0465 446.906 34.8131 446.426 35.6931 446.079C36.5731 445.746 37.5131 445.579 38.5131 445.579L38.6731 445.579C39.6865 445.579 40.6331 445.746 41.5131 446.079C42.4065 446.426 43.1798 446.906 43.8331 447.519C44.4865 448.146 44.9998 448.886 45.3731 449.739C45.7465 450.606 45.9331 451.566 45.9331 452.619C45.9331 453.673 45.7465 454.626 45.3731 455.479C44.9998 456.333 44.4865 457.066 43.8331 457.679C43.1798 458.293 42.4131 458.766 41.5331 459.099C40.6531 459.433 39.7131 459.599 38.7131 459.599L38.5531 459.599C37.5398 459.599 36.5931 459.433 35.7131 459.099C34.8331 458.766 34.0598 458.293 33.3931 457.679C32.7398 457.079 32.2198 456.353 31.8331 455.499C31.4598 454.646 31.2731 453.699 31.2731 452.659ZM31.2731 468.724C31.2731 467.684 31.4398 466.751 31.7731 465.924C32.1198 465.111 32.6065 464.411 33.2331 463.824C33.8731 463.251 34.6331 462.811 35.5131 462.504C36.4065 462.198 37.4065 462.044 38.5131 462.044L38.6731 462.044C39.7265 462.044 40.6998 462.211 41.5931 462.544C42.4865 462.878 43.2598 463.344 43.9131 463.944C44.5665 464.544 45.0731 465.251 45.4331 466.064C45.7931 466.891 45.9731 467.791 45.9731 468.764C45.9731 469.511 45.8731 470.218 45.6731 470.884C45.4731 471.551 45.1798 472.144 44.7931 472.664C44.4065 473.184 43.9198 473.611 43.3331 473.944C42.7465 474.278 42.0665 474.484 41.2931 474.564L41.2931 472.844C42.3865 472.658 43.2065 472.238 43.7531 471.584C44.3131 470.944 44.5931 470.011 44.5931 468.784C44.5931 468.038 44.4531 467.358 44.1731 466.744C43.8931 466.144 43.4998 465.631 42.9931 465.204C42.4865 464.778 41.8665 464.444 41.1331 464.204C40.3998 463.964 39.5865 463.844 38.6931 463.844L38.5331 463.844C37.6265 463.844 36.8065 463.958 36.0731 464.184C35.3531 464.411 34.7398 464.731 34.2331 465.144C33.7398 465.571 33.3598 466.084 33.0931 466.684C32.8265 467.298 32.6931 467.991 32.6931 468.764C32.6931 469.938 32.9798 470.904 33.5531 471.664C34.1398 472.424 35.0198 472.898 36.1931 473.084L36.1931 474.704C34.5398 474.451 33.3065 473.791 32.4931 472.724C31.6798 471.658 31.2731 470.324 31.2731 468.724ZM45.7531 477.588L45.7531 479.328L38.8731 479.328L45.7731 485.548L45.7731 487.488L38.8131 481.128L31.4531 487.808L31.4531 485.708L38.4331 479.328L31.4531 479.328L31.4531 477.588L45.7531 477.588Z" fill="white"/>
<path d="M1474.89 349.642L1474.89 351.422L1463.35 354.322L1474.89 357.682L1474.89 358.922L1463.31 362.282L1474.89 365.222L1474.89 366.842L1460.59 363.122L1460.59 361.522L1471.89 358.282L1460.59 354.942L1460.59 353.362L1474.89 349.642ZM1474.89 372.219L1474.89 374.499L1460.59 379.339L1460.59 377.619L1464.71 376.219L1464.71 370.319L1460.59 368.939L1460.59 367.299L1474.89 372.219ZM1466.09 370.799L1466.09 375.759L1473.45 373.279L1466.09 370.799ZM1474.89 382.09L1474.89 386.39C1474.89 387.07 1474.82 387.71 1474.67 388.31C1474.52 388.923 1474.29 389.457 1473.97 389.91C1473.65 390.363 1473.24 390.723 1472.73 390.99C1472.24 391.257 1471.63 391.39 1470.91 391.39L1470.83 391.39C1470.24 391.39 1469.72 391.297 1469.27 391.11C1468.83 390.923 1468.45 390.67 1468.13 390.35C1467.82 390.03 1467.57 389.657 1467.37 389.23C1467.17 388.803 1467.02 388.343 1466.93 387.85L1460.59 392.23L1460.59 390.29L1466.81 386.03L1466.81 383.83L1460.59 383.83L1460.59 382.09L1474.89 382.09ZM1468.19 386.51C1468.19 387.537 1468.41 388.317 1468.85 388.85C1469.29 389.383 1469.95 389.65 1470.83 389.65L1470.91 389.65C1471.39 389.65 1471.8 389.577 1472.13 389.43C1472.46 389.283 1472.73 389.077 1472.93 388.81C1473.13 388.543 1473.27 388.21 1473.35 387.81C1473.44 387.423 1473.49 386.99 1473.49 386.51L1473.49 383.83L1468.19 383.83L1468.19 386.51ZM1474.89 394.883L1474.89 403.223L1473.47 403.223L1473.47 396.623L1468.61 396.623L1468.61 401.943L1467.19 401.943L1467.19 396.623L1462.01 396.623L1462.01 403.583L1460.59 403.583L1460.59 394.883L1474.89 394.883ZM1474.89 406.445L1474.89 408.185L1468.41 408.185L1468.41 415.705L1474.89 415.705L1474.89 417.445L1460.59 417.445L1460.59 415.705L1466.95 415.705L1466.95 408.185L1460.59 408.185L1460.59 406.445L1474.89 406.445ZM1461.85 427.669C1461.85 428.469 1461.99 429.182 1462.27 429.809C1462.56 430.449 1462.96 430.989 1463.47 431.429C1463.99 431.869 1464.61 432.209 1465.33 432.449C1466.05 432.689 1466.84 432.809 1467.71 432.809L1467.87 432.809C1468.67 432.809 1469.42 432.689 1470.13 432.449C1470.84 432.222 1471.45 431.889 1471.97 431.449C1472.49 431.009 1472.9 430.469 1473.21 429.829C1473.52 429.189 1473.67 428.456 1473.67 427.629C1473.67 426.802 1473.52 426.062 1473.23 425.409C1472.95 424.756 1472.55 424.202 1472.03 423.749C1471.51 423.309 1470.89 422.969 1470.17 422.729C1469.46 422.502 1468.68 422.389 1467.83 422.389L1467.67 422.389C1466.8 422.389 1466.01 422.522 1465.29 422.789C1464.58 423.069 1463.97 423.442 1463.45 423.909C1462.94 424.389 1462.55 424.949 1462.27 425.589C1461.99 426.229 1461.85 426.922 1461.85 427.669ZM1460.41 427.669C1460.41 426.616 1460.6 425.649 1460.97 424.769C1461.36 423.902 1461.88 423.156 1462.53 422.529C1463.18 421.916 1463.95 421.436 1464.83 421.089C1465.71 420.756 1466.65 420.589 1467.65 420.589L1467.81 420.589C1468.82 420.589 1469.77 420.756 1470.65 421.089C1471.54 421.436 1472.32 421.916 1472.97 422.529C1473.62 423.156 1474.14 423.896 1474.51 424.749C1474.88 425.616 1475.07 426.576 1475.07 427.629C1475.07 428.682 1474.88 429.636 1474.51 430.489C1474.14 431.342 1473.62 432.076 1472.97 432.689C1472.32 433.302 1471.55 433.776 1470.67 434.109C1469.79 434.442 1468.85 434.609 1467.85 434.609L1467.69 434.609C1466.68 434.609 1465.73 434.442 1464.85 434.109C1463.97 433.776 1463.2 433.302 1462.53 432.689C1461.88 432.089 1461.36 431.362 1460.97 430.509C1460.6 429.656 1460.41 428.709 1460.41 427.669ZM1460.41 442.774C1460.41 441.121 1460.87 439.847 1461.79 438.954C1462.72 438.074 1464.06 437.634 1465.81 437.634L1474.89 437.634L1474.89 439.374L1466.01 439.374C1465.26 439.374 1464.62 439.441 1464.09 439.574C1463.57 439.707 1463.14 439.914 1462.81 440.194C1462.48 440.474 1462.23 440.827 1462.07 441.254C1461.92 441.694 1461.85 442.214 1461.85 442.814C1461.85 443.387 1461.92 443.894 1462.05 444.334C1462.18 444.787 1462.42 445.167 1462.75 445.474C1463.08 445.794 1463.53 446.034 1464.09 446.194C1464.66 446.367 1465.39 446.454 1466.27 446.454L1474.89 446.454L1474.89 448.194L1466.03 448.194C1464.28 448.194 1462.91 447.747 1461.91 446.854C1460.91 445.974 1460.41 444.614 1460.41 442.774ZM1460.41 456.534C1460.41 455.574 1460.53 454.761 1460.77 454.094C1461.02 453.441 1461.36 452.901 1461.77 452.474C1462.18 452.047 1462.66 451.721 1463.21 451.494C1463.76 451.281 1464.34 451.141 1464.95 451.074L1464.95 452.754C1464.52 452.807 1464.12 452.901 1463.73 453.034C1463.36 453.167 1463.02 453.374 1462.73 453.654C1462.45 453.934 1462.22 454.301 1462.05 454.754C1461.89 455.221 1461.81 455.814 1461.81 456.534C1461.81 456.987 1461.87 457.414 1461.99 457.814C1462.12 458.214 1462.31 458.561 1462.55 458.854C1462.79 459.147 1463.08 459.374 1463.41 459.534C1463.74 459.707 1464.11 459.794 1464.51 459.794C1464.91 459.794 1465.26 459.741 1465.55 459.634C1465.86 459.527 1466.12 459.341 1466.33 459.074C1466.54 458.821 1466.72 458.467 1466.87 458.014C1467.02 457.574 1467.14 457.014 1467.25 456.334C1467.37 455.587 1467.52 454.914 1467.71 454.314C1467.9 453.727 1468.14 453.227 1468.43 452.814C1468.74 452.401 1469.11 452.087 1469.55 451.874C1470 451.661 1470.55 451.554 1471.19 451.554C1471.74 451.554 1472.24 451.667 1472.71 451.894C1473.19 452.121 1473.6 452.434 1473.95 452.834C1474.3 453.247 1474.57 453.734 1474.77 454.294C1474.97 454.854 1475.07 455.474 1475.07 456.154C1475.07 457.594 1474.73 458.734 1474.05 459.574C1473.38 460.427 1472.41 460.927 1471.13 461.074L1471.13 459.514C1472.04 459.341 1472.68 458.987 1473.07 458.454C1473.47 457.921 1473.67 457.154 1473.67 456.154C1473.67 455.167 1473.45 454.421 1473.01 453.914C1472.58 453.421 1472.03 453.174 1471.35 453.174C1471 453.174 1470.69 453.214 1470.41 453.294C1470.14 453.387 1469.91 453.554 1469.71 453.794C1469.51 454.047 1469.33 454.394 1469.17 454.834C1469.02 455.287 1468.9 455.881 1468.79 456.614C1468.67 457.414 1468.51 458.114 1468.31 458.714C1468.11 459.314 1467.85 459.821 1467.53 460.234C1467.21 460.647 1466.82 460.954 1466.35 461.154C1465.88 461.367 1465.31 461.474 1464.63 461.474C1464.03 461.474 1463.47 461.347 1462.95 461.094C1462.44 460.854 1462 460.514 1461.61 460.074C1461.24 459.634 1460.94 459.107 1460.73 458.494C1460.52 457.894 1460.41 457.241 1460.41 456.534ZM1474.89 464.688L1474.89 473.028L1473.47 473.028L1473.47 466.428L1468.61 466.428L1468.61 471.748L1467.19 471.748L1467.19 466.428L1462.01 466.428L1462.01 473.388L1460.59 473.388L1460.59 464.688L1474.89 464.688Z" fill="white"/>
<mask id="mask0_261_3182" style="mask-type:alpha" maskUnits="userSpaceOnUse" x="14" y="8" width="232" height="236">
<rect x="14.9258" y="8.70898" width="230.18" height="235.027" fill="url(#paint0_linear_261_3182)"/>
</mask>
<g mask="url(#mask0_261_3182)">
<path d="M26.4501 236.865L26.4501 204.061L59.2539 204.061L59.2539 236.865L26.4501 236.865Z" stroke="#636466" stroke-width="1.65114" stroke-miterlimit="10" stroke-linecap="round" stroke-linejoin="round"/>
<path d="M61.4306 236.865L61.4306 204.061L94.2344 204.061L94.2344 236.865L61.4306 236.865Z" stroke="#636466" stroke-width="1.65114" stroke-miterlimit="10" stroke-linecap="round" stroke-linejoin="round"/>
<path d="M96.415 236.865L96.415 204.061L129.219 204.061L129.219 236.865L96.415 236.865Z" stroke="#636466" stroke-width="1.65114" stroke-miterlimit="10" stroke-linecap="round" stroke-linejoin="round"/>
<path d="M26.4501 201.881L26.4501 169.077L59.2539 169.077L59.2539 201.881L26.4501 201.881Z" stroke="#636466" stroke-width="1.65114" stroke-miterlimit="10" stroke-linecap="round" stroke-linejoin="round"/>
<path d="M61.4306 201.881L61.4306 169.077L94.2344 169.077L94.2344 201.881L61.4306 201.881Z" stroke="#636466" stroke-width="1.65114" stroke-miterlimit="10" stroke-linecap="round" stroke-linejoin="round"/>
<path d="M96.415 201.881L96.415 169.077L129.219 169.077L129.219 201.881L96.415 201.881Z" stroke="#636466" stroke-width="1.65114" stroke-miterlimit="10" stroke-linecap="round" stroke-linejoin="round"/>
<path d="M26.4501 166.902L26.4501 134.099L59.2539 134.099L59.2539 166.902L26.4501 166.902Z" stroke="#636466" stroke-width="1.65114" stroke-miterlimit="10" stroke-linecap="round" stroke-linejoin="round"/>
<path d="M61.4306 166.902L61.4306 134.099L94.2344 134.099L94.2344 166.902L61.4306 166.902Z" stroke="#636466" stroke-width="1.65114" stroke-miterlimit="10" stroke-linecap="round" stroke-linejoin="round"/>
<path d="M96.415 166.902L96.415 134.099L129.219 134.099L129.219 166.902L96.415 166.902Z" stroke="#636466" stroke-width="1.65114" stroke-miterlimit="10" stroke-linecap="round" stroke-linejoin="round"/>
<path d="M154.997 172.906L138.595 144.497L167.004 128.095L183.406 156.504L154.997 172.906Z" stroke="#636466" stroke-width="1.65114" stroke-miterlimit="10" stroke-linecap="round" stroke-linejoin="round"/>
<path d="M146.908 107.062L155.398 75.3765L187.084 83.8667L178.594 115.553L146.908 107.062Z" stroke="#636466" stroke-width="1.65114" stroke-miterlimit="10" stroke-linecap="round" stroke-linejoin="round"/>
<path d="M26.4501 130.441L26.4501 97.6376L59.2539 97.6376L59.2539 130.441L26.4501 130.441Z" stroke="#636466" stroke-width="1.65114" stroke-miterlimit="10" stroke-linecap="round" stroke-linejoin="round"/>
<path d="M61.4306 130.441L61.4306 97.6376L94.2344 97.6376L94.2344 130.441L61.4306 130.441Z" stroke="#636466" stroke-width="1.65114" stroke-miterlimit="10" stroke-linecap="round" stroke-linejoin="round"/>
<path d="M96.415 130.441L96.415 97.6376L129.219 97.6376L129.219 130.441L96.415 130.441Z" stroke="#636466" stroke-width="1.65114" stroke-miterlimit="10" stroke-linecap="round" stroke-linejoin="round"/>
<path d="M26.4501 95.4629L26.4501 62.6591L59.2539 62.6591L59.2539 95.4629L26.4501 95.4629Z" stroke="#636466" stroke-width="1.65114" stroke-miterlimit="10" stroke-linecap="round" stroke-linejoin="round"/>
<path d="M61.4306 95.4629L61.4306 62.6591L94.2344 62.6591L94.2344 95.4629L61.4306 95.4629Z" stroke="#636466" stroke-width="1.65114" stroke-miterlimit="10" stroke-linecap="round" stroke-linejoin="round"/>
<path d="M96.415 95.4629L96.415 62.6591L129.219 62.6591L129.219 95.4629L96.415 95.4629Z" stroke="#636466" stroke-width="1.65114" stroke-miterlimit="10" stroke-linecap="round" stroke-linejoin="round"/>
<path d="M26.4501 60.4785L26.4501 27.6748L59.2539 27.6748L59.2539 60.4785L26.4501 60.4785Z" stroke="#636466" stroke-width="1.65114" stroke-miterlimit="10" stroke-linecap="round" stroke-linejoin="round"/>
<path d="M61.4306 60.4785L61.4306 27.6748L94.2344 27.6748L94.2344 60.4785L61.4306 60.4785Z" stroke="#636466" stroke-width="1.65114" stroke-miterlimit="10" stroke-linecap="round" stroke-linejoin="round"/>
<path d="M96.415 60.4785L96.415 27.6748L129.219 27.6748L129.219 60.4785L96.415 60.4785Z" stroke="#636466" stroke-width="1.65114" stroke-miterlimit="10" stroke-linecap="round" stroke-linejoin="round"/>
</g>
<defs>
<linearGradient id="paint0_linear_261_3182" x1="-49.42" y1="-28.4687" x2="210.01" y2="204.126" gradientUnits="userSpaceOnUse">
<stop/>
<stop offset="1" stop-opacity="0.4"/>
</linearGradient>
</defs>
</svg>
