<svg width="225" height="179" viewBox="0 0 225 179" fill="none" xmlns="http://www.w3.org/2000/svg">
<path d="M183.988 82.3387C183.286 80.9366 182.936 79.184 183.637 77.4314C185.039 74.2767 185.39 71.122 185.39 67.2662C185.39 51.8432 173.121 39.2244 157.348 39.2244C151.739 39.2244 146.482 40.977 141.925 44.1317C140.523 44.8328 139.121 45.1833 137.719 44.8328C135.966 44.4823 134.914 43.4307 133.863 42.3791C125.1 26.9561 108.976 16.791 90.398 16.791C62.3562 16.791 39.9227 39.5749 39.9227 67.2662C39.9227 68.3178 39.9227 69.0188 39.9227 70.0704C39.9227 72.524 38.5206 74.6272 36.067 75.6788C18.5408 81.6376 6.27255 98.4627 6.27255 117.741C6.27254 142.629 26.2523 162.608 51.1394 162.608L180.132 162.608C201.514 162.608 219.39 145.082 219.39 123.35C219.39 104.422 205.72 88.6481 187.843 85.1429C186.091 84.7924 184.689 83.7408 183.988 82.3387ZM135.966 34.6676C137.018 36.0697 138.069 37.8223 138.77 39.5749C140.172 38.5234 141.224 37.8223 142.626 37.1213C147.183 35.0181 152.09 33.6161 157.698 33.6161C176.276 33.6161 191.349 48.6885 191.349 67.2662C191.349 69.7199 190.998 71.823 190.647 74.2767C190.297 76.0293 189.596 77.7819 188.895 79.5345C190.647 79.885 192.751 80.2356 194.503 80.9366C212.029 86.8955 224.999 103.721 224.999 123.35C224.999 148.237 204.668 168.217 180.132 168.217L51.1394 168.217C23.0976 168.217 0.664182 145.783 0.664187 117.741C0.664191 96.0091 14.6851 77.0808 34.3144 70.4209C34.3144 69.3693 34.3144 68.3178 34.3144 67.2662C34.3144 36.4202 59.2015 11.1826 90.398 11.1826C108.976 11.1826 125.801 20.6467 135.966 34.6676Z" fill="#D894FF"/>
<path d="M93.5309 97.1045C92.4974 97.1045 91.5807 96.9445 90.781 96.6246C89.9812 96.3047 89.3045 95.8556 88.7509 95.2774C88.2095 94.6991 87.7973 93.9978 87.5143 93.1734C87.2314 92.3491 87.0899 91.4263 87.0899 90.4051V90.2574C87.0899 89.2608 87.2498 88.3503 87.5697 87.526C87.8896 86.7016 88.3325 85.9942 88.8985 85.4036C89.4768 84.813 90.1535 84.3516 90.9286 84.0194C91.7161 83.6872 92.5712 83.5211 93.494 83.5211C94.2445 83.5211 94.9458 83.6195 95.5979 83.8164C96.2623 84.001 96.8468 84.2839 97.3512 84.6654C97.8557 85.0468 98.2617 85.5266 98.5693 86.1049C98.8892 86.6832 99.086 87.3599 99.1599 88.135H96.6683C96.533 87.2492 96.2131 86.5848 95.7087 86.1418C95.2042 85.6989 94.4721 85.4774 93.5124 85.4774C92.9342 85.4774 92.4051 85.5881 91.9252 85.8096C91.4577 86.0311 91.0578 86.3448 90.7256 86.7509C90.3934 87.1569 90.135 87.6552 89.9505 88.2458C89.7659 88.8363 89.6737 89.5007 89.6737 90.239V90.3866C89.6737 91.8754 90.0059 93.0381 90.6703 93.8747C91.347 94.6991 92.3005 95.1113 93.5309 95.1113C94.4537 95.1113 95.2103 94.8836 95.8009 94.4284C96.4038 93.9609 96.7729 93.2595 96.9083 92.3245H99.3075C99.2091 93.1242 98.9999 93.8255 98.68 94.4284C98.3601 95.019 97.9479 95.5111 97.4435 95.9049C96.9513 96.2986 96.3731 96.6 95.7087 96.8092C95.0442 97.006 94.3183 97.1045 93.5309 97.1045ZM101.377 82.8013H103.61V96.9199H101.377V82.8013ZM110.722 95.3696C111.559 95.3696 112.211 95.0867 112.679 94.5207C113.146 93.9424 113.38 93.155 113.38 92.1584V92.0292C113.38 91.0326 113.146 90.2513 112.679 89.6853C112.211 89.107 111.559 88.8179 110.722 88.8179C109.886 88.8179 109.228 89.1009 108.748 89.6668C108.28 90.2328 108.046 91.0141 108.046 92.0107V92.1584C108.046 93.155 108.28 93.9424 108.748 94.5207C109.215 95.0867 109.874 95.3696 110.722 95.3696ZM110.704 97.1045C109.99 97.1045 109.332 96.9876 108.729 96.7538C108.126 96.52 107.603 96.1878 107.161 95.7572C106.718 95.3266 106.373 94.8098 106.127 94.2069C105.881 93.6041 105.758 92.9335 105.758 92.1953V92.0476C105.758 91.2971 105.881 90.6204 106.127 90.0175C106.385 89.4023 106.736 88.8794 107.179 88.4488C107.622 88.0058 108.145 87.6675 108.748 87.4337C109.351 87.1876 110.009 87.0646 110.722 87.0646C111.424 87.0646 112.076 87.1815 112.679 87.4153C113.282 87.649 113.805 87.9874 114.248 88.4303C114.69 88.861 115.035 89.3777 115.281 89.9806C115.539 90.5835 115.669 91.254 115.669 91.9923V92.1399C115.669 92.8904 115.539 93.5733 115.281 94.1885C115.035 94.7914 114.69 95.3143 114.248 95.7572C113.805 96.1878 113.282 96.52 112.679 96.7538C112.076 96.9876 111.418 97.1045 110.704 97.1045ZM120.988 97.1045C120.508 97.1045 120.065 97.0368 119.659 96.9015C119.253 96.7538 118.903 96.5324 118.607 96.2371C118.312 95.9418 118.078 95.5665 117.906 95.1113C117.746 94.6437 117.666 94.0901 117.666 93.4503V87.2676H119.899V93.1919C119.899 93.9301 120.053 94.4715 120.361 94.816C120.668 95.1482 121.148 95.3143 121.8 95.3143C122.095 95.3143 122.378 95.2651 122.649 95.1666C122.932 95.0682 123.172 94.9267 123.369 94.7422C123.578 94.5453 123.744 94.3054 123.867 94.0224C123.99 93.7271 124.052 93.3887 124.052 93.0073V87.2676H126.285V96.9199H124.052V95.4066C123.806 95.8741 123.43 96.274 122.926 96.6062C122.422 96.9384 121.776 97.1045 120.988 97.1045ZM132.622 97.1045C132.019 97.1045 131.459 96.9999 130.943 96.7907C130.426 96.5816 129.977 96.274 129.595 95.8679C129.214 95.4496 128.913 94.939 128.691 94.3361C128.482 93.7332 128.377 93.0381 128.377 92.2506V92.103C128.377 91.3279 128.482 90.6327 128.691 90.0175C128.913 89.39 129.214 88.861 129.595 88.4303C129.989 87.9874 130.451 87.649 130.98 87.4153C131.509 87.1815 132.087 87.0646 132.714 87.0646C133.502 87.0646 134.142 87.2245 134.634 87.5444C135.138 87.8643 135.526 88.2642 135.797 88.7441V82.8013H138.03V96.9199H135.797V95.2958C135.661 95.5419 135.489 95.7757 135.28 95.9971C135.071 96.2063 134.825 96.397 134.542 96.5693C134.271 96.7292 133.969 96.8584 133.637 96.9568C133.317 97.0553 132.979 97.1045 132.622 97.1045ZM133.176 95.3327C133.951 95.3327 134.591 95.0744 135.095 94.5576C135.612 94.0285 135.87 93.2226 135.87 92.1399V91.9923C135.87 90.9218 135.637 90.1282 135.169 89.6115C134.714 89.0824 134.08 88.8179 133.268 88.8179C132.444 88.8179 131.804 89.0947 131.349 89.6484C130.893 90.2021 130.666 91.0018 130.666 92.0476V92.1953C130.666 93.2534 130.9 94.0408 131.367 94.5576C131.847 95.0744 132.45 95.3327 133.176 95.3327ZM52.9804 105.724H55.4535V118.92H52.9804V105.724ZM58.4534 109.268H60.6865V110.799C60.9203 110.332 61.2956 109.926 61.8123 109.581C62.3414 109.237 63.0058 109.065 63.8055 109.065C64.2854 109.065 64.7283 109.138 65.1343 109.286C65.5404 109.434 65.891 109.661 66.1863 109.969C66.4816 110.264 66.7092 110.652 66.8692 111.132C67.0291 111.611 67.1091 112.184 67.1091 112.848V118.92H64.8759V113.051C64.8759 112.313 64.7222 111.778 64.4146 111.445C64.107 111.101 63.621 110.929 62.9566 110.929C62.3291 110.929 61.7939 111.125 61.3509 111.519C60.908 111.901 60.6865 112.473 60.6865 113.236V118.92H58.4534V109.268ZM70.1414 110.947H68.8311V109.268H70.1414V107.976C70.1414 106.905 70.4183 106.093 70.9719 105.54C71.5379 104.986 72.3438 104.709 73.3896 104.709C73.6603 104.709 73.8879 104.728 74.0725 104.764C74.257 104.789 74.4539 104.832 74.6631 104.894V106.628C74.5277 106.579 74.3739 106.542 74.2017 106.518C74.0417 106.481 73.8572 106.462 73.648 106.462C73.1928 106.462 72.8667 106.598 72.6699 106.868C72.473 107.127 72.3746 107.465 72.3746 107.883V109.268H74.5708V110.947H72.3746V118.92H70.1414V110.947ZM76.5125 109.268H78.7457V111.076C79.0533 110.461 79.447 109.987 79.9268 109.655C80.419 109.311 81.0711 109.132 81.8831 109.12V111.205C81.391 111.205 80.948 111.255 80.5543 111.353C80.1729 111.439 79.8469 111.587 79.5762 111.796C79.3055 112.005 79.0963 112.282 78.9487 112.627C78.8133 112.959 78.7457 113.383 78.7457 113.9V118.92H76.5125V109.268ZM86.2682 119.104C85.8253 119.104 85.407 119.049 85.0132 118.938C84.6195 118.828 84.275 118.662 83.9797 118.44C83.6967 118.206 83.4691 117.911 83.2969 117.554C83.1246 117.185 83.0385 116.748 83.0385 116.244C83.0385 115.678 83.1677 115.204 83.426 114.823C83.6844 114.429 84.0351 114.115 84.478 113.882C84.921 113.635 85.4439 113.457 86.0468 113.346C86.6496 113.236 87.2956 113.18 87.9846 113.18H89.1842V112.682C89.1842 112.03 89.055 111.544 88.7966 111.224C88.5506 110.904 88.0953 110.744 87.4309 110.744C86.8403 110.744 86.3974 110.879 86.1021 111.15C85.8191 111.408 85.6469 111.778 85.5854 112.257H83.426C83.4753 111.691 83.6168 111.212 83.8505 110.818C84.0843 110.412 84.3857 110.08 84.7549 109.821C85.124 109.563 85.5484 109.372 86.0283 109.249C86.5081 109.126 87.0188 109.065 87.5601 109.065C88.1015 109.065 88.6059 109.126 89.0735 109.249C89.541 109.36 89.947 109.557 90.2916 109.84C90.6484 110.11 90.9252 110.473 91.1221 110.929C91.3189 111.372 91.4173 111.925 91.4173 112.59V118.92H89.2211V117.739C88.9012 118.157 88.5137 118.489 88.0584 118.735C87.6032 118.981 87.0064 119.104 86.2682 119.104ZM86.8034 117.499C87.4924 117.499 88.0584 117.333 88.5014 117.001C88.9566 116.656 89.1842 116.17 89.1842 115.543V114.583H88.04C87.191 114.583 86.5143 114.7 86.0098 114.933C85.5054 115.155 85.2532 115.561 85.2532 116.152C85.2532 116.558 85.37 116.884 85.6038 117.13C85.8499 117.376 86.2498 117.499 86.8034 117.499ZM97.3526 119.104C96.0976 119.104 95.1194 118.834 94.4181 118.292C93.7291 117.739 93.36 116.945 93.3108 115.912H95.4147C95.4762 116.404 95.6423 116.785 95.913 117.056C96.196 117.327 96.6697 117.462 97.3341 117.462C97.937 117.462 98.3738 117.357 98.6445 117.148C98.9275 116.939 99.0689 116.631 99.0689 116.225C99.0689 115.832 98.9028 115.543 98.5706 115.358C98.2384 115.173 97.7155 115.02 97.0019 114.897C96.3621 114.798 95.8208 114.675 95.3778 114.527C94.9349 114.38 94.5719 114.189 94.2889 113.955C94.0183 113.722 93.8214 113.445 93.6984 113.125C93.5753 112.805 93.5138 112.417 93.5138 111.962C93.5138 111.482 93.6184 111.064 93.8275 110.707C94.0367 110.338 94.3074 110.037 94.6396 109.803C94.9841 109.557 95.3717 109.372 95.8023 109.249C96.2329 109.126 96.6759 109.065 97.1311 109.065C97.6233 109.065 98.0846 109.114 98.5153 109.212C98.9582 109.311 99.3458 109.477 99.678 109.711C100.01 109.932 100.281 110.233 100.49 110.615C100.712 110.984 100.853 111.439 100.915 111.981H98.8475C98.7491 111.538 98.5645 111.212 98.2938 111.002C98.0354 110.793 97.6479 110.689 97.1311 110.689C96.6513 110.689 96.276 110.793 96.0053 111.002C95.7346 111.212 95.5993 111.488 95.5993 111.833C95.5993 112.005 95.63 112.159 95.6916 112.294C95.7531 112.417 95.8577 112.528 96.0053 112.627C96.1653 112.713 96.3744 112.793 96.6328 112.866C96.8912 112.94 97.2111 113.008 97.5925 113.069C98.1585 113.156 98.6629 113.266 99.1059 113.402C99.5611 113.525 99.9425 113.697 100.25 113.918C100.558 114.128 100.791 114.404 100.951 114.749C101.124 115.081 101.21 115.506 101.21 116.022C101.21 117.007 100.878 117.77 100.213 118.311C99.5488 118.84 98.5953 119.104 97.3526 119.104ZM106.526 119.086C105.566 119.086 104.84 118.84 104.348 118.348C103.856 117.856 103.61 117.148 103.61 116.225V110.947H102.318V109.268H103.61V107.145H105.843V109.268H107.965V110.947H105.843V116.022C105.843 116.453 105.935 116.767 106.12 116.964C106.317 117.16 106.594 117.259 106.95 117.259C107.381 117.259 107.744 117.197 108.039 117.074V118.846C107.867 118.908 107.658 118.963 107.412 119.012C107.166 119.061 106.87 119.086 106.526 119.086ZM110.126 109.268H112.359V111.076C112.666 110.461 113.06 109.987 113.54 109.655C114.032 109.311 114.684 109.132 115.496 109.12V111.205C115.004 111.205 114.561 111.255 114.167 111.353C113.786 111.439 113.46 111.587 113.189 111.796C112.919 112.005 112.709 112.282 112.562 112.627C112.426 112.959 112.359 113.383 112.359 113.9V118.92H110.126V109.268ZM120.763 119.104C120.283 119.104 119.84 119.037 119.434 118.901C119.028 118.754 118.677 118.532 118.382 118.237C118.087 117.942 117.853 117.567 117.681 117.111C117.521 116.644 117.441 116.09 117.441 115.45V109.268H119.674V115.192C119.674 115.93 119.828 116.471 120.135 116.816C120.443 117.148 120.923 117.314 121.575 117.314C121.87 117.314 122.153 117.265 122.424 117.167C122.707 117.068 122.947 116.927 123.144 116.742C123.353 116.545 123.519 116.305 123.642 116.022C123.765 115.727 123.826 115.389 123.826 115.007V109.268H126.06V118.92H123.826V117.407C123.58 117.874 123.205 118.274 122.701 118.606C122.196 118.938 121.55 119.104 120.763 119.104ZM133.006 119.104C132.317 119.104 131.671 118.994 131.068 118.772C130.477 118.551 129.961 118.231 129.518 117.813C129.087 117.394 128.749 116.884 128.503 116.281C128.257 115.678 128.134 114.989 128.134 114.214V114.066C128.134 113.303 128.257 112.614 128.503 111.999C128.761 111.384 129.112 110.861 129.555 110.43C129.998 109.987 130.514 109.649 131.105 109.415C131.696 109.181 132.329 109.065 133.006 109.065C133.535 109.065 134.052 109.132 134.556 109.268C135.061 109.391 135.51 109.594 135.903 109.877C136.309 110.16 136.648 110.535 136.918 111.002C137.189 111.458 137.355 112.018 137.417 112.682H135.257C135.159 112.03 134.913 111.562 134.519 111.279C134.126 110.996 133.633 110.855 133.043 110.855C132.661 110.855 132.311 110.929 131.991 111.076C131.671 111.212 131.394 111.421 131.16 111.704C130.927 111.974 130.742 112.307 130.607 112.7C130.484 113.094 130.422 113.537 130.422 114.029V114.177C130.422 115.235 130.662 116.035 131.142 116.576C131.622 117.117 132.274 117.388 133.098 117.388C133.393 117.388 133.67 117.345 133.929 117.259C134.199 117.173 134.439 117.044 134.648 116.871C134.858 116.699 135.03 116.484 135.165 116.225C135.301 115.967 135.387 115.666 135.424 115.321H137.472C137.435 115.875 137.3 116.385 137.066 116.853C136.845 117.308 136.543 117.708 136.162 118.053C135.78 118.385 135.319 118.643 134.778 118.828C134.249 119.012 133.658 119.104 133.006 119.104ZM142.752 119.086C141.793 119.086 141.067 118.84 140.575 118.348C140.082 117.856 139.836 117.148 139.836 116.225V110.947H138.544V109.268H139.836V107.145H142.069V109.268H144.192V110.947H142.069V116.022C142.069 116.453 142.162 116.767 142.346 116.964C142.543 117.16 142.82 117.259 143.177 117.259C143.607 117.259 143.97 117.197 144.266 117.074V118.846C144.093 118.908 143.884 118.963 143.638 119.012C143.392 119.061 143.097 119.086 142.752 119.086ZM149.582 119.104C149.102 119.104 148.659 119.037 148.253 118.901C147.847 118.754 147.496 118.532 147.201 118.237C146.906 117.942 146.672 117.567 146.5 117.111C146.34 116.644 146.26 116.09 146.26 115.45V109.268H148.493V115.192C148.493 115.93 148.647 116.471 148.954 116.816C149.262 117.148 149.742 117.314 150.394 117.314C150.689 117.314 150.972 117.265 151.243 117.167C151.526 117.068 151.766 116.927 151.963 116.742C152.172 116.545 152.338 116.305 152.461 116.022C152.584 115.727 152.645 115.389 152.645 115.007V109.268H154.879V118.92H152.645V117.407C152.399 117.874 152.024 118.274 151.52 118.606C151.015 118.938 150.369 119.104 149.582 119.104ZM157.598 109.268H159.832V111.076C160.139 110.461 160.533 109.987 161.013 109.655C161.505 109.311 162.157 109.132 162.969 109.12V111.205C162.477 111.205 162.034 111.255 161.64 111.353C161.259 111.439 160.933 111.587 160.662 111.796C160.391 112.005 160.182 112.282 160.035 112.627C159.899 112.959 159.832 113.383 159.832 113.9V118.92H157.598V109.268ZM169.071 119.104C168.357 119.104 167.699 118.994 167.096 118.772C166.505 118.539 165.988 118.212 165.546 117.794C165.115 117.363 164.777 116.847 164.53 116.244C164.297 115.641 164.18 114.958 164.18 114.195V114.048C164.18 113.297 164.297 112.62 164.53 112.018C164.777 111.402 165.115 110.879 165.546 110.449C165.976 110.006 166.481 109.667 167.059 109.434C167.649 109.188 168.289 109.065 168.978 109.065C169.581 109.065 170.153 109.157 170.695 109.341C171.248 109.526 171.734 109.815 172.153 110.209C172.571 110.603 172.903 111.107 173.149 111.722C173.408 112.337 173.537 113.076 173.537 113.937V114.583H166.468C166.505 115.506 166.745 116.213 167.188 116.705C167.643 117.197 168.289 117.443 169.126 117.443C169.803 117.443 170.319 117.314 170.676 117.056C171.033 116.798 171.254 116.435 171.341 115.967H173.5C173.34 116.988 172.872 117.77 172.097 118.311C171.322 118.84 170.313 119.104 169.071 119.104ZM171.322 113.088C171.261 112.251 171.027 111.642 170.621 111.261C170.227 110.879 169.68 110.689 168.978 110.689C168.302 110.689 167.748 110.904 167.317 111.335C166.887 111.753 166.616 112.337 166.505 113.088H171.322Z" fill="white"/>
</svg>
