<svg width="23" height="23" viewBox="0 0 23 23" fill="none" xmlns="http://www.w3.org/2000/svg">
<path d="M17.1973 20.3901C17.5359 20.3901 17.8745 20.0938 17.8745 19.7129L17.8745 7.5239L14.4886 7.5239C13.7268 7.5239 13.1343 6.93138 13.1343 6.16957L13.1343 2.78374L6.36264 2.78374C5.98174 2.78374 5.68548 3.12232 5.68548 3.4609L5.68547 19.7129C5.68547 20.0938 5.98173 20.3901 6.36264 20.3901L17.1973 20.3901ZM3.65398 3.4609C3.65398 1.9796 4.83902 0.752239 6.36264 0.752239L13.3459 0.75224C14.0654 0.75224 14.7426 1.0485 15.2504 1.55638L19.1018 5.40776C19.6097 5.91563 19.906 6.5928 19.906 7.31229L19.906 19.7129C19.906 21.2365 18.6786 22.4216 17.1973 22.4216L6.36264 22.4216C4.83901 22.4216 3.65397 21.2365 3.65397 19.7129L3.65398 3.4609Z" fill="#D894FF"/>
</svg>
