<svg width="83" height="79" viewBox="0 0 83 79" fill="none" xmlns="http://www.w3.org/2000/svg">
<path d="M41.1979 7.7533C29.7141 7.75329 19.3022 13.878 13.4838 23.6774C7.81843 33.63 7.81843 45.7263 13.4837 55.5257C19.3022 65.4783 29.7141 71.4499 41.1979 71.4499C52.5285 71.4499 62.9405 65.4783 68.7589 55.5257C74.4242 45.7263 74.4242 33.63 68.7589 23.6774C62.9405 13.878 52.5285 7.7533 41.1979 7.7533ZM41.1979 78.7995C27.1111 78.7995 14.2493 71.4499 7.20596 59.2005C0.162591 47.1043 0.162593 32.252 7.20597 20.0026C14.2493 7.90641 27.1112 0.403688 41.1979 0.40369C55.1315 0.403693 67.9933 7.90642 75.0367 20.0026C82.0801 32.252 82.0801 47.1043 75.0367 59.2005C67.9933 71.4499 55.1315 78.7995 41.1979 78.7995ZM58.5001 32.4051L38.9011 52.004C37.37 53.5352 35.0732 53.5352 33.6952 52.004L23.8957 42.2046C22.3645 40.8265 22.3645 38.5298 23.8957 37.1517C25.2737 35.6205 27.5705 35.6205 29.1017 37.1517L36.2982 44.3482L53.2941 27.3522C54.6722 25.8211 56.9689 25.8211 58.5001 27.3522C59.8781 28.7303 59.8781 31.027 58.5001 32.4051Z" fill="#D894FF"/>
</svg>
