<svg width="244" height="245" viewBox="0 0 244 245" fill="none" xmlns="http://www.w3.org/2000/svg">
<path d="M96.4962 44.1025C97.8983 44.1025 99.3003 45.5046 99.3003 46.9067C99.3003 48.6593 97.8982 49.7109 96.4962 49.7109L48.8251 49.7109L48.8251 97.3819C48.8251 99.1346 47.423 100.186 46.0209 100.186C44.2683 100.186 43.2167 99.1346 43.2167 97.3819L43.2167 46.9067C43.2167 45.5046 44.2683 44.1025 46.0209 44.1025L96.4962 44.1025ZM43.2167 147.857C43.2167 146.455 44.2683 145.053 46.0209 145.053C47.423 145.053 48.8251 146.455 48.8251 147.857L48.8251 195.528L96.4961 195.528C97.8982 195.528 99.3003 196.93 99.3003 198.332C99.3003 200.085 97.8982 201.137 96.4961 201.137L46.0209 201.137C44.2683 201.137 43.2167 200.085 43.2167 198.332L43.2167 147.857ZM146.971 44.1025L197.447 44.1025C198.849 44.1025 200.251 45.5046 200.251 46.9067L200.251 97.382C200.251 99.1346 198.849 100.186 197.447 100.186C195.694 100.186 194.642 99.1346 194.642 97.382L194.642 49.7109L146.971 49.7109C145.219 49.7109 144.167 48.6593 144.167 46.9067C144.167 45.5046 145.219 44.1025 146.971 44.1025ZM200.251 147.857L200.251 198.332C200.251 200.085 198.849 201.137 197.447 201.137L146.971 201.137C145.219 201.137 144.167 200.085 144.167 198.332C144.167 196.93 145.219 195.528 146.971 195.528L194.642 195.528L194.642 147.857C194.642 146.455 195.694 145.053 197.447 145.053C198.849 145.053 200.251 146.455 200.251 147.857Z" fill="white"/>
<mask id="mask0_265_3247" style="mask-type:alpha" maskUnits="userSpaceOnUse" x="23" y="32" width="197" height="179">
<rect x="23.2812" y="32.9199" width="196.289" height="177.098" fill="black"/>
</mask>
<g mask="url(#mask0_265_3247)">
<path d="M122.575 85.0073C121.902 84.6709 121.398 84.6709 120.725 85.0073L86.0732 97.6232L121.734 111.585L157.227 97.6232L122.575 85.0073ZM84.0546 143.881C84.0546 145.059 84.7275 146.068 85.7368 146.405L119.043 158.684L119.043 116.295L84.0546 102.67L84.0546 143.881ZM124.425 158.684L157.563 146.405C158.572 146.068 159.414 145.059 159.414 143.881L159.414 102.67L124.425 116.295L124.425 158.516L124.425 158.684ZM118.874 79.7928C120.725 79.2881 122.575 79.2881 124.425 79.7928L159.414 92.7451C162.61 93.9225 164.796 96.9504 164.796 100.315L164.796 143.881C164.796 147.246 162.61 150.273 159.413 151.451L124.425 164.235C122.575 164.908 120.725 164.908 118.874 164.235L83.8864 151.451C80.6904 150.273 78.6719 147.246 78.6719 143.881L78.6719 100.315C78.6719 96.9503 80.6904 93.9225 83.8864 92.745L118.874 79.7928Z" fill="white"/>
</g>
<path d="M27.3125 32.9199H214.391" stroke="white" stroke-width="6" stroke-linecap="round"/>
</svg>
