<svg width="23" height="23" viewBox="0 0 23 23" fill="none" xmlns="http://www.w3.org/2000/svg">
<path d="M19.906 4.13807L3.65398 4.13807C3.27307 4.13807 2.97681 4.47665 2.97681 4.81524L2.97681 18.3586L2.97681 18.4009L3.1461 18.1469L6.53193 13.4068C6.74355 13.1105 7.03981 12.9412 7.37839 12.9412C7.67465 12.9412 8.01323 13.1105 8.18252 13.3645L9.49453 15.1843L13.0073 10.6558C13.1766 10.4019 13.4729 10.2326 13.8115 10.2326C14.1077 10.2326 14.404 10.4019 14.6156 10.6558L20.3715 18.1046L20.5831 18.3586L20.5831 4.81524C20.5831 4.47666 20.2445 4.13807 19.906 4.13807ZM3.65398 2.10657L19.906 2.10657C21.3873 2.10657 22.6146 3.33394 22.6146 4.81524L22.6146 18.3586C22.6146 19.8822 21.3873 21.0672 19.906 21.0672L3.65397 21.0672C2.13035 21.0672 0.945309 19.8822 0.945309 18.3586L0.945312 4.81524C0.945312 3.33393 2.13035 2.10657 3.65398 2.10657ZM7.03981 10.2326C6.27799 10.2326 5.64315 9.85166 5.26225 9.21682C4.88134 8.6243 4.88134 7.82016 5.26225 7.18532C5.64315 6.5928 6.278 6.16957 7.03981 6.16957C7.7593 6.16957 8.39414 6.5928 8.77505 7.18532C9.15595 7.82016 9.15595 8.6243 8.77504 9.21682C8.39414 9.85166 7.7593 10.2326 7.03981 10.2326Z" fill="#D894FF"/>
</svg>
