<svg width="407" height="301" viewBox="0 0 407 301" fill="none" xmlns="http://www.w3.org/2000/svg">
<path d="M87.1708 25.5483H89.6254V36.7878H95.2544V38.7441H87.1708V25.5483ZM101.362 37.1939C102.198 37.1939 102.851 36.9109 103.318 36.3449C103.786 35.7666 104.019 34.9792 104.019 33.9826V33.8534C104.019 32.8568 103.786 32.0755 103.318 31.5095C102.851 30.9312 102.198 30.6421 101.362 30.6421C100.525 30.6421 99.8668 30.9251 99.387 31.4911C98.9195 32.057 98.6857 32.8383 98.6857 33.8349V33.9826C98.6857 34.9792 98.9195 35.7666 99.387 36.3449C99.8545 36.9109 100.513 37.1939 101.362 37.1939ZM101.343 38.9287C100.63 38.9287 99.9714 38.8118 99.3685 38.578C98.7657 38.3443 98.2428 38.0121 97.7998 37.5814C97.3569 37.1508 97.0124 36.634 96.7663 36.0312C96.5202 35.4283 96.3972 34.7577 96.3972 34.0195V33.8718C96.3972 33.1213 96.5202 32.4446 96.7663 31.8417C97.0247 31.2265 97.3753 30.7036 97.8183 30.273C98.2612 29.8301 98.7841 29.4917 99.387 29.2579C99.9899 29.0119 100.648 28.8888 101.362 28.8888C102.063 28.8888 102.715 29.0057 103.318 29.2395C103.921 29.4732 104.444 29.8116 104.887 30.2545C105.33 30.6852 105.674 31.2019 105.92 31.8048C106.179 32.4077 106.308 33.0783 106.308 33.8165V33.9641C106.308 34.7147 106.179 35.3975 105.92 36.0127C105.674 36.6156 105.33 37.1385 104.887 37.5814C104.444 38.0121 103.921 38.3443 103.318 38.578C102.715 38.8118 102.057 38.9287 101.343 38.9287ZM112.716 37.1939C113.553 37.1939 114.205 36.9109 114.673 36.3449C115.14 35.7666 115.374 34.9792 115.374 33.9826V33.8534C115.374 32.8568 115.14 32.0755 114.673 31.5095C114.205 30.9312 113.553 30.6421 112.716 30.6421C111.88 30.6421 111.221 30.9251 110.742 31.4911C110.274 32.057 110.04 32.8383 110.04 33.8349V33.9826C110.04 34.9792 110.274 35.7666 110.742 36.3449C111.209 36.9109 111.867 37.1939 112.716 37.1939ZM112.698 38.9287C111.984 38.9287 111.326 38.8118 110.723 38.578C110.12 38.3443 109.597 38.0121 109.154 37.5814C108.711 37.1508 108.367 36.634 108.121 36.0312C107.875 35.4283 107.752 34.7577 107.752 34.0195V33.8718C107.752 33.1213 107.875 32.4446 108.121 31.8417C108.379 31.2265 108.73 30.7036 109.173 30.273C109.616 29.8301 110.139 29.4917 110.742 29.2579C111.344 29.0119 112.003 28.8888 112.716 28.8888C113.418 28.8888 114.07 29.0057 114.673 29.2395C115.275 29.4732 115.798 29.8116 116.241 30.2545C116.684 30.6852 117.029 31.2019 117.275 31.8048C117.533 32.4077 117.662 33.0783 117.662 33.8165V33.9641C117.662 34.7147 117.533 35.3975 117.275 36.0127C117.029 36.6156 116.684 37.1385 116.241 37.5814C115.798 38.0121 115.275 38.3443 114.673 38.578C114.07 38.8118 113.411 38.9287 112.698 38.9287ZM119.752 24.6256H121.985V33.3366L125.437 29.0918H127.873L124.126 33.5212L128.186 38.7441H125.603L121.985 34.001V38.7441H119.752V24.6256ZM129.846 29.0918H132.08V38.7441H129.846V29.0918ZM130.935 27.5046C130.566 27.5046 130.253 27.3816 129.994 27.1355C129.736 26.8895 129.607 26.588 129.607 26.2312C129.607 25.8621 129.736 25.5545 129.994 25.3084C130.253 25.0623 130.566 24.9393 130.935 24.9393C131.304 24.9393 131.618 25.0623 131.877 25.3084C132.135 25.5545 132.264 25.8621 132.264 26.2312C132.264 26.588 132.135 26.8895 131.877 27.1355C131.618 27.3816 131.304 27.5046 130.935 27.5046ZM134.874 29.0918H137.107V30.6237C137.341 30.1561 137.716 29.7501 138.233 29.4056C138.762 29.0611 139.426 28.8888 140.226 28.8888C140.706 28.8888 141.149 28.9626 141.555 29.1103C141.961 29.2579 142.311 29.4856 142.607 29.7931C142.902 30.0884 143.129 30.476 143.289 30.9559C143.449 31.4357 143.529 32.0078 143.529 32.6722V38.7441H141.296V32.8752C141.296 32.137 141.142 31.6018 140.835 31.2696C140.527 30.9251 140.041 30.7528 139.377 30.7528C138.749 30.7528 138.214 30.9497 137.771 31.3434C137.328 31.7248 137.107 32.297 137.107 33.0598V38.7441H134.874V29.0918ZM150.29 42.2876C149.527 42.2876 148.869 42.2077 148.315 42.0477C147.761 41.8878 147.294 41.6601 146.912 41.3648C146.543 41.0819 146.254 40.7435 146.045 40.3498C145.836 39.9684 145.7 39.5439 145.639 39.0763H147.89C147.989 39.5562 148.223 39.9253 148.592 40.1837C148.973 40.4544 149.533 40.5897 150.271 40.5897C151.145 40.5897 151.809 40.3744 152.264 39.9438C152.732 39.5131 152.966 38.861 152.966 37.9875V36.5664C152.83 36.8001 152.658 37.0278 152.449 37.2492C152.24 37.4584 151.994 37.6491 151.711 37.8214C151.44 37.9813 151.145 38.1105 150.825 38.2089C150.505 38.3074 150.167 38.3566 149.81 38.3566C149.207 38.3566 148.641 38.252 148.112 38.0428C147.595 37.8214 147.146 37.5138 146.765 37.12C146.383 36.714 146.082 36.228 145.86 35.662C145.639 35.0961 145.528 34.4624 145.528 33.7611V33.6319C145.528 32.9552 145.633 32.3277 145.842 31.7494C146.063 31.1712 146.365 30.6729 146.746 30.2545C147.14 29.8239 147.601 29.4917 148.13 29.2579C148.659 29.0119 149.238 28.8888 149.865 28.8888C150.665 28.8888 151.311 29.0488 151.803 29.3687C152.295 29.6886 152.683 30.0884 152.966 30.5683V29.0918H155.199V38.0244C155.187 39.4516 154.738 40.5159 153.852 41.2172C152.978 41.9308 151.791 42.2876 150.29 42.2876ZM150.364 36.6402C151.139 36.6402 151.778 36.3818 152.283 35.8651C152.787 35.336 153.04 34.6101 153.04 33.6873V33.5581C153.04 32.6353 152.806 31.9217 152.338 31.4172C151.883 30.9005 151.249 30.6421 150.437 30.6421C149.601 30.6421 148.955 30.9128 148.5 31.4542C148.044 31.9955 147.817 32.7091 147.817 33.595V33.7427C147.817 34.1856 147.878 34.5916 148.001 34.9607C148.137 35.3175 148.315 35.619 148.536 35.8651C148.77 36.1111 149.041 36.3018 149.348 36.4372C149.668 36.5725 150.007 36.6402 150.364 36.6402ZM162.782 30.7713H161.472V29.0918H162.782V27.7999C162.782 26.7295 163.059 25.9175 163.613 25.3638C164.179 24.8101 164.985 24.5333 166.031 24.5333C166.301 24.5333 166.529 24.5517 166.714 24.5887C166.898 24.6133 167.095 24.6563 167.304 24.7178V26.4527C167.169 26.4035 167.015 26.3665 166.843 26.3419C166.683 26.305 166.498 26.2866 166.289 26.2866C165.834 26.2866 165.508 26.4219 165.311 26.6926C165.114 26.951 165.016 27.2893 165.016 27.7077V29.0918H167.212V30.7713H165.016V38.7441H162.782V30.7713ZM173.112 37.1939C173.948 37.1939 174.6 36.9109 175.068 36.3449C175.536 35.7666 175.769 34.9792 175.769 33.9826V33.8534C175.769 32.8568 175.536 32.0755 175.068 31.5095C174.6 30.9312 173.948 30.6421 173.112 30.6421C172.275 30.6421 171.617 30.9251 171.137 31.4911C170.669 32.057 170.436 32.8383 170.436 33.8349V33.9826C170.436 34.9792 170.669 35.7666 171.137 36.3449C171.605 36.9109 172.263 37.1939 173.112 37.1939ZM173.093 38.9287C172.38 38.9287 171.721 38.8118 171.119 38.578C170.516 38.3443 169.993 38.0121 169.55 37.5814C169.107 37.1508 168.762 36.634 168.516 36.0312C168.27 35.4283 168.147 34.7577 168.147 34.0195V33.8718C168.147 33.1213 168.27 32.4446 168.516 31.8417C168.775 31.2265 169.125 30.7036 169.568 30.273C170.011 29.8301 170.534 29.4917 171.137 29.2579C171.74 29.0119 172.398 28.8888 173.112 28.8888C173.813 28.8888 174.465 29.0057 175.068 29.2395C175.671 29.4732 176.194 29.8116 176.637 30.2545C177.08 30.6852 177.424 31.2019 177.67 31.8048C177.929 32.4077 178.058 33.0783 178.058 33.8165V33.9641C178.058 34.7147 177.929 35.3975 177.67 36.0127C177.424 36.6156 177.08 37.1385 176.637 37.5814C176.194 38.0121 175.671 38.3443 175.068 38.578C174.465 38.8118 173.807 38.9287 173.093 38.9287ZM180.148 29.0918H182.381V30.9005C182.688 30.2853 183.082 29.8116 183.562 29.4794C184.054 29.1349 184.706 28.9565 185.518 28.9442V31.0297C185.026 31.0297 184.583 31.0789 184.189 31.1773C183.808 31.2634 183.482 31.4111 183.211 31.6203C182.941 31.8294 182.731 32.1063 182.584 32.4508C182.448 32.783 182.381 33.2074 182.381 33.7242V38.7441H180.148V29.0918ZM192.025 29.0918H194.258V30.6421C194.393 30.4083 194.566 30.1869 194.775 29.9777C194.984 29.7685 195.224 29.584 195.495 29.424C195.778 29.2641 196.079 29.1349 196.399 29.0365C196.719 28.938 197.057 28.8888 197.414 28.8888C198.017 28.8888 198.577 28.9996 199.093 29.221C199.622 29.4425 200.078 29.7624 200.459 30.1807C200.841 30.599 201.142 31.1158 201.363 31.731C201.585 32.3339 201.696 33.0229 201.696 33.798V33.9457C201.696 34.7208 201.585 35.416 201.363 36.0312C201.154 36.6463 200.859 37.1693 200.478 37.5999C200.108 38.0305 199.659 38.3627 199.13 38.5965C198.614 38.818 198.041 38.9287 197.414 38.9287C196.639 38.9287 195.981 38.7626 195.439 38.4304C194.91 38.0982 194.516 37.6983 194.258 37.2308V42.0477H192.025V29.0918ZM196.86 37.157C197.685 37.157 198.312 36.8924 198.743 36.3634C199.186 35.822 199.407 35.0284 199.407 33.9826V33.8349C199.407 33.3059 199.339 32.8445 199.204 32.4508C199.081 32.0447 198.903 31.7064 198.669 31.4357C198.435 31.165 198.164 30.9682 197.857 30.8451C197.549 30.7098 197.211 30.6421 196.842 30.6421C196.067 30.6421 195.427 30.9066 194.922 31.4357C194.43 31.9525 194.184 32.7522 194.184 33.8349V33.9826C194.184 35.0653 194.424 35.8651 194.904 36.3818C195.396 36.8986 196.048 37.157 196.86 37.157ZM206.304 38.9287C205.861 38.9287 205.443 38.8733 205.049 38.7626C204.656 38.6519 204.311 38.4858 204.016 38.2643C203.733 38.0305 203.505 37.7352 203.333 37.3784C203.161 37.0093 203.075 36.5725 203.075 36.0681C203.075 35.5021 203.204 35.0284 203.462 34.647C203.721 34.2533 204.071 33.9395 204.514 33.7057C204.957 33.4597 205.48 33.2813 206.083 33.1705C206.686 33.0598 207.332 33.0044 208.021 33.0044H209.22V32.5061C209.22 31.854 209.091 31.368 208.833 31.0481C208.587 30.7282 208.131 30.5683 207.467 30.5683C206.877 30.5683 206.434 30.7036 206.138 30.9743C205.855 31.2327 205.683 31.6018 205.622 32.0816H203.462C203.511 31.5157 203.653 31.0358 203.887 30.6421C204.12 30.2361 204.422 29.9039 204.791 29.6455C205.16 29.3871 205.585 29.1964 206.064 29.0734C206.544 28.9503 207.055 28.8888 207.596 28.8888C208.138 28.8888 208.642 28.9503 209.11 29.0734C209.577 29.1841 209.983 29.381 210.328 29.664C210.685 29.9346 210.961 30.2976 211.158 30.7528C211.355 31.1958 211.454 31.7494 211.454 32.4138V38.7441H209.257V37.563C208.937 37.9813 208.55 38.3135 208.095 38.5596C207.639 38.8057 207.043 38.9287 206.304 38.9287ZM206.84 37.3231C207.529 37.3231 208.095 37.157 208.538 36.8248C208.993 36.4802 209.22 35.9942 209.22 35.3668V34.4071H208.076C207.227 34.4071 206.55 34.5239 206.046 34.7577C205.542 34.9792 205.289 35.3852 205.289 35.9758C205.289 36.3818 205.406 36.7079 205.64 36.9539C205.886 37.2 206.286 37.3231 206.84 37.3231ZM214.085 29.0918H216.318V30.9005C216.626 30.2853 217.02 29.8116 217.499 29.4794C217.992 29.1349 218.644 28.9565 219.456 28.9442V31.0297C218.964 31.0297 218.521 31.0789 218.127 31.1773C217.746 31.2634 217.419 31.4111 217.149 31.6203C216.878 31.8294 216.669 32.1063 216.521 32.4508C216.386 32.783 216.318 33.2074 216.318 33.7242V38.7441H214.085V29.0918ZM224.868 38.9102C223.908 38.9102 223.182 38.6642 222.69 38.172C222.198 37.6799 221.952 36.9724 221.952 36.0496V30.7713H220.66V29.0918H221.952V26.9694H224.185V29.0918H226.307V30.7713H224.185V35.8466C224.185 36.2772 224.277 36.591 224.462 36.7878C224.659 36.9847 224.936 37.0831 225.292 37.0831C225.723 37.0831 226.086 37.0216 226.381 36.8986V38.6703C226.209 38.7318 226 38.7872 225.754 38.8364C225.508 38.8856 225.212 38.9102 224.868 38.9102ZM228.468 29.0918H230.701V30.6237C230.935 30.1561 231.31 29.7501 231.827 29.4056C232.356 29.0611 233.02 28.8888 233.82 28.8888C234.3 28.8888 234.743 28.9626 235.149 29.1103C235.555 29.2579 235.905 29.4856 236.201 29.7931C236.496 30.0884 236.723 30.476 236.883 30.9559C237.043 31.4357 237.123 32.0078 237.123 32.6722V38.7441H234.89V32.8752C234.89 32.137 234.736 31.6018 234.429 31.2696C234.121 30.9251 233.635 30.7528 232.971 30.7528C232.343 30.7528 231.808 30.9497 231.365 31.3434C230.922 31.7248 230.701 32.297 230.701 33.0598V38.7441H228.468V29.0918ZM242.297 38.9287C241.854 38.9287 241.435 38.8733 241.042 38.7626C240.648 38.6519 240.303 38.4858 240.008 38.2643C239.725 38.0305 239.497 37.7352 239.325 37.3784C239.153 37.0093 239.067 36.5725 239.067 36.0681C239.067 35.5021 239.196 35.0284 239.454 34.647C239.713 34.2533 240.063 33.9395 240.506 33.7057C240.949 33.4597 241.472 33.2813 242.075 33.1705C242.678 33.0598 243.324 33.0044 244.013 33.0044H245.212V32.5061C245.212 31.854 245.083 31.368 244.825 31.0481C244.579 30.7282 244.124 30.5683 243.459 30.5683C242.869 30.5683 242.426 30.7036 242.13 30.9743C241.847 31.2327 241.675 31.6018 241.614 32.0816H239.454C239.504 31.5157 239.645 31.0358 239.879 30.6421C240.113 30.2361 240.414 29.9039 240.783 29.6455C241.152 29.3871 241.577 29.1964 242.057 29.0734C242.536 28.9503 243.047 28.8888 243.588 28.8888C244.13 28.8888 244.634 28.9503 245.102 29.0734C245.569 29.1841 245.975 29.381 246.32 29.664C246.677 29.9346 246.953 30.2976 247.15 30.7528C247.347 31.1958 247.446 31.7494 247.446 32.4138V38.7441H245.249V37.563C244.93 37.9813 244.542 38.3135 244.087 38.5596C243.631 38.8057 243.035 38.9287 242.297 38.9287ZM242.832 37.3231C243.521 37.3231 244.087 37.157 244.53 36.8248C244.985 36.4802 245.212 35.9942 245.212 35.3668V34.4071H244.068C243.219 34.4071 242.543 34.5239 242.038 34.7577C241.534 34.9792 241.281 35.3852 241.281 35.9758C241.281 36.3818 241.398 36.7079 241.632 36.9539C241.878 37.2 242.278 37.3231 242.832 37.3231ZM250.077 29.0918H252.31V30.5683C252.544 30.113 252.913 29.7193 253.418 29.3871C253.922 29.0549 254.531 28.8888 255.245 28.8888C255.872 28.8888 256.42 29.0303 256.887 29.3133C257.367 29.584 257.73 30.0208 257.976 30.6237C258.345 30.0208 258.831 29.584 259.434 29.3133C260.037 29.0303 260.64 28.8888 261.243 28.8888C261.686 28.8888 262.098 28.9626 262.48 29.1103C262.873 29.2456 263.218 29.4671 263.513 29.7747C263.808 30.07 264.036 30.4576 264.196 30.9374C264.368 31.4049 264.454 31.9709 264.454 32.6353V38.7441H262.221V32.783C262.221 32.0693 262.073 31.5526 261.778 31.2327C261.483 30.9128 261.058 30.7528 260.505 30.7528C260.222 30.7528 259.951 30.8021 259.693 30.9005C259.447 30.9866 259.225 31.122 259.028 31.3065C258.831 31.4911 258.671 31.7248 258.548 32.0078C258.438 32.2785 258.382 32.5984 258.382 32.9675V38.7441H256.149V32.783C256.149 32.0693 256.002 31.5526 255.706 31.2327C255.411 30.9128 254.987 30.7528 254.433 30.7528C254.15 30.7528 253.879 30.8021 253.621 30.9005C253.375 30.9866 253.153 31.122 252.956 31.3065C252.76 31.4911 252.6 31.7248 252.477 32.0078C252.366 32.2785 252.31 32.5984 252.31 32.9675V38.7441H250.077V29.0918ZM271.336 38.9287C270.622 38.9287 269.964 38.818 269.361 38.5965C268.771 38.3627 268.254 38.0367 267.811 37.6183C267.38 37.1877 267.042 36.671 266.796 36.0681C266.562 35.4652 266.445 34.7823 266.445 34.0195V33.8718C266.445 33.1213 266.562 32.4446 266.796 31.8417C267.042 31.2265 267.38 30.7036 267.811 30.273C268.242 29.8301 268.746 29.4917 269.324 29.2579C269.915 29.0119 270.555 28.8888 271.244 28.8888C271.847 28.8888 272.419 28.9811 272.96 29.1657C273.514 29.3502 274 29.6393 274.418 30.0331C274.836 30.4268 275.169 30.9312 275.415 31.5464C275.673 32.1616 275.802 32.8998 275.802 33.7611V34.4071H268.734C268.771 35.3298 269.01 36.0373 269.453 36.5295C269.909 37.0216 270.555 37.2677 271.391 37.2677C272.068 37.2677 272.585 37.1385 272.942 36.8801C273.298 36.6217 273.52 36.2588 273.606 35.7912H275.765C275.605 36.8124 275.138 37.5937 274.363 38.1351C273.587 38.6642 272.579 38.9287 271.336 38.9287ZM273.587 32.9122C273.526 32.0755 273.292 31.4665 272.886 31.085C272.492 30.7036 271.945 30.5129 271.244 30.5129C270.567 30.5129 270.013 30.7282 269.583 31.1589C269.152 31.5772 268.881 32.1616 268.771 32.9122H273.587ZM285.956 38.9287C285.353 38.9287 284.793 38.8241 284.277 38.615C283.76 38.4058 283.311 38.0982 282.929 37.6922C282.548 37.2738 282.246 36.7632 282.025 36.1603C281.816 35.5575 281.711 34.8623 281.711 34.0749V33.9272C281.711 33.1521 281.816 32.4569 282.025 31.8417C282.246 31.2142 282.548 30.6852 282.929 30.2545C283.323 29.8116 283.784 29.4732 284.313 29.2395C284.842 29.0057 285.421 28.8888 286.048 28.8888C286.836 28.8888 287.475 29.0488 287.968 29.3687C288.472 29.6886 288.86 30.0884 289.13 30.5683V24.6256H291.363V38.7441H289.13V37.12C288.995 37.3661 288.823 37.5999 288.614 37.8214C288.404 38.0305 288.158 38.2212 287.875 38.3935C287.605 38.5534 287.303 38.6826 286.971 38.7811C286.651 38.8795 286.313 38.9287 285.956 38.9287ZM286.51 37.157C287.285 37.157 287.925 36.8986 288.429 36.3818C288.946 35.8528 289.204 35.0469 289.204 33.9641V33.8165C289.204 32.7461 288.97 31.9525 288.503 31.4357C288.048 30.9066 287.414 30.6421 286.602 30.6421C285.778 30.6421 285.138 30.9189 284.683 31.4726C284.227 32.0263 284 32.826 284 33.8718V34.0195C284 35.0776 284.233 35.8651 284.701 36.3818C285.181 36.8986 285.784 37.157 286.51 37.157ZM296.618 38.9287C296.175 38.9287 295.757 38.8733 295.363 38.7626C294.969 38.6519 294.625 38.4858 294.33 38.2643C294.047 38.0305 293.819 37.7352 293.647 37.3784C293.475 37.0093 293.388 36.5725 293.388 36.0681C293.388 35.5021 293.518 35.0284 293.776 34.647C294.034 34.2533 294.385 33.9395 294.828 33.7057C295.271 33.4597 295.794 33.2813 296.397 33.1705C297 33.0598 297.646 33.0044 298.335 33.0044H299.534V32.5061C299.534 31.854 299.405 31.368 299.147 31.0481C298.901 30.7282 298.445 30.5683 297.781 30.5683C297.19 30.5683 296.747 30.7036 296.452 30.9743C296.169 31.2327 295.997 31.6018 295.935 32.0816H293.776C293.825 31.5157 293.967 31.0358 294.2 30.6421C294.434 30.2361 294.736 29.9039 295.105 29.6455C295.474 29.3871 295.898 29.1964 296.378 29.0734C296.858 28.9503 297.369 28.8888 297.91 28.8888C298.451 28.8888 298.956 28.9503 299.423 29.0734C299.891 29.1841 300.297 29.381 300.641 29.664C300.998 29.9346 301.275 30.2976 301.472 30.7528C301.669 31.1958 301.767 31.7494 301.767 32.4138V38.7441H299.571V37.563C299.251 37.9813 298.864 38.3135 298.408 38.5596C297.953 38.8057 297.356 38.9287 296.618 38.9287ZM297.153 37.3231C297.842 37.3231 298.408 37.157 298.851 36.8248C299.307 36.4802 299.534 35.9942 299.534 35.3668V34.4071H298.39C297.541 34.4071 296.864 34.5239 296.36 34.7577C295.855 34.9792 295.603 35.3852 295.603 35.9758C295.603 36.3818 295.72 36.7079 295.954 36.9539C296.2 37.2 296.6 37.3231 297.153 37.3231ZM307.684 38.9102C306.724 38.9102 305.998 38.6642 305.506 38.172C305.014 37.6799 304.768 36.9724 304.768 36.0496V30.7713H303.476V29.0918H304.768V26.9694H307.001V29.0918H309.124V30.7713H307.001V35.8466C307.001 36.2772 307.093 36.591 307.278 36.7878C307.475 36.9847 307.752 37.0831 308.109 37.0831C308.539 37.0831 308.902 37.0216 309.197 36.8986V38.6703C309.025 38.7318 308.816 38.7872 308.57 38.8364C308.324 38.8856 308.029 38.9102 307.684 38.9102ZM313.902 38.9287C313.459 38.9287 313.041 38.8733 312.647 38.7626C312.254 38.6519 311.909 38.4858 311.614 38.2643C311.331 38.0305 311.103 37.7352 310.931 37.3784C310.759 37.0093 310.673 36.5725 310.673 36.0681C310.673 35.5021 310.802 35.0284 311.06 34.647C311.319 34.2533 311.669 33.9395 312.112 33.7057C312.555 33.4597 313.078 33.2813 313.681 33.1705C314.284 33.0598 314.93 33.0044 315.619 33.0044H316.818V32.5061C316.818 31.854 316.689 31.368 316.431 31.0481C316.185 30.7282 315.729 30.5683 315.065 30.5683C314.474 30.5683 314.031 30.7036 313.736 30.9743C313.453 31.2327 313.281 31.6018 313.219 32.0816H311.06C311.109 31.5157 311.251 31.0358 311.485 30.6421C311.718 30.2361 312.02 29.9039 312.389 29.6455C312.758 29.3871 313.183 29.1964 313.662 29.0734C314.142 28.9503 314.653 28.8888 315.194 28.8888C315.736 28.8888 316.24 28.9503 316.708 29.0734C317.175 29.1841 317.581 29.381 317.926 29.664C318.282 29.9346 318.559 30.2976 318.756 30.7528C318.953 31.1958 319.051 31.7494 319.051 32.4138V38.7441H316.855V37.563C316.535 37.9813 316.148 38.3135 315.693 38.5596C315.237 38.8057 314.641 38.9287 313.902 38.9287ZM314.438 37.3231C315.127 37.3231 315.693 37.157 316.135 36.8248C316.591 36.4802 316.818 35.9942 316.818 35.3668V34.4071H315.674C314.825 34.4071 314.148 34.5239 313.644 34.7577C313.139 34.9792 312.887 35.3852 312.887 35.9758C312.887 36.3818 313.004 36.7079 313.238 36.9539C313.484 37.2 313.884 37.3231 314.438 37.3231Z" fill="white"/>
<mask id="path-3-outside-1_265_3248" maskUnits="userSpaceOnUse" x="133.32" y="139.936" width="126" height="125" fill="black">
<rect fill="white" x="133.32" y="139.936" width="126" height="125"/>
<path d="M196.434 259.394C202.641 259.394 209.087 254.381 214.577 243.638C217.203 238.387 219.352 232.18 220.784 225.018L171.845 225.018C173.278 232.18 175.426 238.387 178.052 243.638C183.543 254.381 190.227 259.394 196.434 259.394ZM171.129 221.198L221.5 221.198C222.455 215.23 223.172 209.023 223.172 202.1C223.172 195.416 222.455 188.97 221.501 183.002L171.129 183.002C170.174 188.97 169.697 195.416 169.697 202.1C169.697 209.023 170.174 215.23 171.129 221.198ZM171.845 179.182L220.784 179.182C219.352 172.259 217.203 166.052 214.577 160.8C209.087 150.058 202.641 144.806 196.434 144.806C190.227 144.806 183.543 150.058 178.052 160.8C175.426 165.814 173.278 172.259 171.845 179.182ZM225.32 183.002C226.275 189.209 226.991 195.654 226.991 202.1C226.991 208.784 226.275 215.23 225.32 221.198L250.386 221.198C252.535 215.23 253.729 209.023 253.729 202.1C253.729 195.416 252.535 188.97 250.386 183.002L225.32 183.002ZM248.954 179.182C241.554 162.71 226.752 150.296 208.609 146.238C216.01 152.684 221.739 164.62 224.604 179.182L248.954 179.182ZM168.026 179.182C170.891 164.62 176.859 152.684 184.02 146.238C165.877 150.296 151.076 162.71 143.914 179.182L168.026 179.182ZM142.243 183.002C140.095 188.97 139.14 195.416 139.14 202.1C139.14 209.023 140.095 215.23 142.243 221.198L167.31 221.198C166.355 215.23 165.877 208.784 165.877 202.1C165.877 195.654 166.355 189.209 167.31 183.002L142.243 183.002ZM208.609 258.201C226.752 254.142 241.554 241.729 248.954 225.018L224.604 225.018C221.739 239.819 215.771 251.755 208.609 258.201ZM184.02 258.201C176.859 251.755 170.891 239.819 168.026 225.018L143.914 225.018C151.076 241.729 165.877 254.142 184.02 258.201ZM196.434 263.214C174.471 263.214 154.418 251.755 143.437 232.657C132.456 213.798 132.456 190.641 143.437 171.543C154.418 152.684 174.471 140.986 196.434 140.986C218.158 140.986 238.211 152.684 249.193 171.543C260.174 190.641 260.174 213.798 249.193 232.657C238.211 251.755 218.158 263.214 196.434 263.214Z"/>
</mask>
<path d="M196.434 259.394C202.641 259.394 209.087 254.381 214.577 243.638C217.203 238.387 219.352 232.18 220.784 225.018L171.845 225.018C173.278 232.18 175.426 238.387 178.052 243.638C183.543 254.381 190.227 259.394 196.434 259.394ZM171.129 221.198L221.5 221.198C222.455 215.23 223.172 209.023 223.172 202.1C223.172 195.416 222.455 188.97 221.501 183.002L171.129 183.002C170.174 188.97 169.697 195.416 169.697 202.1C169.697 209.023 170.174 215.23 171.129 221.198ZM171.845 179.182L220.784 179.182C219.352 172.259 217.203 166.052 214.577 160.8C209.087 150.058 202.641 144.806 196.434 144.806C190.227 144.806 183.543 150.058 178.052 160.8C175.426 165.814 173.278 172.259 171.845 179.182ZM225.32 183.002C226.275 189.209 226.991 195.654 226.991 202.1C226.991 208.784 226.275 215.23 225.32 221.198L250.386 221.198C252.535 215.23 253.729 209.023 253.729 202.1C253.729 195.416 252.535 188.97 250.386 183.002L225.32 183.002ZM248.954 179.182C241.554 162.71 226.752 150.296 208.609 146.238C216.01 152.684 221.739 164.62 224.604 179.182L248.954 179.182ZM168.026 179.182C170.891 164.62 176.859 152.684 184.02 146.238C165.877 150.296 151.076 162.71 143.914 179.182L168.026 179.182ZM142.243 183.002C140.095 188.97 139.14 195.416 139.14 202.1C139.14 209.023 140.095 215.23 142.243 221.198L167.31 221.198C166.355 215.23 165.877 208.784 165.877 202.1C165.877 195.654 166.355 189.209 167.31 183.002L142.243 183.002ZM208.609 258.201C226.752 254.142 241.554 241.729 248.954 225.018L224.604 225.018C221.739 239.819 215.771 251.755 208.609 258.201ZM184.02 258.201C176.859 251.755 170.891 239.819 168.026 225.018L143.914 225.018C151.076 241.729 165.877 254.142 184.02 258.201ZM196.434 263.214C174.471 263.214 154.418 251.755 143.437 232.657C132.456 213.798 132.456 190.641 143.437 171.543C154.418 152.684 174.471 140.986 196.434 140.986C218.158 140.986 238.211 152.684 249.193 171.543C260.174 190.641 260.174 213.798 249.193 232.657C238.211 251.755 218.158 263.214 196.434 263.214Z" fill="#D894FF"/>
<path d="M214.577 243.638L215.468 244.094L215.472 244.086L214.577 243.638ZM220.784 225.018L221.765 225.214L222.004 224.018L220.784 224.018L220.784 225.018ZM171.845 225.018L171.845 224.018L170.626 224.018L170.865 225.214L171.845 225.018ZM178.052 243.638L177.158 244.086L177.162 244.094L178.052 243.638ZM171.129 221.198L170.142 221.356L170.277 222.198L171.129 222.198L171.129 221.198ZM221.5 221.198L221.5 222.198L222.353 222.198L222.488 221.356L221.5 221.198ZM221.501 183.002L222.488 182.844L222.353 182.002L221.501 182.002L221.501 183.002ZM171.129 183.002L171.129 182.002L170.277 182.002L170.142 182.844L171.129 183.002ZM171.845 179.182L170.866 178.98L170.617 180.182L171.845 180.182L171.845 179.182ZM220.784 179.182L220.784 180.182L222.012 180.182L221.764 178.98L220.784 179.182ZM214.577 160.8L215.472 160.353L215.468 160.345L214.577 160.8ZM178.052 160.8L178.938 161.264L178.943 161.256L178.052 160.8ZM225.32 183.002L225.32 182.002L224.155 182.002L224.332 183.154L225.32 183.002ZM225.32 221.198L224.333 221.04L224.147 222.198L225.32 222.198L225.32 221.198ZM250.386 221.198L250.386 222.198L251.089 222.198L251.327 221.537L250.386 221.198ZM250.386 183.002L251.327 182.663L251.089 182.002L250.386 182.002L250.386 183.002ZM248.954 179.182L248.954 180.182L250.5 180.182L249.866 178.773L248.954 179.182ZM208.609 146.238L208.828 145.262L207.953 146.992L208.609 146.238ZM224.604 179.182L223.623 179.375L223.782 180.182L224.604 180.182L224.604 179.182ZM168.026 179.182L168.026 180.182L168.848 180.182L169.007 179.375L168.026 179.182ZM184.02 146.238L184.689 146.981L187.525 144.43L183.802 145.262L184.02 146.238ZM143.914 179.182L142.997 178.784L142.389 180.182L143.914 180.182L143.914 179.182ZM142.243 183.002L142.243 182.002L141.541 182.002L141.302 182.663L142.243 183.002ZM142.243 221.198L141.302 221.537L141.541 222.198L142.243 222.198L142.243 221.198ZM167.31 221.198L167.31 222.198L168.482 222.198L168.297 221.04L167.31 221.198ZM167.31 183.002L168.298 183.154L168.475 182.002L167.31 182.002L167.31 183.002ZM208.609 258.201L207.94 257.457L205.105 260.009L208.828 259.177L208.609 258.201ZM248.954 225.018L249.868 225.423L250.491 224.018L248.954 224.018L248.954 225.018ZM224.604 225.018L224.604 224.018L223.779 224.018L223.622 224.828L224.604 225.018ZM184.02 258.201L183.802 259.177L187.525 260.009L184.689 257.457L184.02 258.201ZM168.026 225.018L169.008 224.828L168.851 224.018L168.026 224.018L168.026 225.018ZM143.914 225.018L143.914 224.018L142.398 224.018L142.995 225.412L143.914 225.018ZM143.437 232.657L144.304 232.159L144.301 232.154L143.437 232.657ZM143.437 171.543L142.573 171.04L142.57 171.045L143.437 171.543ZM249.193 171.543L250.06 171.045L250.057 171.04L249.193 171.543ZM249.193 232.657L248.329 232.154L248.326 232.159L249.193 232.657ZM196.434 259.394L196.434 260.394C203.224 260.394 209.928 254.933 215.468 244.094L214.577 243.638L213.687 243.183C208.246 253.829 202.058 258.394 196.434 258.394L196.434 259.394ZM214.577 243.638L215.472 244.086C218.141 238.747 220.317 232.455 221.765 225.214L220.784 225.018L219.804 224.822C218.387 231.904 216.266 238.026 213.683 243.191L214.577 243.638ZM220.784 225.018L220.784 224.018L171.845 224.018L171.845 225.018L171.845 226.018L220.784 226.018L220.784 225.018ZM171.845 225.018L170.865 225.214C172.313 232.455 174.489 238.747 177.158 244.086L178.052 243.638L178.947 243.191C176.364 238.026 174.243 231.904 172.826 224.822L171.845 225.018ZM178.052 243.638L177.162 244.094C182.71 254.95 189.655 260.394 196.434 260.394L196.434 259.394L196.434 258.394C190.799 258.394 184.376 253.813 178.943 243.183L178.052 243.638ZM171.129 221.198L171.129 222.198L221.5 222.198L221.5 221.198L221.5 220.198L171.129 220.198L171.129 221.198ZM221.5 221.198L222.488 221.356C223.448 215.357 224.172 209.094 224.172 202.1L223.172 202.1L222.172 202.1C222.172 208.952 221.463 215.103 220.513 221.04L221.5 221.198ZM223.172 202.1L224.172 202.1C224.172 195.346 223.448 188.845 222.488 182.844L221.501 183.002L220.513 183.16C221.463 189.096 222.172 195.486 222.172 202.1L223.172 202.1ZM221.501 183.002L221.501 182.002L171.129 182.002L171.129 183.002L171.129 184.002L221.501 184.002L221.501 183.002ZM171.129 183.002L170.142 182.844C169.178 188.87 168.697 195.369 168.697 202.1L169.697 202.1L170.697 202.1C170.697 195.462 171.171 189.07 172.117 183.16L171.129 183.002ZM169.697 202.1L168.697 202.1C168.697 209.071 169.178 215.331 170.142 221.356L171.129 221.198L172.117 221.04C171.171 215.129 170.697 208.976 170.697 202.1L169.697 202.1ZM171.845 179.182L171.845 180.182L220.784 180.182L220.784 179.182L220.784 178.182L171.845 178.182L171.845 179.182ZM220.784 179.182L221.764 178.98C220.315 171.98 218.14 165.69 215.472 160.353L214.577 160.8L213.683 161.248C216.267 166.415 218.389 172.538 219.805 179.385L220.784 179.182ZM214.577 160.8L215.468 160.345C209.938 149.525 203.237 143.806 196.434 143.806L196.434 144.806L196.434 145.806C202.045 145.806 208.236 150.59 213.687 161.256L214.577 160.8ZM196.434 144.806L196.434 143.806C189.642 143.806 182.701 149.509 177.162 160.345L178.052 160.8L178.943 161.256C184.385 150.607 190.812 145.806 196.434 145.806L196.434 144.806ZM178.052 160.8L177.166 160.336C174.486 165.453 172.312 171.992 170.866 178.98L171.845 179.182L172.825 179.385C174.244 172.527 176.366 166.175 178.938 161.264L178.052 160.8ZM225.32 183.002L224.332 183.154C225.283 189.335 225.991 195.725 225.991 202.1L226.991 202.1L227.991 202.1C227.991 195.584 227.267 189.082 226.308 182.85L225.32 183.002ZM226.991 202.1L225.991 202.1C225.991 208.715 225.282 215.104 224.333 221.04L225.32 221.198L226.308 221.356C227.268 215.356 227.991 208.854 227.991 202.1L226.991 202.1ZM225.32 221.198L225.32 222.198L250.386 222.198L250.386 221.198L250.386 220.198L225.32 220.198L225.32 221.198ZM250.386 221.198L251.327 221.537C253.513 215.466 254.729 209.145 254.729 202.1L253.729 202.1L252.729 202.1C252.729 208.902 251.557 214.994 249.445 220.859L250.386 221.198ZM253.729 202.1L254.729 202.1C254.729 195.296 253.514 188.736 251.327 182.663L250.386 183.002L249.446 183.341C251.556 189.204 252.729 195.535 252.729 202.1L253.729 202.1ZM250.386 183.002L250.386 182.002L225.32 182.002L225.32 183.002L225.32 184.002L250.386 184.002L250.386 183.002ZM248.954 179.182L249.866 178.773C242.339 162.018 227.284 149.391 208.828 145.262L208.609 146.238L208.391 147.214C226.221 151.202 240.768 163.402 248.042 179.592L248.954 179.182ZM208.609 146.238L207.953 146.992C215.116 153.231 220.779 164.919 223.623 179.375L224.604 179.182L225.585 178.989C222.7 164.322 216.904 152.136 209.266 145.484L208.609 146.238ZM224.604 179.182L224.604 180.182L248.954 180.182L248.954 179.182L248.954 178.182L224.604 178.182L224.604 179.182ZM168.026 179.182L169.007 179.375C171.848 164.934 177.746 153.23 184.689 146.981L184.02 146.238L183.352 145.495C175.971 152.137 169.933 164.306 167.045 178.989L168.026 179.182ZM184.02 146.238L183.802 145.262C165.347 149.39 150.286 162.019 142.997 178.784L143.914 179.182L144.832 179.581C151.866 163.402 166.407 151.203 184.239 147.214L184.02 146.238ZM143.914 179.182L143.914 180.182L168.026 180.182L168.026 179.182L168.026 178.182L143.914 178.182L143.914 179.182ZM142.243 183.002L141.302 182.663C139.108 188.759 138.14 195.322 138.14 202.1L139.14 202.1L140.14 202.1C140.14 195.51 141.082 189.182 143.184 183.341L142.243 183.002ZM139.14 202.1L138.14 202.1C138.14 209.119 139.109 215.443 141.302 221.537L142.243 221.198L143.184 220.859C141.081 215.017 140.14 208.927 140.14 202.1L139.14 202.1ZM142.243 221.198L142.243 222.198L167.31 222.198L167.31 221.198L167.31 220.198L142.243 220.198L142.243 221.198ZM167.31 221.198L168.297 221.04C167.351 215.13 166.877 208.738 166.877 202.1L165.877 202.1L164.877 202.1C164.877 208.831 165.358 215.33 166.322 221.356L167.31 221.198ZM165.877 202.1L166.877 202.1C166.877 195.703 167.351 189.308 168.298 183.154L167.31 183.002L166.321 182.85C165.358 189.109 164.877 195.606 164.877 202.1L165.877 202.1ZM167.31 183.002L167.31 182.002L142.243 182.002L142.243 183.002L142.243 184.002L167.31 184.002L167.31 183.002ZM208.609 258.201L208.828 259.177C227.286 255.048 242.342 242.418 249.868 225.423L248.954 225.018L248.04 224.613C240.765 241.039 226.219 253.237 208.391 257.225L208.609 258.201ZM248.954 225.018L248.954 224.018L224.604 224.018L224.604 225.018L224.604 226.018L248.954 226.018L248.954 225.018ZM224.604 225.018L223.622 224.828C220.781 239.508 214.882 251.21 207.94 257.457L208.609 258.201L209.278 258.944C216.66 252.3 222.698 240.13 225.586 225.208L224.604 225.018ZM184.02 258.201L184.689 257.457C177.748 251.21 171.849 239.508 169.008 224.828L168.026 225.018L167.044 225.208C169.932 240.13 175.97 252.3 183.351 258.944L184.02 258.201ZM168.026 225.018L168.026 224.018L143.914 224.018L143.914 225.018L143.914 226.018L168.026 226.018L168.026 225.018ZM143.914 225.018L142.995 225.412C150.284 242.418 165.345 255.048 183.802 259.177L184.02 258.201L184.239 257.225C166.409 253.237 151.869 241.039 144.834 224.624L143.914 225.018ZM196.434 263.214L196.434 262.214C174.825 262.214 155.105 250.943 144.304 232.159L143.437 232.657L142.57 233.156C153.732 252.567 174.117 264.214 196.434 264.214L196.434 263.214ZM143.437 232.657L144.301 232.154C133.502 213.607 133.499 190.833 144.304 172.042L143.437 171.543L142.57 171.045C131.412 190.449 131.409 213.988 142.573 233.16L143.437 232.657ZM143.437 171.543L144.301 172.046C155.106 153.491 174.831 141.986 196.434 141.986L196.434 140.986L196.434 139.986C174.111 139.986 153.731 151.876 142.573 171.04L143.437 171.543ZM196.434 140.986L196.434 141.986C217.796 141.986 237.523 153.489 248.329 172.046L249.193 171.543L250.057 171.04C238.9 151.878 218.521 139.986 196.434 139.986L196.434 140.986ZM249.193 171.543L248.326 172.042C259.131 190.833 259.128 213.607 248.329 232.154L249.193 232.657L250.057 233.16C261.221 213.988 261.217 190.449 250.06 171.045L249.193 171.543ZM249.193 232.657L248.326 232.159C237.524 250.945 217.802 262.214 196.434 262.214L196.434 263.214L196.434 264.214C218.515 264.214 238.899 252.565 250.06 233.156L249.193 232.657Z" fill="#D894FF" mask="url(#path-3-outside-1_265_3248)"/>
<mask id="path-5-outside-2_265_3248" maskUnits="userSpaceOnUse" x="70.4609" y="69.2227" width="109" height="125" fill="black">
<rect fill="white" x="70.4609" y="69.2227" width="109" height="125"/>
<path d="M124.936 70.2227C154.298 70.2227 178.41 78.8165 178.41 89.3203V134.568C177.122 134.911 175.848 135.29 174.59 135.703V117.49C170.054 120.355 163.847 122.742 156.686 124.413C147.614 126.8 136.633 127.994 124.936 127.994C112.999 127.994 102.018 126.8 92.9463 124.413C85.7845 122.742 79.5773 120.355 75.2803 117.49V147.331C79.0998 150.434 85.5452 153.06 93.9004 155.209C102.495 157.358 113.238 158.551 124.936 158.551C131.094 158.551 137.044 158.202 142.566 157.55C141.447 158.899 140.378 160.292 139.361 161.724C134.743 162.154 129.904 162.371 124.936 162.371C112.999 162.371 102.018 161.177 92.9463 158.79C85.7846 157.119 79.5773 154.732 75.2803 151.867V173.353C75.2803 174.546 75.758 175.978 77.9062 177.888C80.2935 179.798 83.6356 181.708 88.4102 183.379C97.4817 186.721 110.373 188.631 124.936 188.631C125.898 188.631 126.854 188.621 127.803 188.604C127.554 189.868 127.34 191.145 127.16 192.433C126.422 192.443 125.681 192.45 124.936 192.45C95.3337 192.45 71.4614 184.095 71.4609 173.353V89.3203C71.4614 78.8165 95.3337 70.2227 124.936 70.2227ZM124.936 74.042C110.373 74.042 97.4818 76.191 88.4102 79.5332C83.6357 81.2043 80.2935 83.1137 77.9062 85.0234C75.7579 86.6944 75.2804 88.3654 75.2803 89.3203V112.716C79.0998 116.058 85.5453 118.684 93.9004 120.832C102.495 122.981 113.238 124.175 124.936 124.175C136.394 124.175 147.136 122.98 155.73 120.832C164.086 118.684 170.531 116.058 174.59 112.716V89.3203C174.59 88.3654 173.874 86.6943 171.726 85.0234C169.338 83.1136 165.996 81.2043 161.46 79.5332C152.15 76.1911 139.259 74.042 124.936 74.042Z"/>
</mask>
<path d="M124.936 70.2227C154.298 70.2227 178.41 78.8165 178.41 89.3203V134.568C177.122 134.911 175.848 135.29 174.59 135.703V117.49C170.054 120.355 163.847 122.742 156.686 124.413C147.614 126.8 136.633 127.994 124.936 127.994C112.999 127.994 102.018 126.8 92.9463 124.413C85.7845 122.742 79.5773 120.355 75.2803 117.49V147.331C79.0998 150.434 85.5452 153.06 93.9004 155.209C102.495 157.358 113.238 158.551 124.936 158.551C131.094 158.551 137.044 158.202 142.566 157.55C141.447 158.899 140.378 160.292 139.361 161.724C134.743 162.154 129.904 162.371 124.936 162.371C112.999 162.371 102.018 161.177 92.9463 158.79C85.7846 157.119 79.5773 154.732 75.2803 151.867V173.353C75.2803 174.546 75.758 175.978 77.9062 177.888C80.2935 179.798 83.6356 181.708 88.4102 183.379C97.4817 186.721 110.373 188.631 124.936 188.631C125.898 188.631 126.854 188.621 127.803 188.604C127.554 189.868 127.34 191.145 127.16 192.433C126.422 192.443 125.681 192.45 124.936 192.45C95.3337 192.45 71.4614 184.095 71.4609 173.353V89.3203C71.4614 78.8165 95.3337 70.2227 124.936 70.2227ZM124.936 74.042C110.373 74.042 97.4818 76.191 88.4102 79.5332C83.6357 81.2043 80.2935 83.1137 77.9062 85.0234C75.7579 86.6944 75.2804 88.3654 75.2803 89.3203V112.716C79.0998 116.058 85.5453 118.684 93.9004 120.832C102.495 122.981 113.238 124.175 124.936 124.175C136.394 124.175 147.136 122.98 155.73 120.832C164.086 118.684 170.531 116.058 174.59 112.716V89.3203C174.59 88.3654 173.874 86.6943 171.726 85.0234C169.338 83.1136 165.996 81.2043 161.46 79.5332C152.15 76.1911 139.259 74.042 124.936 74.042Z" fill="#D894FF"/>
<path d="M124.936 70.2227L124.936 69.2227L124.936 69.2227L124.936 70.2227ZM178.41 89.3203L179.41 89.3203L179.41 89.3203L178.41 89.3203ZM178.41 134.568L178.667 135.535C179.105 135.418 179.41 135.022 179.41 134.568H178.41ZM174.59 135.703H173.59C173.59 136.024 173.744 136.325 174.003 136.513C174.263 136.701 174.597 136.753 174.902 136.653L174.59 135.703ZM174.59 117.49H175.59C175.59 117.126 175.392 116.79 175.073 116.614C174.753 116.439 174.364 116.45 174.056 116.645L174.59 117.49ZM156.686 124.413L156.458 123.439C156.449 123.441 156.44 123.444 156.431 123.446L156.686 124.413ZM124.936 127.994L124.936 128.994L124.936 128.994L124.936 127.994ZM92.9463 124.413L93.2008 123.446C93.1917 123.444 93.1826 123.441 93.1735 123.439L92.9463 124.413ZM75.2803 117.49L75.835 116.658C75.5281 116.454 75.1336 116.435 74.8084 116.609C74.4833 116.783 74.2803 117.121 74.2803 117.49H75.2803ZM75.2803 147.331H74.2803C74.2803 147.632 74.416 147.917 74.6497 148.107L75.2803 147.331ZM93.9004 155.209L93.6513 156.177L93.6579 156.179L93.9004 155.209ZM124.936 158.551L124.936 159.551L124.936 159.551L124.936 158.551ZM142.566 157.55L143.336 158.188C143.597 157.873 143.64 157.431 143.445 157.072C143.25 156.713 142.855 156.509 142.449 156.557L142.566 157.55ZM139.361 161.724L139.454 162.719C139.744 162.692 140.008 162.54 140.177 162.303L139.361 161.724ZM124.936 162.371L124.936 163.371L124.936 163.371L124.936 162.371ZM92.9463 158.79L93.2008 157.823C93.1917 157.821 93.1826 157.818 93.1735 157.816L92.9463 158.79ZM75.2803 151.867L75.835 151.035C75.5281 150.831 75.1336 150.811 74.8084 150.986C74.4833 151.16 74.2803 151.498 74.2803 151.867H75.2803ZM75.2803 173.353L74.2803 173.353L74.2803 173.353L75.2803 173.353ZM77.9062 177.888L77.2419 178.635C77.2548 178.647 77.268 178.658 77.2816 178.669L77.9062 177.888ZM88.4102 183.379L88.7559 182.441C88.7508 182.439 88.7456 182.437 88.7405 182.435L88.4102 183.379ZM124.936 188.631L124.936 189.631L124.936 189.631L124.936 188.631ZM127.803 188.604L128.784 188.796C128.842 188.5 128.763 188.193 128.569 187.961C128.375 187.73 128.087 187.598 127.785 187.604L127.803 188.604ZM127.16 192.433L127.175 193.433C127.668 193.425 128.082 193.059 128.151 192.571L127.16 192.433ZM124.936 192.45L124.936 193.45L124.936 193.45L124.936 192.45ZM71.4609 173.353L70.4609 173.353L70.4609 173.353L71.4609 173.353ZM71.4609 89.3203L70.4609 89.3203V89.3203H71.4609ZM124.936 74.042L124.936 73.042L124.936 73.042L124.936 74.042ZM88.4102 79.5332L88.7405 80.4771C88.7456 80.4753 88.7508 80.4734 88.7559 80.4715L88.4102 79.5332ZM77.9062 85.0234L78.5202 85.8129L78.5309 85.8043L77.9062 85.0234ZM75.2803 89.3203L74.2803 89.3202V89.3203H75.2803ZM75.2803 112.716H74.2803C74.2803 113.004 74.4048 113.279 74.6218 113.468L75.2803 112.716ZM93.9004 120.832L93.6513 121.801L93.6579 121.802L93.9004 120.832ZM124.936 124.175L124.936 125.175L124.936 125.175L124.936 124.175ZM155.73 120.832L155.973 121.802L155.98 121.801L155.73 120.832ZM174.59 112.716L175.226 113.488C175.456 113.298 175.59 113.015 175.59 112.716H174.59ZM174.59 89.3203L175.59 89.3203L175.59 89.3202L174.59 89.3203ZM171.726 85.0234L171.101 85.8044L171.112 85.8128L171.726 85.0234ZM161.46 79.5332L161.806 78.5948L161.798 78.592L161.46 79.5332ZM124.936 70.2227L124.936 71.2227C139.532 71.2227 152.782 73.3604 162.348 76.7744C167.135 78.483 170.946 80.4925 173.541 82.6709C176.142 84.8544 177.41 87.1067 177.41 89.3204L178.41 89.3203L179.41 89.3203C179.41 86.2821 177.664 83.5212 174.827 81.1391C171.983 78.752 167.931 76.6436 163.02 74.8908C153.189 71.382 139.702 69.2227 124.936 69.2227L124.936 70.2227ZM178.41 89.3203H177.41V134.568H178.41H179.41V89.3203H178.41ZM178.41 134.568L178.153 133.602C176.846 133.95 175.554 134.334 174.278 134.753L174.59 135.703L174.902 136.653C176.142 136.246 177.397 135.872 178.667 135.535L178.41 134.568ZM174.59 135.703H175.59V117.49H174.59H173.59V135.703H174.59ZM174.59 117.49L174.056 116.645C169.644 119.431 163.551 121.784 156.458 123.439L156.686 124.413L156.913 125.387C164.144 123.7 170.465 121.278 175.124 118.336L174.59 117.49ZM156.686 124.413L156.431 123.446C147.464 125.806 136.572 126.994 124.936 126.994L124.936 127.994L124.936 128.994C136.694 128.994 147.764 127.795 156.94 125.38L156.686 124.413ZM124.936 127.994L124.936 126.994C113.059 126.994 102.167 125.806 93.2008 123.446L92.9463 124.413L92.6918 125.38C101.868 127.795 112.939 128.994 124.936 128.994L124.936 127.994ZM92.9463 124.413L93.1735 123.439C86.0751 121.783 79.995 119.432 75.835 116.658L75.2803 117.49L74.7256 118.322C79.1597 121.278 85.494 123.701 92.7191 125.387L92.9463 124.413ZM75.2803 117.49H74.2803V147.331H75.2803H76.2803V117.49H75.2803ZM75.2803 147.331L74.6497 148.107C78.6434 151.352 85.2642 154.021 93.6513 156.177L93.9004 155.209L94.1494 154.24C85.8263 152.1 79.5562 149.517 75.9109 146.555L75.2803 147.331ZM93.9004 155.209L93.6579 156.179C102.349 158.352 113.177 159.551 124.936 159.551L124.936 158.551L124.936 157.551C113.299 157.551 102.64 156.363 94.1429 154.239L93.9004 155.209ZM124.936 158.551L124.936 159.551C131.131 159.551 137.121 159.2 142.684 158.543L142.566 157.55L142.449 156.557C136.968 157.204 131.057 157.551 124.936 157.551L124.936 158.551ZM142.566 157.55L141.797 156.911C140.662 158.28 139.577 159.692 138.546 161.145L139.361 161.724L140.177 162.303C141.179 160.891 142.233 159.518 143.336 158.188L142.566 157.55ZM139.361 161.724L139.268 160.728C134.683 161.156 129.875 161.371 124.936 161.371L124.936 162.371L124.936 163.371C129.933 163.371 134.803 163.153 139.454 162.719L139.361 161.724ZM124.936 162.371L124.936 161.371C113.059 161.371 102.167 160.183 93.2008 157.823L92.9463 158.79L92.6918 159.757C101.868 162.172 112.939 163.371 124.936 163.371L124.936 162.371ZM92.9463 158.79L93.1735 157.816C86.0752 156.16 79.995 153.808 75.835 151.035L75.2803 151.867L74.7256 152.699C79.1597 155.655 85.4941 158.078 92.7191 159.764L92.9463 158.79ZM75.2803 151.867H74.2803V173.353H75.2803H76.2803V151.867H75.2803ZM75.2803 173.353L74.2803 173.353C74.2804 174.91 74.9469 176.595 77.2419 178.635L77.9062 177.888L78.5706 177.14C76.569 175.361 76.2803 174.182 76.2803 173.352L75.2803 173.353ZM77.9062 177.888L77.2816 178.669C79.772 180.661 83.2184 182.621 88.0798 184.323L88.4102 183.379L88.7405 182.435C84.0529 180.794 80.8151 178.934 78.5309 177.107L77.9062 177.888ZM88.4102 183.379L88.0645 184.317C97.2843 187.714 110.303 189.631 124.936 189.631L124.936 188.631L124.936 187.631C110.443 187.631 97.6792 185.728 88.7559 182.441L88.4102 183.379ZM124.936 188.631L124.936 189.631C125.905 189.631 126.867 189.621 127.821 189.603L127.803 188.604L127.785 187.604C126.841 187.621 125.891 187.631 124.936 187.631L124.936 188.631ZM127.803 188.604L126.822 188.411C126.569 189.693 126.352 190.988 126.17 192.295L127.16 192.433L128.151 192.571C128.327 191.301 128.539 190.043 128.784 188.796L127.803 188.604ZM127.16 192.433L127.146 191.433C126.411 191.443 125.674 191.45 124.936 191.45L124.936 192.45L124.936 193.45C125.687 193.45 126.433 193.443 127.175 193.433L127.16 192.433ZM124.936 192.45L124.936 191.45C110.215 191.45 96.9658 189.371 87.4322 185.987C82.6612 184.294 78.8753 182.293 76.3012 180.106C73.7252 177.918 72.461 175.636 72.4609 173.353L71.4609 173.353L70.4609 173.353C70.4611 176.441 72.1811 179.231 75.0064 181.631C77.8334 184.032 81.8659 186.134 86.7632 187.872C96.5664 191.352 110.054 193.45 124.936 193.45L124.936 192.45ZM71.4609 173.353H72.4609V89.3203H71.4609H70.4609V173.353H71.4609ZM71.4609 89.3203L72.4609 89.3204C72.461 87.103 73.7184 84.8503 76.2993 82.6687C78.8753 80.4913 82.6632 78.4823 87.4348 76.774C96.9693 73.3605 110.219 71.2227 124.936 71.2227L124.936 70.2227L124.936 69.2227C110.051 69.2227 96.5629 71.3817 86.7607 74.8911C81.8639 76.6442 77.8335 78.7531 75.0082 81.1413C72.1879 83.5253 70.4611 86.2857 70.4609 89.3203L71.4609 89.3203ZM124.936 74.042L124.936 73.042C110.289 73.042 97.2742 75.2018 88.0645 78.5949L88.4102 79.5332L88.7559 80.4715C97.6893 77.1803 110.458 75.042 124.936 75.042L124.936 74.042ZM88.4102 79.5332L88.0798 78.5893C83.2186 80.2908 79.7721 82.2502 77.2816 84.2426L77.9062 85.0234L78.5309 85.8043C80.8149 83.9771 84.0528 82.1177 88.7405 80.4771L88.4102 79.5332ZM77.9062 85.0234L77.2923 84.2341C74.93 86.0714 74.2804 88.0211 74.2803 89.3202L75.2803 89.3203L76.2803 89.3204C76.2803 88.7096 76.5858 87.3173 78.5202 85.8128L77.9062 85.0234ZM75.2803 89.3203H74.2803V112.716H75.2803H76.2803V89.3203H75.2803ZM75.2803 112.716L74.6218 113.468C78.6279 116.974 85.2693 119.645 93.6513 121.801L93.9004 120.832L94.1494 119.864C85.8212 117.722 79.5718 115.142 75.9388 111.963L75.2803 112.716ZM93.9004 120.832L93.6579 121.802C102.349 123.975 113.177 125.175 124.936 125.175L124.936 124.175L124.936 123.175C113.299 123.175 102.64 121.986 94.1429 119.862L93.9004 120.832ZM124.936 124.175L124.936 125.175C136.456 125.175 147.283 123.975 155.973 121.802L155.73 120.832L155.488 119.862C146.99 121.986 136.332 123.175 124.936 123.175L124.936 124.175ZM155.73 120.832L155.98 121.801C164.371 119.643 170.993 116.973 175.226 113.488L174.59 112.716L173.954 111.944C170.07 115.142 163.8 117.724 155.481 119.864L155.73 120.832ZM174.59 112.716H175.59V89.3203H174.59H173.59V112.716H174.59ZM174.59 89.3203L175.59 89.3202C175.59 87.9412 174.623 86.0099 172.34 84.2341L171.726 85.0234L171.112 85.8128C173.125 87.3788 173.59 88.7896 173.59 89.3205L174.59 89.3203ZM171.726 85.0234L172.35 84.2426C169.863 82.2529 166.421 80.2953 161.806 78.5949L161.46 79.5332L161.114 80.4715C165.57 82.1132 168.813 83.9744 171.101 85.8043L171.726 85.0234ZM161.46 79.5332L161.798 78.592C152.356 75.2028 139.347 73.042 124.936 73.042L124.936 74.042L124.936 75.042C139.171 75.042 151.943 77.1794 161.122 80.4744L161.46 79.5332Z" fill="#D894FF" mask="url(#path-5-outside-2_265_3248)"/>
<mask id="path-7-outside-3_265_3248" maskUnits="userSpaceOnUse" x="209.336" y="73.4922" width="125" height="109" fill="black">
<rect fill="white" x="209.336" y="73.4922" width="125" height="109"/>
<path d="M235.163 74.4922C240.415 74.4922 244.713 78.79 244.713 84.042V114.36L279.328 96.4551C284.341 93.5908 290.548 97.4104 290.548 103.14V113.883L321.104 96.6943C326.118 93.8296 332.563 97.6495 332.563 103.379V168.073C332.563 175.474 326.357 181.442 319.195 181.442H263.268C262.868 180.153 262.431 178.879 261.96 177.622H319.195C324.447 177.622 328.744 173.564 328.744 168.073V103.379C328.744 100.514 325.402 98.6038 323.015 100.036L289.593 118.896C288.877 119.134 288.161 119.134 287.684 118.896C286.967 118.657 286.729 117.941 286.729 117.225V103.14C286.728 100.275 283.625 98.3655 280.999 99.7979L243.519 119.135C243.041 119.373 242.325 119.373 241.609 119.135C241.132 118.657 240.893 118.179 240.893 117.463V84.042C240.893 80.9386 238.267 78.3125 235.163 78.3125H219.885C216.543 78.3126 214.155 80.9386 214.155 84.042V134.492C212.896 134.163 211.622 133.869 210.336 133.609V84.042C210.336 78.7901 214.394 74.4923 219.885 74.4922H235.163ZM275.27 139.426C278.373 139.426 280.999 142.052 280.999 145.155V152.795C280.999 156.137 278.373 158.524 275.27 158.524H267.63C264.288 158.524 261.9 156.137 261.9 152.795V145.155C261.901 142.052 264.288 139.426 267.63 139.426H275.27ZM305.826 139.426C308.93 139.426 311.555 142.052 311.556 145.155V152.795C311.556 156.137 308.93 158.524 305.826 158.524H298.188C294.845 158.524 292.458 156.137 292.458 152.795V145.155C292.458 142.052 294.845 139.426 298.188 139.426H305.826ZM244.713 139.426C247.816 139.426 250.442 142.052 250.442 145.155V152.795C250.442 154.165 250 155.373 249.266 156.323C248.386 155.31 247.477 154.323 246.541 153.362C246.592 153.188 246.622 152.999 246.622 152.795V145.155C246.622 144.201 245.668 143.246 244.713 143.246H237.073C236.335 143.246 235.779 143.611 235.463 144.116C234.403 143.403 233.323 142.717 232.224 142.062C233.208 140.489 234.947 139.426 237.073 139.426H244.713ZM267.63 143.246C266.437 143.246 265.721 144.201 265.721 145.155V152.795C265.721 153.988 266.436 154.705 267.63 154.705H275.27C276.224 154.705 277.18 153.988 277.18 152.795V145.155C277.179 144.2 276.224 143.246 275.27 143.246H267.63ZM298.188 143.246C296.994 143.246 296.278 144.2 296.277 145.155V152.795C296.277 153.989 296.994 154.705 298.188 154.705H305.826C306.781 154.705 307.736 153.989 307.736 152.795V145.155C307.736 144.2 306.781 143.246 305.826 143.246H298.188Z"/>
</mask>
<path d="M235.163 74.4922C240.415 74.4922 244.713 78.79 244.713 84.042V114.36L279.328 96.4551C284.341 93.5908 290.548 97.4104 290.548 103.14V113.883L321.104 96.6943C326.118 93.8296 332.563 97.6495 332.563 103.379V168.073C332.563 175.474 326.357 181.442 319.195 181.442H263.268C262.868 180.153 262.431 178.879 261.96 177.622H319.195C324.447 177.622 328.744 173.564 328.744 168.073V103.379C328.744 100.514 325.402 98.6038 323.015 100.036L289.593 118.896C288.877 119.134 288.161 119.134 287.684 118.896C286.967 118.657 286.729 117.941 286.729 117.225V103.14C286.728 100.275 283.625 98.3655 280.999 99.7979L243.519 119.135C243.041 119.373 242.325 119.373 241.609 119.135C241.132 118.657 240.893 118.179 240.893 117.463V84.042C240.893 80.9386 238.267 78.3125 235.163 78.3125H219.885C216.543 78.3126 214.155 80.9386 214.155 84.042V134.492C212.896 134.163 211.622 133.869 210.336 133.609V84.042C210.336 78.7901 214.394 74.4923 219.885 74.4922H235.163ZM275.27 139.426C278.373 139.426 280.999 142.052 280.999 145.155V152.795C280.999 156.137 278.373 158.524 275.27 158.524H267.63C264.288 158.524 261.9 156.137 261.9 152.795V145.155C261.901 142.052 264.288 139.426 267.63 139.426H275.27ZM305.826 139.426C308.93 139.426 311.555 142.052 311.556 145.155V152.795C311.556 156.137 308.93 158.524 305.826 158.524H298.188C294.845 158.524 292.458 156.137 292.458 152.795V145.155C292.458 142.052 294.845 139.426 298.188 139.426H305.826ZM244.713 139.426C247.816 139.426 250.442 142.052 250.442 145.155V152.795C250.442 154.165 250 155.373 249.266 156.323C248.386 155.31 247.477 154.323 246.541 153.362C246.592 153.188 246.622 152.999 246.622 152.795V145.155C246.622 144.201 245.668 143.246 244.713 143.246H237.073C236.335 143.246 235.779 143.611 235.463 144.116C234.403 143.403 233.323 142.717 232.224 142.062C233.208 140.489 234.947 139.426 237.073 139.426H244.713ZM267.63 143.246C266.437 143.246 265.721 144.201 265.721 145.155V152.795C265.721 153.988 266.436 154.705 267.63 154.705H275.27C276.224 154.705 277.18 153.988 277.18 152.795V145.155C277.179 144.2 276.224 143.246 275.27 143.246H267.63ZM298.188 143.246C296.994 143.246 296.278 144.2 296.277 145.155V152.795C296.277 153.989 296.994 154.705 298.188 154.705H305.826C306.781 154.705 307.736 153.989 307.736 152.795V145.155C307.736 144.2 306.781 143.246 305.826 143.246H298.188Z" fill="#D894FF"/>
<path d="M235.163 74.4922L235.163 73.4922H235.163V74.4922ZM244.713 84.042L243.713 84.042V84.042H244.713ZM244.713 114.36H243.713C243.713 114.709 243.895 115.033 244.193 115.215C244.491 115.396 244.862 115.409 245.172 115.249L244.713 114.36ZM279.328 96.4551L279.788 97.3433C279.8 97.3369 279.812 97.3302 279.824 97.3233L279.328 96.4551ZM290.548 103.14L291.548 103.14L291.548 103.14L290.548 103.14ZM290.548 113.883H289.548C289.548 114.238 289.736 114.567 290.043 114.746C290.35 114.925 290.728 114.929 291.038 114.754L290.548 113.883ZM321.104 96.6943L321.595 97.5659L321.601 97.5626L321.104 96.6943ZM332.563 103.379L331.563 103.379V103.379H332.563ZM332.563 168.073L333.563 168.073V168.073H332.563ZM319.195 181.442L319.195 182.442L319.195 182.442L319.195 181.442ZM263.268 181.442L262.312 181.738C262.442 182.157 262.829 182.442 263.268 182.442V181.442ZM261.96 177.622V176.622C261.632 176.622 261.325 176.783 261.138 177.052C260.951 177.322 260.908 177.666 261.024 177.973L261.96 177.622ZM319.195 177.622L319.195 178.622L319.195 178.622L319.195 177.622ZM328.744 168.073L329.744 168.073V168.073H328.744ZM328.744 103.379L327.744 103.379V103.379H328.744ZM323.015 100.036L323.506 100.907C323.514 100.903 323.522 100.898 323.529 100.894L323.015 100.036ZM289.593 118.896L289.909 119.844C289.97 119.824 290.028 119.798 290.084 119.766L289.593 118.896ZM287.684 118.896L288.131 118.001C288.088 117.98 288.045 117.962 288 117.947L287.684 118.896ZM286.729 117.225L287.729 117.225V117.225H286.729ZM286.729 103.14L287.729 103.14L287.729 103.14L286.729 103.14ZM280.999 99.7979L281.458 100.687C281.464 100.683 281.471 100.679 281.478 100.676L280.999 99.7979ZM243.519 119.135L243.966 120.029L243.977 120.023L243.519 119.135ZM241.609 119.135L240.902 119.842C241.012 119.952 241.146 120.034 241.293 120.083L241.609 119.135ZM240.893 117.463L241.893 117.463V117.463H240.893ZM240.893 84.042L239.893 84.042V84.042H240.893ZM235.163 78.3125L235.163 77.3125H235.163V78.3125ZM219.885 78.3125L219.885 77.3125L219.885 77.3125L219.885 78.3125ZM214.155 84.042L213.155 84.042V84.042H214.155ZM214.155 134.492L213.903 135.46C214.202 135.538 214.522 135.473 214.767 135.284C215.012 135.094 215.155 134.802 215.155 134.492H214.155ZM210.336 133.609H209.336C209.336 134.086 209.672 134.496 210.138 134.59L210.336 133.609ZM210.336 84.042L209.336 84.042V84.042H210.336ZM219.885 74.4922L219.885 73.4922L219.885 73.4922L219.885 74.4922ZM275.27 139.426L275.27 138.426H275.27V139.426ZM280.999 145.155L281.999 145.155L281.999 145.155L280.999 145.155ZM280.999 152.795L281.999 152.795V152.795H280.999ZM275.27 158.524L275.27 159.524L275.27 159.524L275.27 158.524ZM267.63 158.524L267.63 159.524H267.63V158.524ZM261.9 152.795L260.9 152.795L260.9 152.795L261.9 152.795ZM261.9 145.155L260.9 145.155V145.155H261.9ZM267.63 139.426L267.63 138.426L267.63 138.426L267.63 139.426ZM305.826 139.426L305.826 138.426H305.826V139.426ZM311.556 145.155L312.556 145.155L312.556 145.155L311.556 145.155ZM311.556 152.795L312.556 152.795V152.795H311.556ZM305.826 158.524L305.826 157.524H305.826V158.524ZM298.188 158.524L298.187 159.524H298.188V158.524ZM292.458 152.795L291.458 152.795L291.458 152.795L292.458 152.795ZM292.458 145.155L291.458 145.155V145.155H292.458ZM298.188 139.426L298.187 140.426H298.188V139.426ZM244.713 139.426L244.713 138.426H244.713V139.426ZM250.442 145.155L251.442 145.155L251.442 145.155L250.442 145.155ZM250.442 152.795L251.442 152.795V152.795H250.442ZM249.266 156.323L248.511 156.979C248.707 157.205 248.995 157.331 249.294 157.323C249.594 157.314 249.874 157.172 250.057 156.935L249.266 156.323ZM246.541 153.362L245.581 153.083C245.48 153.429 245.573 153.802 245.825 154.06L246.541 153.362ZM246.622 152.795L247.622 152.795V152.795H246.622ZM246.622 145.155L247.622 145.155L247.622 145.155L246.622 145.155ZM244.713 143.246L244.713 142.246H244.713V143.246ZM237.073 143.246L237.073 142.246L237.073 142.246L237.073 143.246ZM235.463 144.116L234.904 144.946C235.129 145.097 235.406 145.151 235.671 145.094C235.935 145.038 236.166 144.877 236.31 144.647L235.463 144.116ZM232.224 142.062L231.376 141.531C231.233 141.759 231.188 142.035 231.252 142.296C231.315 142.558 231.48 142.783 231.711 142.92L232.224 142.062ZM237.073 139.426L237.073 138.426L237.073 138.426L237.073 139.426ZM267.63 143.246L267.63 142.246L267.63 142.246L267.63 143.246ZM265.721 145.155L264.721 145.155V145.155H265.721ZM265.721 152.795L264.721 152.795L264.721 152.795L265.721 152.795ZM267.63 154.705L267.63 155.705H267.63V154.705ZM275.27 154.705L275.27 155.705L275.27 155.705L275.27 154.705ZM277.18 152.795L278.18 152.795V152.795H277.18ZM277.18 145.155L278.18 145.155L278.18 145.155L277.18 145.155ZM275.27 143.246L275.27 142.246H275.27V143.246ZM298.188 143.246L298.187 144.246H298.188V143.246ZM296.277 145.155L295.277 145.155V145.155H296.277ZM296.277 152.795L295.277 152.795L295.277 152.795L296.277 152.795ZM298.188 154.705L298.187 155.705H298.188V154.705ZM305.826 154.705L305.826 153.705H305.826V154.705ZM307.736 152.795L308.736 152.795V152.795H307.736ZM307.736 145.155L308.736 145.155L308.736 145.155L307.736 145.155ZM305.826 143.246L305.826 142.246H305.826V143.246ZM235.163 74.4922L235.163 75.4922C239.863 75.4922 243.713 79.3423 243.713 84.042L244.713 84.042L245.713 84.042C245.713 78.2377 240.967 73.4922 235.163 73.4922L235.163 74.4922ZM244.713 84.042H243.713V114.36H244.713H245.713V84.042H244.713ZM244.713 114.36L245.172 115.249L279.788 97.3433L279.328 96.4551L278.869 95.5669L244.253 113.472L244.713 114.36ZM279.328 96.4551L279.824 97.3233C284.133 94.8617 289.548 98.1339 289.548 103.14L290.548 103.14L291.548 103.14C291.548 96.687 284.55 92.3198 278.832 95.5868L279.328 96.4551ZM290.548 103.14H289.548V113.883H290.548H291.548V103.14H290.548ZM290.548 113.883L291.038 114.754L321.595 97.5659L321.104 96.6943L320.614 95.8228L290.058 113.011L290.548 113.883ZM321.104 96.6943L321.601 97.5626C325.936 95.0851 331.563 98.4047 331.563 103.379L332.563 103.379L333.563 103.379C333.563 96.8943 326.299 92.5742 320.608 95.8261L321.104 96.6943ZM332.563 103.379H331.563V168.073H332.563H333.563V103.379H332.563ZM332.563 168.073L331.563 168.073C331.563 174.91 325.816 180.442 319.195 180.442L319.195 181.442L319.195 182.442C326.898 182.442 333.563 176.037 333.563 168.073L332.563 168.073ZM319.195 181.442V180.442H263.268V181.442V182.442H319.195V181.442ZM263.268 181.442L264.223 181.146C263.817 179.838 263.374 178.546 262.896 177.271L261.96 177.622L261.024 177.973C261.488 179.212 261.918 180.467 262.312 181.738L263.268 181.442ZM261.96 177.622V178.622H319.195V177.622V176.622H261.96V177.622ZM319.195 177.622L319.195 178.622C324.983 178.622 329.744 174.133 329.744 168.073L328.744 168.073L327.744 168.073C327.744 172.995 323.911 176.622 319.195 176.622L319.195 177.622ZM328.744 168.073H329.744V103.379H328.744H327.744V168.073H328.744ZM328.744 103.379L329.744 103.379C329.744 101.535 328.668 100.037 327.276 99.2307C325.886 98.4258 324.06 98.2428 322.5 99.1786L323.015 100.036L323.529 100.894C324.357 100.397 325.396 100.453 326.274 100.962C327.149 101.469 327.744 102.358 327.744 103.379L328.744 103.379ZM323.015 100.036L322.523 99.1652L289.101 118.025L289.593 118.896L290.084 119.766L323.506 100.907L323.015 100.036ZM289.593 118.896L289.277 117.947C288.707 118.137 288.287 118.079 288.131 118.001L287.684 118.896L287.237 119.79C288.035 120.189 289.047 120.132 289.909 119.844L289.593 118.896ZM287.684 118.896L288 117.947C287.924 117.922 287.878 117.884 287.832 117.792C287.774 117.676 287.729 117.485 287.729 117.225L286.729 117.225L285.729 117.225C285.729 118.079 286.021 119.395 287.367 119.844L287.684 118.896ZM286.729 117.225H287.729V103.14H286.729H285.729V117.225H286.729ZM286.729 103.14L287.729 103.14C287.728 99.5176 283.814 97.1233 280.52 98.92L280.999 99.7979L281.478 100.676C283.436 99.6077 285.728 101.032 285.729 103.14L286.729 103.14ZM280.999 99.7979L280.541 98.9092L243.06 118.246L243.519 119.135L243.977 120.023L281.458 100.687L280.999 99.7979ZM243.519 119.135L243.072 118.24C242.915 118.318 242.495 118.376 241.926 118.186L241.609 119.135L241.293 120.083C242.155 120.371 243.167 120.428 243.965 120.029L243.519 119.135ZM241.609 119.135L242.316 118.428C242.137 118.248 242.042 118.108 241.986 117.982C241.932 117.861 241.893 117.704 241.893 117.463L240.893 117.463L239.893 117.463C239.893 117.938 239.973 118.379 240.158 118.795C240.341 119.206 240.604 119.544 240.902 119.842L241.609 119.135ZM240.893 117.463H241.893V84.042H240.893H239.893V117.463H240.893ZM240.893 84.042L241.893 84.042C241.893 80.3863 238.819 77.3125 235.163 77.3125L235.163 78.3125L235.163 79.3125C237.714 79.3125 239.893 81.4908 239.893 84.042L240.893 84.042ZM235.163 78.3125V77.3125H219.885V78.3125V79.3125H235.163V78.3125ZM219.885 78.3125L219.885 77.3125C215.963 77.3126 213.155 80.4138 213.155 84.042L214.155 84.042L215.155 84.042C215.155 81.4634 217.122 79.3126 219.885 79.3125L219.885 78.3125ZM214.155 84.042H213.155V134.492H214.155H215.155V84.042H214.155ZM214.155 134.492L214.408 133.525C213.13 133.191 211.838 132.892 210.533 132.629L210.336 133.609L210.138 134.59C211.406 134.845 212.661 135.136 213.903 135.46L214.155 134.492ZM210.336 133.609H211.336V84.042H210.336H209.336V133.609H210.336ZM210.336 84.042L211.336 84.042C211.336 79.3258 214.963 75.4923 219.885 75.4922L219.885 74.4922L219.885 73.4922C213.825 73.4923 209.336 78.2544 209.336 84.042L210.336 84.042ZM219.885 74.4922V75.4922H235.163V74.4922V73.4922H219.885V74.4922ZM275.27 139.426L275.27 140.426C277.821 140.426 279.999 142.604 279.999 145.155L280.999 145.155L281.999 145.155C281.999 141.5 278.925 138.426 275.27 138.426L275.27 139.426ZM280.999 145.155H279.999V152.795H280.999H281.999V145.155H280.999ZM280.999 152.795L279.999 152.795C279.999 155.558 277.848 157.524 275.27 157.524L275.27 158.524L275.27 159.524C278.898 159.524 281.999 156.716 281.999 152.795L280.999 152.795ZM275.27 158.524V157.524H267.63V158.524V159.524H275.27V158.524ZM267.63 158.524L267.63 157.524C264.84 157.524 262.9 155.585 262.9 152.795L261.9 152.795L260.9 152.795C260.9 156.689 263.736 159.524 267.63 159.524L267.63 158.524ZM261.9 152.795H262.9V145.155H261.9H260.9V152.795H261.9ZM261.9 145.155L262.9 145.155C262.901 142.577 264.867 140.426 267.63 140.426L267.63 139.426L267.63 138.426C263.709 138.426 260.901 141.527 260.9 145.155L261.9 145.155ZM267.63 139.426V140.426H275.27V139.426V138.426H267.63V139.426ZM305.826 139.426L305.826 140.426C308.377 140.426 310.556 142.604 310.556 145.155L311.556 145.155L312.556 145.155C312.555 141.5 309.482 138.426 305.826 138.426L305.826 139.426ZM311.556 145.155H310.556V152.795H311.556H312.556V145.155H311.556ZM311.556 152.795L310.556 152.795C310.556 155.558 308.405 157.524 305.826 157.524L305.826 158.524L305.826 159.524C309.454 159.524 312.556 156.716 312.556 152.795L311.556 152.795ZM305.826 158.524V157.524H298.188V158.524V159.524H305.826V158.524ZM298.188 158.524L298.188 157.524C295.398 157.524 293.458 155.585 293.458 152.795L292.458 152.795L291.458 152.795C291.458 156.689 294.293 159.524 298.187 159.524L298.188 158.524ZM292.458 152.795H293.458V145.155H292.458H291.458V152.795H292.458ZM292.458 145.155L293.458 145.155C293.458 142.577 295.425 140.426 298.187 140.426L298.188 139.426L298.188 138.426C294.266 138.426 291.458 141.527 291.458 145.155L292.458 145.155ZM298.188 139.426V140.426H305.826V139.426V138.426H298.188V139.426ZM244.713 139.426L244.713 140.426C247.264 140.426 249.442 142.604 249.442 145.155L250.442 145.155L251.442 145.155C251.442 141.5 248.368 138.426 244.713 138.426L244.713 139.426ZM250.442 145.155H249.442V152.795H250.442H251.442V145.155H250.442ZM250.442 152.795L249.442 152.795C249.442 153.943 249.074 154.936 248.474 155.712L249.266 156.323L250.057 156.935C250.926 155.81 251.442 154.387 251.442 152.795L250.442 152.795ZM249.266 156.323L250.02 155.667C249.128 154.64 248.207 153.639 247.257 152.664L246.541 153.362L245.825 154.06C246.748 155.007 247.643 155.98 248.511 156.979L249.266 156.323ZM246.541 153.362L247.501 153.642C247.577 153.382 247.622 153.099 247.622 152.795L246.622 152.795L245.622 152.795C245.622 152.898 245.607 152.993 245.581 153.083L246.541 153.362ZM246.622 152.795H247.622V145.155H246.622H245.622V152.795H246.622ZM246.622 145.155L247.622 145.155C247.622 144.353 247.231 143.634 246.733 143.136C246.234 142.637 245.516 142.246 244.713 142.246L244.713 143.246L244.713 144.246C244.865 144.246 245.101 144.332 245.318 144.55C245.536 144.767 245.622 145.003 245.622 145.155L246.622 145.155ZM244.713 143.246V142.246H237.073V143.246V144.246H244.713V143.246ZM237.073 143.246L237.073 142.246C235.971 142.246 235.104 142.805 234.616 143.585L235.463 144.116L236.31 144.647C236.454 144.417 236.699 144.246 237.073 144.246L237.073 143.246ZM235.463 144.116L236.021 143.287C234.947 142.563 233.851 141.868 232.736 141.203L232.224 142.062L231.711 142.92C232.795 143.567 233.86 144.242 234.904 144.946L235.463 144.116ZM232.224 142.062L233.071 142.592C233.878 141.304 235.301 140.426 237.073 140.426L237.073 139.426L237.073 138.426C234.594 138.426 232.539 139.674 231.376 141.531L232.224 142.062ZM237.073 139.426V140.426H244.713V139.426V138.426H237.073V139.426ZM267.63 143.246L267.63 142.246C265.804 142.246 264.721 143.732 264.721 145.155L265.721 145.155L266.721 145.155C266.721 144.669 267.069 144.246 267.63 144.246L267.63 143.246ZM265.721 145.155H264.721V152.795H265.721H266.721V145.155H265.721ZM265.721 152.795L264.721 152.795C264.721 153.592 264.964 154.347 265.52 154.904C266.077 155.462 266.832 155.705 267.63 155.705L267.63 154.705L267.63 153.705C267.234 153.705 267.035 153.59 266.935 153.491C266.836 153.391 266.721 153.191 266.721 152.795L265.721 152.795ZM267.63 154.705V155.705H275.27V154.705V153.705H267.63V154.705ZM275.27 154.705L275.27 155.705C276.693 155.705 278.18 154.621 278.18 152.795L277.18 152.795L276.18 152.795C276.18 153.356 275.756 153.705 275.27 153.705L275.27 154.705ZM277.18 152.795H278.18V145.155H277.18H276.18V152.795H277.18ZM277.18 145.155L278.18 145.155C278.18 144.352 277.788 143.634 277.289 143.135C276.791 142.637 276.072 142.246 275.27 142.246L275.27 143.246L275.269 144.246C275.422 144.246 275.658 144.332 275.876 144.55C276.093 144.768 276.18 145.003 276.18 145.155L277.18 145.155ZM275.27 143.246V142.246H267.63V143.246V144.246H275.27V143.246ZM298.188 143.246L298.188 142.246C296.362 142.246 295.278 143.731 295.277 145.155L296.277 145.155L297.277 145.155C297.277 144.67 297.626 144.246 298.187 144.246L298.188 143.246ZM296.277 145.155H295.277V152.795H296.277H297.277V145.155H296.277ZM296.277 152.795L295.277 152.795C295.277 153.592 295.521 154.348 296.078 154.905C296.635 155.462 297.39 155.705 298.187 155.705L298.188 154.705L298.188 153.705C297.791 153.705 297.592 153.59 297.492 153.49C297.392 153.391 297.277 153.191 297.277 152.795L296.277 152.795ZM298.188 154.705V155.705H305.826V154.705V153.705H298.188V154.705ZM305.826 154.705L305.826 155.705C307.25 155.705 308.736 154.621 308.736 152.795L307.736 152.795L306.736 152.795C306.736 153.356 306.312 153.705 305.826 153.705L305.826 154.705ZM307.736 152.795H308.736V145.155H307.736H306.736V152.795H307.736ZM307.736 145.155L308.736 145.155C308.736 144.352 308.345 143.634 307.846 143.135C307.348 142.637 306.629 142.246 305.826 142.246L305.826 143.246L305.826 144.246C305.979 144.246 306.215 144.332 306.432 144.55C306.65 144.768 306.736 145.003 306.736 145.155L307.736 145.155ZM305.826 143.246V142.246H298.188V143.246V144.246H305.826V143.246Z" fill="#D894FF" mask="url(#path-7-outside-3_265_3248)"/>
</svg>
