<svg width="23" height="23" viewBox="0 0 23 23" fill="none" xmlns="http://www.w3.org/2000/svg">
<path d="M2.97681 11.9255L10.7642 11.9255L10.7642 7.5239L2.97681 7.5239L2.97681 11.9255ZM2.97681 13.957L2.97681 18.3586C2.97681 18.7395 3.27307 19.0357 3.65397 19.0357L10.7642 19.0357L10.7642 13.957L2.97681 13.957ZM12.7957 19.0357L19.906 19.0357C20.2445 19.0357 20.5831 18.7395 20.5831 18.3586L20.5831 13.957L12.7957 13.957L12.7957 19.0357ZM20.5831 11.9255L20.5831 7.5239L12.7957 7.5239L12.7957 11.9255L20.5831 11.9255ZM3.65398 2.10657L19.906 2.10657C21.3873 2.10657 22.6146 3.33394 22.6146 4.81524L22.6146 18.3586C22.6146 19.8822 21.3873 21.0672 19.906 21.0672L3.65397 21.0672C2.13035 21.0672 0.945309 19.8822 0.945309 18.3586L0.945312 4.81524C0.945312 3.33393 2.13035 2.10657 3.65398 2.10657Z" fill="#D894FF"/>
</svg>
